  0
SECTION
  2
HEADER
  9
$ACADVER
  1
AC1006
  9
$EXTMIN
 10
0.000000
 20
0.000000
 30
0.000000
  9
$EXTMAX
 10
320.000000
 20
320.000000
 30
0.000000
  0
ENDSEC
  0
SECTION
  2
ENTITIES
  0
POLYLINE
  8
0
 66
1
 70
1
  0
VERTEX
  8
0
 10
212.268573
 20
259.060073
 42
0.015228
  0
VERTEX
  8
0
 10
210.592110
 20
258.734171
 42
0.018816
  0
VERTEX
  8
0
 10
209.054359
 20
258.324955
 42
0.017443
  0
VERTEX
  8
0
 10
207.806505
 20
257.893911
 42
0.116775
  0
VERTEX
  8
0
 10
207.268573
 20
257.525910
 42
0.189612
  0
VERTEX
  8
0
 10
207.175377
 20
257.280953
 42
0.379196
  0
VERTEX
  8
0
 10
207.304315
 20
257.138637
 42
0.091736
  0
VERTEX
  8
0
 10
207.756636
 20
257.171791
 42
0.022715
  0
VERTEX
  8
0
 10
208.469519
 20
257.393523
 42
-0.020277
  0
VERTEX
  8
0
 10
209.181556
 20
257.618804
 42
-0.086065
  0
VERTEX
  8
0
 10
209.624758
 20
257.660664
 42
-0.408204
  0
VERTEX
  8
0
 10
209.738494
 20
257.530499
 42
-0.184088
  0
VERTEX
  8
0
 10
209.636539
 20
257.302853
 42
-0.088826
  0
VERTEX
  8
0
 10
209.179770
 20
256.984674
 42
-0.031414
  0
VERTEX
  8
0
 10
208.433211
 20
256.696452
 42
-0.030005
  0
VERTEX
  8
0
 10
207.555496
 20
256.476406
 42
-0.030973
  0
VERTEX
  8
0
 10
206.667019
 20
256.365919
 42
0.059508
  0
VERTEX
  8
0
 10
204.351615
 20
255.942982
 42
0.007946
  0
VERTEX
  8
0
 10
199.624070
 20
254.400227
 42
0.005728
  0
VERTEX
  8
0
 10
194.837855
 20
252.692154
 42
0.108209
  0
VERTEX
  8
0
 10
193.504561
 20
251.837894
 42
0.583595
  0
VERTEX
  8
0
 10
193.550170
 20
251.673824
 42
0.046101
  0
VERTEX
  8
0
 10
194.111459
 20
251.588431
 42
0.027231
  0
VERTEX
  8
0
 10
195.046268
 20
251.584324
 42
0.012621
  0
VERTEX
  8
0
 10
196.257649
 20
251.675709
 42
0.000000
  0
VERTEX
  8
0
 10
199.500000
 20
252.002786
 42
0.000000
  0
VERTEX
  8
0
 10
196.191432
 20
250.726628
 42
0.020600
  0
VERTEX
  8
0
 10
194.964666
 20
250.194424
 42
0.038525
  0
VERTEX
  8
0
 10
194.030133
 20
249.649964
 42
0.054007
  0
VERTEX
  8
0
 10
193.474361
 20
249.169892
 42
0.404011
  0
VERTEX
  8
0
 10
193.479893
 20
248.853441
 42
-0.498076
  0
VERTEX
  8
0
 10
193.387316
 20
248.190834
 42
-0.008530
  0
VERTEX
  8
0
 10
189.654771
 20
246.196556
 42
-0.013678
  0
VERTEX
  8
0
 10
185.906238
 20
244.402924
 42
-0.105119
  0
VERTEX
  8
0
 10
184.010898
 20
244.000000
 42
0.129646
  0
VERTEX
  8
0
 10
183.625387
 20
243.898331
 42
0.100690
  0
VERTEX
  8
0
 10
183.296951
 20
243.612349
 42
0.088773
  0
VERTEX
  8
0
 10
183.076080
 20
243.184547
 42
0.075020
  0
VERTEX
  8
0
 10
183.000000
 20
242.680335
 42
-0.183497
  0
VERTEX
  8
0
 10
182.431553
 20
241.183566
 42
-0.030514
  0
VERTEX
  8
0
 10
180.211601
 20
238.970367
 42
-0.031673
  0
VERTEX
  8
0
 10
177.273576
 20
236.692309
 42
-0.030608
  0
VERTEX
  8
0
 10
174.038558
 20
234.774978
 42
0.014749
  0
VERTEX
  8
0
 10
172.681881
 20
234.027964
 42
0.071183
  0
VERTEX
  8
0
 10
171.996101
 20
233.479115
 42
0.390946
  0
VERTEX
  8
0
 10
171.993494
 20
233.167889
 42
0.211527
  0
VERTEX
  8
0
 10
172.372587
 20
233.000000
 42
-0.148125
  0
VERTEX
  8
0
 10
173.090256
 20
232.782621
 42
-0.337546
  0
VERTEX
  8
0
 10
173.263810
 20
232.278398
 42
-0.079665
  0
VERTEX
  8
0
 10
172.738404
 20
231.265651
 42
-0.008073
  0
VERTEX
  8
0
 10
171.084029
 20
229.106096
 42
0.013963
  0
VERTEX
  8
0
 10
169.903095
 20
227.526345
 42
0.017665
  0
VERTEX
  8
0
 10
168.905934
 20
225.999945
 42
0.015861
  0
VERTEX
  8
0
 10
168.167600
 20
224.685011
 42
0.120556
  0
VERTEX
  8
0
 10
168.000000
 20
224.000000
 42
-0.148935
  0
VERTEX
  8
0
 10
167.567927
 20
222.581636
 42
-0.009166
  0
VERTEX
  8
0
 10
165.012615
 20
218.923412
 42
-0.014106
  0
VERTEX
  8
0
 10
162.296566
 20
215.396741
 42
-0.048154
  0
VERTEX
  8
0
 10
160.260060
 20
213.341066
 42
0.030687
  0
VERTEX
  8
0
 10
159.723048
 20
212.835543
 42
0.032150
  0
VERTEX
  8
0
 10
159.260865
 20
212.275506
 42
0.033974
  0
VERTEX
  8
0
 10
158.928746
 20
211.743125
 42
0.107490
  0
VERTEX
  8
0
 10
158.815008
 20
211.341066
 42
-0.113277
  0
VERTEX
  8
0
 10
158.469531
 20
210.171059
 42
-0.039693
  0
VERTEX
  8
0
 10
157.485072
 20
208.707258
 42
-0.038096
  0
VERTEX
  8
0
 10
156.391547
 20
207.527667
 42
-0.403037
  0
VERTEX
  8
0
 10
155.794224
 20
207.539110
 42
0.525191
  0
VERTEX
  8
0
 10
155.620294
 20
207.507137
 42
0.080763
  0
VERTEX
  8
0
 10
155.511543
 20
207.099368
 42
0.036479
  0
VERTEX
  8
0
 10
155.491084
 20
206.328336
 42
0.015736
  0
VERTEX
  8
0
 10
155.571089
 20
205.302935
 42
-0.072367
  0
VERTEX
  8
0
 10
155.500181
 20
203.286358
 42
-0.163750
  0
VERTEX
  8
0
 10
154.771299
 20
201.965524
 42
-0.228863
  0
VERTEX
  8
0
 10
153.591290
 20
201.610888
 42
-0.134476
  0
VERTEX
  8
0
 10
152.220657
 20
202.231834
 42
0.051703
  0
VERTEX
  8
0
 10
151.559247
 20
202.674119
 42
0.453941
  0
VERTEX
  8
0
 10
151.268886
 20
202.562781
 42
0.136443
  0
VERTEX
  8
0
 10
151.222537
 20
201.993055
 42
0.009753
  0
VERTEX
  8
0
 10
151.556086
 20
200.424632
 42
0.024404
  0
VERTEX
  8
0
 10
151.924730
 20
199.132162
 42
0.015393
  0
VERTEX
  8
0
 10
152.473790
 20
197.662006
 42
0.015452
  0
VERTEX
  8
0
 10
153.104384
 20
196.246564
 42
0.027271
  0
VERTEX
  8
0
 10
153.722694
 20
195.126876
 42
-0.018482
  0
VERTEX
  8
0
 10
154.224672
 20
194.254432
 42
-0.065794
  0
VERTEX
  8
0
 10
154.447525
 20
193.650965
 42
-0.322007
  0
VERTEX
  8
0
 10
154.355682
 20
193.434153
 42
-0.282320
  0
VERTEX
  8
0
 10
154.105223
 20
193.434968
 42
0.476088
  0
VERTEX
  8
0
 10
153.443998
 20
193.204710
 42
0.102940
  0
VERTEX
  8
0
 10
153.245871
 20
191.817561
 42
0.061947
  0
VERTEX
  8
0
 10
153.599371
 20
189.949492
 42
0.159576
  0
VERTEX
  8
0
 10
154.395717
 20
188.850925
 42
-0.233552
  0
VERTEX
  8
0
 10
154.958877
 20
187.781867
 42
-0.167924
  0
VERTEX
  8
0
 10
154.544637
 20
186.474211
 42
-0.120905
  0
VERTEX
  8
0
 10
153.231613
 20
185.389131
 42
-0.112974
  0
VERTEX
  8
0
 10
151.531385
 20
185.000000
 42
-0.048327
  0
VERTEX
  8
0
 10
150.228333
 20
185.126239
 42
-0.151382
  0
VERTEX
  8
0
 10
149.462182
 20
185.538483
 42
-0.140254
  0
VERTEX
  8
0
 10
149.029463
 20
186.334379
 42
-0.039314
  0
VERTEX
  8
0
 10
148.828950
 20
187.750000
 42
0.000011
  0
VERTEX
  8
0
 10
148.755562
 20
188.929454
 42
0.000009
  0
VERTEX
  8
0
 10
148.676469
 20
190.199809
 42
0.000009
  0
VERTEX
  8
0
 10
148.603260
 20
191.375010
 42
0.000022
  0
VERTEX
  8
0
 10
148.550065
 20
192.228074
 42
0.083439
  0
VERTEX
  8
0
 10
148.372611
 20
192.990036
 42
0.043851
  0
VERTEX
  8
0
 10
147.919693
 20
193.853777
 42
0.042027
  0
VERTEX
  8
0
 10
147.285428
 20
194.680195
 42
0.050247
  0
VERTEX
  8
0
 10
146.555545
 20
195.335726
 42
-0.013398
  0
VERTEX
  8
0
 10
145.376175
 20
196.247579
 42
-0.228199
  0
VERTEX
  8
0
 10
145.174244
 20
196.679730
 42
-0.247543
  0
VERTEX
  8
0
 10
145.394427
 20
197.085737
 42
-0.015653
  0
VERTEX
  8
0
 10
146.584430
 20
197.827243
 42
0.023571
  0
VERTEX
  8
0
 10
147.252535
 20
198.258380
 42
0.080415
  0
VERTEX
  8
0
 10
147.619072
 20
198.621483
 42
0.303458
  0
VERTEX
  8
0
 10
147.628184
 20
198.847080
 42
0.253705
  0
VERTEX
  8
0
 10
147.416667
 20
198.969591
 42
-0.297533
  0
VERTEX
  8
0
 10
146.770978
 20
199.417468
 42
-0.052536
  0
VERTEX
  8
0
 10
146.341520
 20
200.905395
 42
-0.029630
  0
VERTEX
  8
0
 10
146.042078
 20
203.458040
 42
-0.006986
  0
VERTEX
  8
0
 10
145.855012
 20
207.750000
 42
0.052930
  0
VERTEX
  8
0
 10
145.737791
 20
208.610784
 42
0.071307
  0
VERTEX
  8
0
 10
145.443964
 20
209.339063
 42
0.089688
  0
VERTEX
  8
0
 10
145.027356
 20
209.828934
 42
0.173497
  0
VERTEX
  8
0
 10
144.549201
 20
210.000000
 42
-0.165651
  0
VERTEX
  8
0
 10
143.287435
 20
210.429820
 42
-0.035017
  0
VERTEX
  8
0
 10
141.524248
 20
211.997108
 42
-0.049969
  0
VERTEX
  8
0
 10
140.318745
 20
213.505383
 42
-0.578030
  0
VERTEX
  8
0
 10
140.595012
 20
214.044196
 42
0.655702
  0
VERTEX
  8
0
 10
140.657919
 20
214.210688
 42
0.039553
  0
VERTEX
  8
0
 10
140.098716
 20
214.674327
 42
0.022058
  0
VERTEX
  8
0
 10
139.057087
 20
215.340605
 42
0.009894
  0
VERTEX
  8
0
 10
137.634659
 20
216.127259
 42
-0.031002
  0
VERTEX
  8
0
 10
136.117655
 20
217.051860
 42
-0.032667
  0
VERTEX
  8
0
 10
134.754366
 20
218.142321
 42
-0.034593
  0
VERTEX
  8
0
 10
133.714896
 20
219.232346
 42
-0.109618
  0
VERTEX
  8
0
 10
133.257334
 20
220.123955
 42
0.056822
  0
VERTEX
  8
0
 10
132.978281
 20
220.844913
 42
0.080057
  0
VERTEX
  8
0
 10
132.565960
 20
221.395711
 42
0.102896
  0
VERTEX
  8
0
 10
132.090288
 20
221.696161
 42
0.172390
  0
VERTEX
  8
0
 10
131.622675
 20
221.704046
 42
-0.167199
  0
VERTEX
  8
0
 10
130.890265
 20
221.709004
 42
-0.011449
  0
VERTEX
  8
0
 10
128.920411
 20
222.452708
 42
-0.015349
  0
VERTEX
  8
0
 10
126.571739
 20
223.486358
 42
-0.010873
  0
VERTEX
  8
0
 10
124.000000
 20
224.783122
 42
-0.000028
  0
VERTEX
  8
0
 10
121.218340
 20
226.262660
 42
-0.000023
  0
VERTEX
  8
0
 10
118.234375
 20
227.850193
 42
-0.000023
  0
VERTEX
  8
0
 10
115.482779
 20
229.314428
 42
-0.000060
  0
VERTEX
  8
0
 10
113.500000
 20
230.369968
 42
0.047872
  0
VERTEX
  8
0
 10
110.727898
 20
231.521280
 42
0.046134
  0
VERTEX
  8
0
 10
107.752835
 20
232.142250
 42
0.024641
  0
VERTEX
  8
0
 10
103.396331
 20
232.422745
 42
0.004100
  0
VERTEX
  8
0
 10
95.000000
 20
232.480048
 42
0.004794
  0
VERTEX
  8
0
 10
86.735589
 20
232.389427
 42
0.022945
  0
VERTEX
  8
0
 10
82.031696
 20
232.076463
 42
0.036880
  0
VERTEX
  8
0
 10
78.516281
 20
231.414791
 42
0.030410
  0
VERTEX
  8
0
 10
74.894718
 20
230.212345
 42
0.024560
  0
VERTEX
  8
0
 10
68.316729
 20
227.191693
 42
0.052101
  0
VERTEX
  8
0
 10
63.645025
 20
224.106170
 42
0.060808
  0
VERTEX
  8
0
 10
60.171872
 20
220.463073
 42
0.047246
  0
VERTEX
  8
0
 10
57.327642
 20
215.778215
 42
0.012428
  0
VERTEX
  8
0
 10
55.377342
 20
211.484452
 42
0.013272
  0
VERTEX
  8
0
 10
53.687659
 20
207.191329
 42
0.014187
  0
VERTEX
  8
0
 10
52.376446
 20
203.235206
 42
0.027551
  0
VERTEX
  8
0
 10
51.596441
 20
200.000000
 42
0.000235
  0
VERTEX
  8
0
 10
51.445069
 20
199.172961
 42
0.000053
  0
VERTEX
  8
0
 10
51.188322
 20
197.765625
 42
0.000055
  0
VERTEX
  8
0
 10
50.892368
 20
196.141407
 42
0.000053
  0
VERTEX
  8
0
 10
50.593648
 20
194.500000
 42
-0.013633
  0
VERTEX
  8
0
 10
50.218268
 20
192.714125
 42
-0.008553
  0
VERTEX
  8
0
 10
49.687002
 20
190.646875
 42
-0.008584
  0
VERTEX
  8
0
 10
49.093800
 20
188.628289
 42
-0.015496
  0
VERTEX
  8
0
 10
48.528818
 20
187.000000
 42
0.050848
  0
VERTEX
  8
0
 10
47.103940
 20
181.715325
 42
0.022152
  0
VERTEX
  8
0
 10
46.251183
 20
174.488526
 42
0.021912
  0
VERTEX
  8
0
 10
46.040608
 20
167.313680
 42
0.059901
  0
VERTEX
  8
0
 10
46.718086
 20
162.293333
 42
-0.004049
  0
VERTEX
  8
0
 10
47.736910
 20
158.230440
 42
-0.068165
  0
VERTEX
  8
0
 10
47.876892
 20
156.855775
 42
-0.272409
  0
VERTEX
  8
0
 10
47.483007
 20
156.236569
 42
-0.118636
  0
VERTEX
  8
0
 10
46.500000
 20
156.000000
 42
0.112956
  0
VERTEX
  8
0
 10
45.372340
 20
155.741956
 42
0.346964
  0
VERTEX
  8
0
 10
45.051959
 20
155.083675
 42
0.208357
  0
VERTEX
  8
0
 10
45.632620
 20
154.280259
 42
0.069702
  0
VERTEX
  8
0
 10
47.000000
 20
153.710251
 42
-0.084388
  0
VERTEX
  8
0
 10
47.837297
 20
153.332156
 42
-0.088022
  0
VERTEX
  8
0
 10
48.488592
 20
152.702982
 42
-0.083146
  0
VERTEX
  8
0
 10
48.909753
 20
151.855417
 42
-0.065665
  0
VERTEX
  8
0
 10
49.077315
 20
150.843620
 42
0.760744
  0
VERTEX
  8
0
 10
49.323746
 20
150.784062
 42
0.040353
  0
VERTEX
  8
0
 10
49.866867
 20
151.979063
 42
0.015743
  0
VERTEX
  8
0
 10
50.688672
 20
154.505900
 42
0.006360
  0
VERTEX
  8
0
 10
51.656584
 20
158.000000
 42
-0.002351
  0
VERTEX
  8
0
 10
55.270343
 20
171.464231
 42
-0.031368
  0
VERTEX
  8
0
 10
56.928863
 20
176.312066
 42
-0.069059
  0
VERTEX
  8
0
 10
58.803357
 20
179.509500
 42
-0.030638
  0
VERTEX
  8
0
 10
62.069228
 20
183.163243
 42
0.017551
  0
VERTEX
  8
0
 10
63.957215
 20
185.167396
 42
0.022140
  0
VERTEX
  8
0
 10
65.551586
 20
187.154451
 42
0.020967
  0
VERTEX
  8
0
 10
66.718484
 20
188.897284
 42
0.137879
  0
VERTEX
  8
0
 10
67.000000
 20
189.898754
 42
-0.117083
  0
VERTEX
  8
0
 10
67.399190
 20
191.580118
 42
-0.116959
  0
VERTEX
  8
0
 10
68.511643
 20
192.903369
 42
-0.087237
  0
VERTEX
  8
0
 10
70.400317
 20
193.850511
 42
-0.040523
  0
VERTEX
  8
0
 10
73.091729
 20
194.423602
 42
0.004796
  0
VERTEX
  8
0
 10
74.398519
 20
194.605610
 42
0.007905
  0
VERTEX
  8
0
 10
75.498820
 20
194.787457
 42
0.002511
  0
VERTEX
  8
0
 10
76.433591
 20
194.962022
 42
0.359699
  0
VERTEX
  8
0
 10
76.500000
 20
195.042390
 42
-0.407342
  0
VERTEX
  8
0
 10
76.572304
 20
195.116414
 42
-0.000065
  0
VERTEX
  8
0
 10
82.936440
 20
195.265298
 42
-0.001265
  0
VERTEX
  8
0
 10
90.009398
 20
195.411952
 42
-0.000758
  0
VERTEX
  8
0
 10
98.411285
 20
195.552155
 42
-0.002438
  0
VERTEX
  8
0
 10
110.471503
 20
195.676287
 42
-0.013916
  0
VERTEX
  8
0
 10
116.876683
 20
195.532694
 42
-0.025841
  0
VERTEX
  8
0
 10
120.857357
 20
195.125588
 42
-0.080600
  0
VERTEX
  8
0
 10
123.411285
 20
194.294977
 42
-0.033345
  0
VERTEX
  8
0
 10
126.096244
 20
192.678381
 42
-0.032024
  0
VERTEX
  8
0
 10
128.581013
 20
190.699073
 42
-0.030691
  0
VERTEX
  8
0
 10
130.477928
 20
188.753581
 42
-0.175593
  0
VERTEX
  8
0
 10
130.982723
 20
187.427582
 42
0.096903
  0
VERTEX
  8
0
 10
131.126258
 20
186.751879
 42
0.006910
  0
VERTEX
  8
0
 10
131.907024
 20
184.986177
 42
0.009521
  0
VERTEX
  8
0
 10
132.914445
 20
182.896375
 42
0.007038
  0
VERTEX
  8
0
 10
134.105016
 20
180.622364
 42
-0.007440
  0
VERTEX
  8
0
 10
135.947451
 20
177.096375
 42
-0.069110
  0
VERTEX
  8
0
 10
136.500892
 20
175.473351
 42
-0.153217
  0
VERTEX
  8
0
 10
136.368126
 20
174.308015
 42
-0.079682
  0
VERTEX
  8
0
 10
135.562577
 20
173.069147
 42
-0.090913
  0
VERTEX
  8
0
 10
134.498351
 20
172.253541
 42
-0.038000
  0
VERTEX
  8
0
 10
132.825168
 20
171.552799
 42
-0.031898
  0
VERTEX
  8
0
 10
130.671148
 20
170.986978
 42
-0.020114
  0
VERTEX
  8
0
 10
128.100408
 20
170.590870
 42
0.019389
  0
VERTEX
  8
0
 10
125.189304
 20
170.146635
 42
0.044183
  0
VERTEX
  8
0
 10
123.053566
 20
169.535930
 42
0.055960
  0
VERTEX
  8
0
 10
121.391196
 20
168.673381
 42
0.056605
  0
VERTEX
  8
0
 10
119.968533
 20
167.466505
 42
0.016169
  0
VERTEX
  8
0
 10
119.134514
 20
166.519136
 42
0.034292
  0
VERTEX
  8
0
 10
118.566086
 20
165.724536
 42
0.059416
  0
VERTEX
  8
0
 10
118.315290
 20
165.183005
 42
0.509797
  0
VERTEX
  8
0
 10
118.448131
 20
165.000000
 42
-0.293076
  0
VERTEX
  8
0
 10
118.643832
 20
164.874510
 42
-0.173356
  0
VERTEX
  8
0
 10
118.668863
 20
164.587941
 42
-0.077157
  0
VERTEX
  8
0
 10
118.472467
 20
164.136300
 42
-0.032144
  0
VERTEX
  8
0
 10
118.080707
 20
163.597246
 42
0.214199
  0
VERTEX
  8
0
 10
117.746769
 20
162.393929
 42
0.350158
  0
VERTEX
  8
0
 10
118.483217
 20
161.713548
 42
0.085651
  0
VERTEX
  8
0
 10
120.840233
 20
161.946868
 42
0.021919
  0
VERTEX
  8
0
 10
124.500000
 20
163.132862
 42
-0.044091
  0
VERTEX
  8
0
 10
130.675241
 20
164.835859
 42
-0.097542
  0
VERTEX
  8
0
 10
135.541628
 20
164.770140
 42
-0.144567
  0
VERTEX
  8
0
 10
138.835914
 20
162.991289
 42
-0.153475
  0
VERTEX
  8
0
 10
140.540833
 20
159.747859
 42
-0.017866
  0
VERTEX
  8
0
 10
140.839479
 20
157.683290
 42
-0.368017
  0
VERTEX
  8
0
 10
140.511785
 20
157.201556
 42
-0.149488
  0
VERTEX
  8
0
 10
139.695166
 20
157.224909
 42
-0.003455
  0
VERTEX
  8
0
 10
136.000000
 20
158.500000
 42
0.010431
  0
VERTEX
  8
0
 10
132.512597
 20
159.649206
 42
0.076257
  0
VERTEX
  8
0
 10
130.777296
 20
159.903034
 42
0.591237
  0
VERTEX
  8
0
 10
130.531704
 20
159.449087
 42
0.088039
  0
VERTEX
  8
0
 10
131.441130
 20
158.468197
 42
-0.080094
  0
VERTEX
  8
0
 10
132.195982
 20
157.679363
 42
-0.503279
  0
VERTEX
  8
0
 10
132.043221
 20
157.231911
 42
-0.073549
  0
VERTEX
  8
0
 10
130.817107
 20
157.030978
 42
-0.003900
  0
VERTEX
  8
0
 10
126.846117
 20
157.000000
 42
0.012522
  0
VERTEX
  8
0
 10
123.394595
 20
156.913543
 42
0.046447
  0
VERTEX
  8
0
 10
121.242210
 20
156.603826
 42
0.073024
  0
VERTEX
  8
0
 10
119.733726
 20
155.998640
 42
0.077131
  0
VERTEX
  8
0
 10
118.494452
 20
154.993869
 42
0.051755
  0
VERTEX
  8
0
 10
117.328679
 20
153.402169
 42
0.325743
  0
VERTEX
  8
0
 10
117.424365
 20
152.458735
 42
0.171067
  0
VERTEX
  8
0
 10
118.559658
 20
151.836961
 42
0.016981
  0
VERTEX
  8
0
 10
121.686102
 20
151.433795
 42
-0.009966
  0
VERTEX
  8
0
 10
126.665895
 20
150.862532
 42
-0.025509
  0
VERTEX
  8
0
 10
130.232247
 20
150.194552
 42
-0.034205
  0
VERTEX
  8
0
 10
132.712820
 20
149.414849
 42
-0.126962
  0
VERTEX
  8
0
 10
134.030683
 20
148.463030
 42
-0.077148
  0
VERTEX
  8
0
 10
134.462482
 20
147.740606
 42
-0.278037
  0
VERTEX
  8
0
 10
134.381705
 20
147.232413
 42
-0.143868
  0
VERTEX
  8
0
 10
133.783154
 20
146.835957
 42
-0.020318
  0
VERTEX
  8
0
 10
132.338251
 20
146.453730
 42
0.003621
  0
VERTEX
  8
0
 10
129.355609
 20
145.770378
 42
0.069649
  0
VERTEX
  8
0
 10
128.471488
 20
145.425895
 42
0.720933
  0
VERTEX
  8
0
 10
128.516169
 20
145.192419
 42
0.024838
  0
VERTEX
  8
0
 10
129.883980
 20
145.078947
 42
0.056506
  0
VERTEX
  8
0
 10
132.818352
 20
145.313574
 42
0.033405
  0
VERTEX
  8
0
 10
136.218292
 20
146.216081
 42
0.029336
  0
VERTEX
  8
0
 10
139.062679
 20
147.368370
 42
0.446816
  0
VERTEX
  8
0
 10
139.330083
 20
148.274931
 42
-0.175698
  0
VERTEX
  8
0
 10
139.271718
 20
148.554616
 42
-0.390298
  0
VERTEX
  8
0
 10
139.426631
 20
148.681033
 42
-0.092414
  0
VERTEX
  8
0
 10
139.885382
 20
148.566783
 42
-0.020320
  0
VERTEX
  8
0
 10
140.612830
 20
148.198161
 42
-0.194115
  0
VERTEX
  8
0
 10
142.458168
 20
145.905346
 42
-0.033236
  0
VERTEX
  8
0
 10
143.746580
 20
140.346979
 42
-0.036164
  0
VERTEX
  8
0
 10
144.273024
 20
134.449589
 42
-0.102249
  0
VERTEX
  8
0
 10
143.508051
 20
130.407833
 42
0.029552
  0
VERTEX
  8
0
 10
142.938560
 20
128.754688
 42
0.008621
  0
VERTEX
  8
0
 10
142.258389
 20
126.149987
 42
0.008631
  0
VERTEX
  8
0
 10
141.592510
 20
123.185136
 42
0.009142
  0
VERTEX
  8
0
 10
141.043050
 20
120.255232
 42
-0.037300
  0
VERTEX
  8
0
 10
138.989764
 20
111.924867
 42
-0.054683
  0
VERTEX
  8
0
 10
135.877249
 20
105.056559
 42
-0.046383
  0
VERTEX
  8
0
 10
130.949528
 20
98.261641
 42
-0.019121
  0
VERTEX
  8
0
 10
123.122655
 20
90.000000
 42
-0.005854
  0
VERTEX
  8
0
 10
116.860868
 20
84.018976
 42
-0.028865
  0
VERTEX
  8
0
 10
113.106873
 20
80.901392
 42
-0.045521
  0
VERTEX
  8
0
 10
109.872307
 20
78.943310
 42
-0.032218
  0
VERTEX
  8
0
 10
105.942169
 20
77.332591
 42
-0.037163
  0
VERTEX
  8
0
 10
100.806986
 20
76.019981
 42
-0.058209
  0
VERTEX
  8
0
 10
96.261243
 20
75.748395
 42
-0.050974
  0
VERTEX
  8
0
 10
91.361515
 20
76.531432
 42
-0.021855
  0
VERTEX
  8
0
 10
85.031091
 20
78.517690
 42
-0.054489
  0
VERTEX
  8
0
 10
81.122769
 20
80.437590
 42
-0.024191
  0
VERTEX
  8
0
 10
76.421358
 20
83.750530
 42
-0.021284
  0
VERTEX
  8
0
 10
71.239526
 20
88.157699
 42
-0.015208
  0
VERTEX
  8
0
 10
65.815015
 20
93.500000
 42
-0.043197
  0
VERTEX
  8
0
 10
65.217972
 20
94.243954
 42
-0.001939
  0
VERTEX
  8
0
 10
63.398355
 20
96.984893
 42
-0.003244
  0
VERTEX
  8
0
 10
61.270941
 20
100.262716
 42
-0.002314
  0
VERTEX
  8
0
 10
58.929783
 20
103.959211
 42
0.002653
  0
VERTEX
  8
0
 10
55.261522
 20
109.742427
 42
0.048900
  0
VERTEX
  8
0
 10
53.917659
 20
111.444679
 42
0.514779
  0
VERTEX
  8
0
 10
53.297044
 20
111.353415
 42
0.119054
  0
VERTEX
  8
0
 10
53.000000
 20
110.123584
 42
0.118829
  0
VERTEX
  8
0
 10
54.046053
 20
105.784225
 42
0.013788
  0
VERTEX
  8
0
 10
58.881138
 20
96.947768
 42
0.017584
  0
VERTEX
  8
0
 10
64.747478
 20
87.661340
 42
0.025964
  0
VERTEX
  8
0
 10
70.583583
 20
79.992144
 42
0.039606
  0
VERTEX
  8
0
 10
76.980520
 20
73.546132
 42
0.059433
  0
VERTEX
  8
0
 10
83.553342
 20
69.132664
 42
0.064373
  0
VERTEX
  8
0
 10
90.561910
 20
66.621671
 42
0.057701
  0
VERTEX
  8
0
 10
98.248152
 20
65.849041
 42
-0.092931
  0
VERTEX
  8
0
 10
98.990797
 20
65.721378
 42
-0.058675
  0
VERTEX
  8
0
 10
99.776021
 20
65.319755
 42
-0.056275
  0
VERTEX
  8
0
 10
100.482760
 20
64.721534
 42
-0.066231
  0
VERTEX
  8
0
 10
100.994559
 20
64.010167
 42
-0.215065
  0
VERTEX
  8
0
 10
101.132814
 20
61.971733
 42
-0.075256
  0
VERTEX
  8
0
 10
99.674926
 20
59.341879
 42
-0.064313
  0
VERTEX
  8
0
 10
97.144652
 20
56.808896
 42
-0.066293
  0
VERTEX
  8
0
 10
94.078342
 20
55.032450
 42
0.049942
  0
VERTEX
  8
0
 10
92.717802
 20
54.302380
 42
0.067541
  0
VERTEX
  8
0
 10
91.676298
 20
53.375598
 42
0.068837
  0
VERTEX
  8
0
 10
90.933265
 20
52.219632
 42
0.054460
  0
VERTEX
  8
0
 10
90.458271
 20
50.810007
 42
-0.056430
  0
VERTEX
  8
0
 10
89.956586
 20
49.340287
 42
-0.075655
  0
VERTEX
  8
0
 10
89.171203
 20
48.174142
 42
-0.069118
  0
VERTEX
  8
0
 10
88.015054
 20
47.221779
 42
-0.038832
  0
VERTEX
  8
0
 10
86.392737
 20
46.390736
 42
-0.029347
  0
VERTEX
  8
0
 10
84.306578
 20
45.659578
 42
-0.095781
  0
VERTEX
  8
0
 10
82.855513
 20
45.532361
 42
-0.078852
  0
VERTEX
  8
0
 10
81.310839
 20
45.944785
 42
-0.015890
  0
VERTEX
  8
0
 10
78.742560
 20
47.185616
 42
0.008945
  0
VERTEX
  8
0
 10
77.069032
 20
48.023022
 42
0.012739
  0
VERTEX
  8
0
 10
75.551614
 20
48.701732
 42
0.008732
  0
VERTEX
  8
0
 10
74.274472
 20
49.208359
 42
0.155125
  0
VERTEX
  8
0
 10
73.837402
 20
49.231278
 42
-0.277121
  0
VERTEX
  8
0
 10
72.549344
 20
49.609022
 42
-0.003415
  0
VERTEX
  8
0
 10
66.505211
 20
56.254750
 42
-0.010089
  0
VERTEX
  8
0
 10
60.303167
 20
63.455528
 42
-0.011624
  0
VERTEX
  8
0
 10
54.691167
 20
70.574238
 42
-0.015049
  0
VERTEX
  8
0
 10
49.178782
 20
78.390277
 42
-0.054160
  0
VERTEX
  8
0
 10
46.387795
 20
83.804799
 42
-0.077105
  0
VERTEX
  8
0
 10
45.342738
 20
88.617611
 42
-0.056012
  0
VERTEX
  8
0
 10
45.628015
 20
94.099622
 42
0.011138
  0
VERTEX
  8
0
 10
45.950620
 20
96.362260
 42
0.018948
  0
VERTEX
  8
0
 10
46.106105
 20
98.266764
 42
0.013843
  0
VERTEX
  8
0
 10
46.129800
 20
99.758320
 42
0.410762
  0
VERTEX
  8
0
 10
45.885252
 20
100.000000
 42
0.119568
  0
VERTEX
  8
0
 10
45.585657
 20
99.927317
 42
0.068557
  0
VERTEX
  8
0
 10
45.279834
 20
99.712244
 42
0.062213
  0
VERTEX
  8
0
 10
45.014366
 20
99.394960
 42
0.061192
  0
VERTEX
  8
0
 10
44.833333
 20
99.020404
 42
-0.300654
  0
VERTEX
  8
0
 10
44.412736
 20
98.694853
 42
-0.042444
  0
VERTEX
  8
0
 10
43.261107
 20
98.706661
 42
-0.033675
  0
VERTEX
  8
0
 10
41.643079
 20
98.971789
 42
-0.015753
  0
VERTEX
  8
0
 10
39.591069
 20
99.520404
 42
0.003655
  0
VERTEX
  8
0
 10
37.659626
 20
100.087192
 42
0.005056
  0
VERTEX
  8
0
 10
35.918430
 20
100.565369
 42
0.003235
  0
VERTEX
  8
0
 10
34.451451
 20
100.942194
 42
0.061318
  0
VERTEX
  8
0
 10
33.981859
 20
101.000000
 42
0.155277
  0
VERTEX
  8
0
 10
33.542014
 20
100.860030
 42
0.006510
  0
VERTEX
  8
0
 10
32.197492
 20
99.881357
 42
0.010706
  0
VERTEX
  8
0
 10
30.623962
 20
98.650943
 42
0.007352
  0
VERTEX
  8
0
 10
28.890790
 20
97.191854
 42
-0.021960
  0
VERTEX
  8
0
 10
23.948586
 20
93.272025
 42
-0.039158
  0
VERTEX
  8
0
 10
19.522215
 20
90.568225
 42
-0.038720
  0
VERTEX
  8
0
 10
14.694099
 20
88.568488
 42
-0.020945
  0
VERTEX
  8
0
 10
8.497829
 20
86.830979
 42
0.000000
  0
VERTEX
  8
0
 10
-0.000000
 20
84.827760
 42
0.000000
  0
VERTEX
  8
0
 10
-0.000000
 20
42.413880
 42
0.000000
  0
VERTEX
  8
0
 10
0.000000
 20
0.000000
 42
0.000000
  0
VERTEX
  8
0
 10
83.065741
 20
0.000000
 42
0.000747
  0
VERTEX
  8
0
 10
121.646219
 20
0.057677
 42
0.002482
  0
VERTEX
  8
0
 10
147.016667
 20
0.259495
 42
0.000850
  0
VERTEX
  8
0
 10
166.018527
 20
0.537298
 42
0.119331
  0
VERTEX
  8
0
 10
168.186419
 20
1.099768
 42
-0.011387
  0
VERTEX
  8
0
 10
169.169631
 20
1.597505
 42
-0.111926
  0
VERTEX
  8
0
 10
169.619716
 20
1.699536
 42
-0.488752
  0
VERTEX
  8
0
 10
169.746635
 20
1.536535
 42
-0.076633
  0
VERTEX
  8
0
 10
169.561660
 20
1.099768
 42
0.412578
  0
VERTEX
  8
0
 10
169.749052
 20
0.295926
 42
0.175159
  0
VERTEX
  8
0
 10
170.943537
 20
0.038381
 42
0.070530
  0
VERTEX
  8
0
 10
173.097223
 20
0.646658
 42
0.061053
  0
VERTEX
  8
0
 10
175.115141
 20
1.850907
 42
-0.011868
  0
VERTEX
  8
0
 10
176.189543
 20
2.644628
 42
-0.008022
  0
VERTEX
  8
0
 10
177.449746
 20
3.500297
 42
-0.008085
  0
VERTEX
  8
0
 10
178.695208
 20
4.288576
 42
-0.015931
  0
VERTEX
  8
0
 10
179.713782
 20
4.866707
 42
-0.077839
  0
VERTEX
  8
0
 10
183.297709
 20
6.090381
 42
-0.004620
  0
VERTEX
  8
0
 10
194.635296
 20
7.971471
 42
-0.006453
  0
VERTEX
  8
0
 10
205.789918
 20
9.569266
 42
-0.041086
  0
VERTEX
  8
0
 10
211.500000
 20
9.839214
 42
0.000000
  0
VERTEX
  8
0
 10
215.500000
 20
9.699613
 42
0.000000
  0
VERTEX
  8
0
 10
211.000000
 20
9.063492
 42
0.015776
  0
VERTEX
  8
0
 10
208.758903
 20
8.674228
 42
0.777333
  0
VERTEX
  8
0
 10
208.746204
 20
8.396758
 42
0.050109
  0
VERTEX
  8
0
 10
210.125383
 20
8.124548
 42
0.001597
  0
VERTEX
  8
0
 10
215.806067
 20
7.603087
 42
0.006618
  0
VERTEX
  8
0
 10
219.416707
 20
7.331387
 42
0.010082
  0
VERTEX
  8
0
 10
222.557841
 20
7.200299
 42
0.005095
  0
VERTEX
  8
0
 10
225.193079
 20
7.170372
 42
0.199216
  0
VERTEX
  8
0
 10
225.722734
 20
7.389401
 42
0.566609
  0
VERTEX
  8
0
 10
225.661318
 20
7.634403
 42
0.030768
  0
VERTEX
  8
0
 10
224.709699
 20
7.859885
 42
0.024002
  0
VERTEX
  8
0
 10
223.261192
 20
8.039167
 42
0.011996
  0
VERTEX
  8
0
 10
221.416667
 20
8.133613
 42
0.000000
  0
VERTEX
  8
0
 10
216.500000
 20
8.267226
 42
0.000000
  0
VERTEX
  8
0
 10
221.500000
 20
9.093924
 42
-0.010630
  0
VERTEX
  8
0
 10
223.940890
 20
9.444369
 42
-0.004478
  0
VERTEX
  8
0
 10
227.234375
 20
9.816068
 42
-0.004428
  0
VERTEX
  8
0
 10
230.762530
 20
10.150728
 42
-0.005757
  0
VERTEX
  8
0
 10
234.000000
 20
10.391394
 42
-0.002400
  0
VERTEX
  8
0
 10
237.322890
 20
10.583964
 42
-0.033818
  0
VERTEX
  8
0
 10
238.516094
 20
10.566635
 42
-0.861721
  0
VERTEX
  8
0
 10
238.525021
 20
10.431872
 42
-0.014066
  0
VERTEX
  8
0
 10
237.000000
 20
10.144440
 42
0.058469
  0
VERTEX
  8
0
 10
235.594777
 20
9.748007
 42
0.742360
  0
VERTEX
  8
0
 10
235.628423
 20
9.406362
 42
0.030086
  0
VERTEX
  8
0
 10
237.986995
 20
9.085308
 42
0.002004
  0
VERTEX
  8
0
 10
244.802981
 20
8.599671
 42
0.004953
  0
VERTEX
  8
0
 10
249.562867
 20
8.327031
 42
0.007699
  0
VERTEX
  8
0
 10
253.672231
 20
8.195842
 42
0.003088
  0
VERTEX
  8
0
 10
257.169261
 20
8.159678
 42
0.199995
  0
VERTEX
  8
0
 10
257.719647
 20
8.386314
 42
0.580334
  0
VERTEX
  8
0
 10
257.652473
 20
8.632601
 42
0.024978
  0
VERTEX
  8
0
 10
256.561917
 20
8.856979
 42
0.021493
  0
VERTEX
  8
0
 10
254.952660
 20
9.034698
 42
0.010902
  0
VERTEX
  8
0
 10
252.916667
 20
9.126805
 42
0.000000
  0
VERTEX
  8
0
 10
247.500000
 20
9.253610
 42
0.000000
  0
VERTEX
  8
0
 10
254.000000
 20
10.215843
 42
-0.004962
  0
VERTEX
  8
0
 10
256.756959
 20
10.596051
 42
-0.004255
  0
VERTEX
  8
0
 10
259.665907
 20
10.942703
 42
-0.004288
  0
VERTEX
  8
0
 10
262.313656
 20
11.212433
 42
-0.012251
  0
VERTEX
  8
0
 10
264.160535
 20
11.339038
 42
0.007158
  0
VERTEX
  8
0
 10
265.546501
 20
11.419876
 42
0.013235
  0
VERTEX
  8
0
 10
266.668899
 20
11.531407
 42
0.009351
  0
VERTEX
  8
0
 10
267.522401
 20
11.655354
 42
0.606829
  0
VERTEX
  8
0
 10
267.559321
 20
11.767880
 42
-0.409117
  0
VERTEX
  8
0
 10
267.561522
 20
12.537109
 42
-0.007785
  0
VERTEX
  8
0
 10
270.694250
 20
15.609551
 42
-0.010372
  0
VERTEX
  8
0
 10
273.884785
 20
18.519108
 42
-0.178614
  0
VERTEX
  8
0
 10
275.182848
 20
19.015313
 42
0.019664
  0
VERTEX
  8
0
 10
275.860547
 20
19.049870
 42
0.393602
  0
VERTEX
  8
0
 10
275.987190
 20
19.191222
 42
0.239873
  0
VERTEX
  8
0
 10
275.872657
 20
19.405824
 42
0.011183
  0
VERTEX
  8
0
 10
275.166154
 20
19.876149
 42
-0.317253
  0
VERTEX
  8
0
 10
274.843930
 20
20.656925
 42
-0.249941
  0
VERTEX
  8
0
 10
275.458682
 20
21.368019
 42
-0.073595
  0
VERTEX
  8
0
 10
277.476221
 20
21.821647
 42
-0.028950
  0
VERTEX
  8
0
 10
280.331787
 20
21.868359
 42
0.000000
  0
VERTEX
  8
0
 10
283.500000
 20
21.736718
 42
0.000000
  0
VERTEX
  8
0
 10
280.000000
 20
21.000000
 42
0.004976
  0
VERTEX
  8
0
 10
277.887830
 20
20.533408
 42
0.712709
  0
VERTEX
  8
0
 10
277.869217
 20
20.356822
 42
0.102141
  0
VERTEX
  8
0
 10
278.418828
 20
20.225911
 42
0.001422
  0
VERTEX
  8
0
 10
281.856989
 20
20.131641
 42
0.009363
  0
VERTEX
  8
0
 10
284.705110
 20
20.115001
 42
0.066561
  0
VERTEX
  8
0
 10
286.068084
 20
20.315155
 42
0.215550
  0
VERTEX
  8
0
 10
286.610658
 20
20.775264
 42
0.205122
  0
VERTEX
  8
0
 10
286.638374
 20
21.500000
 42
-0.083006
  0
VERTEX
  8
0
 10
286.505256
 20
22.154088
 42
-0.186633
  0
VERTEX
  8
0
 10
286.668545
 20
22.624844
 42
-0.160253
  0
VERTEX
  8
0
 10
287.132539
 20
22.909381
 42
-0.058137
  0
VERTEX
  8
0
 10
287.909261
 20
23.000000
 42
0.053122
  0
VERTEX
  8
0
 10
288.866539
 20
23.101993
 42
0.015213
  0
VERTEX
  8
0
 10
290.316881
 20
23.461087
 42
0.015129
  0
VERTEX
  8
0
 10
291.938728
 20
23.968813
 42
0.015534
  0
VERTEX
  8
0
 10
293.512469
 20
24.569656
 42
-0.034623
  0
VERTEX
  8
0
 10
295.575567
 20
25.268401
 42
-0.008939
  0
VERTEX
  8
0
 10
298.990176
 20
26.102073
 42
-0.009053
  0
VERTEX
  8
0
 10
302.927814
 20
26.914547
 42
-0.009107
  0
VERTEX
  8
0
 10
306.884593
 20
27.582196
 42
0.005278
  0
VERTEX
  8
0
 10
316.393621
 20
29.111912
 42
0.132564
  0
VERTEX
  8
0
 10
318.769084
 20
30.211857
 42
0.205539
  0
VERTEX
  8
0
 10
319.802061
 20
32.254890
 42
0.015675
  0
VERTEX
  8
0
 10
320.000000
 20
38.567388
 42
0.010364
  0
VERTEX
  8
0
 10
319.932064
 20
41.844685
 42
0.018015
  0
VERTEX
  8
0
 10
319.721501
 20
44.556920
 42
0.012650
  0
VERTEX
  8
0
 10
319.426090
 20
46.671504
 42
0.366926
  0
VERTEX
  8
0
 10
319.038725
 20
47.000000
 42
0.058549
  0
VERTEX
  8
0
 10
316.550674
 20
46.707652
 42
0.003296
  0
VERTEX
  8
0
 10
308.994247
 20
44.854295
 42
0.004693
  0
VERTEX
  8
0
 10
301.630767
 20
42.923033
 42
0.030440
  0
VERTEX
  8
0
 10
298.000000
 20
41.692593
 42
-0.031044
  0
VERTEX
  8
0
 10
296.241725
 20
41.099091
 42
-0.012334
  0
VERTEX
  8
0
 10
293.765625
 20
40.496283
 42
-0.012151
  0
VERTEX
  8
0
 10
291.053684
 20
39.975177
 42
-0.014940
  0
VERTEX
  8
0
 10
288.500000
 20
39.626599
 42
0.017352
  0
VERTEX
  8
0
 10
285.094863
 20
39.145056
 42
0.063538
  0
VERTEX
  8
0
 10
283.018685
 20
38.498060
 42
0.075861
  0
VERTEX
  8
0
 10
281.365941
 20
37.414221
 42
0.031865
  0
VERTEX
  8
0
 10
279.500000
 20
35.509933
 42
-0.043969
  0
VERTEX
  8
0
 10
277.601582
 20
33.663950
 42
-0.048689
  0
VERTEX
  8
0
 10
275.469986
 20
32.248391
 42
-0.036655
  0
VERTEX
  8
0
 10
272.637462
 20
30.998264
 42
-0.013080
  0
VERTEX
  8
0
 10
268.434330
 20
29.623096
 42
-0.016089
  0
VERTEX
  8
0
 10
258.870616
 20
27.100790
 42
-0.021055
  0
VERTEX
  8
0
 10
249.983087
 20
25.450579
 42
-0.023587
  0
VERTEX
  8
0
 10
242.182063
 20
24.712612
 42
-0.046927
  0
VERTEX
  8
0
 10
235.988297
 20
25.001654
 42
0.028479
  0
VERTEX
  8
0
 10
232.300343
 20
25.310227
 42
0.006673
  0
VERTEX
  8
0
 10
226.099882
 20
25.391997
 42
0.006556
  0
VERTEX
  8
0
 10
218.665168
 20
25.293323
 42
0.005115
  0
VERTEX
  8
0
 10
210.592404
 20
24.997614
 42
0.004376
  0
VERTEX
  8
0
 10
200.166665
 20
24.417384
 42
0.014965
  0
VERTEX
  8
0
 10
193.406629
 20
23.778190
 42
0.021069
  0
VERTEX
  8
0
 10
188.026390
 20
22.874931
 42
0.018505
  0
VERTEX
  8
0
 10
182.500000
 20
21.490442
 42
-0.001886
  0
VERTEX
  8
0
 10
178.797656
 20
20.431008
 42
-0.001930
  0
VERTEX
  8
0
 10
175.115625
 20
19.407722
 42
-0.001869
  0
VERTEX
  8
0
 10
171.912192
 20
18.543609
 42
-0.008087
  0
VERTEX
  8
0
 10
170.000000
 20
18.068437
 42
0.025736
  0
VERTEX
  8
0
 10
168.216325
 20
17.557753
 42
0.008010
  0
VERTEX
  8
0
 10
165.594514
 20
16.611602
 42
0.007984
  0
VERTEX
  8
0
 10
162.694369
 20
15.458895
 42
0.008722
  0
VERTEX
  8
0
 10
159.917495
 20
14.246259
 42
-0.004656
  0
VERTEX
  8
0
 10
155.596631
 20
12.317389
 42
-0.071198
  0
VERTEX
  8
0
 10
154.023853
 20
11.884829
 42
-0.205205
  0
VERTEX
  8
0
 10
153.029629
 20
12.169166
 42
-0.082488
  0
VERTEX
  8
0
 10
152.075325
 20
13.250993
 42
-0.026116
  0
VERTEX
  8
0
 10
151.486420
 20
14.313703
 42
-0.111907
  0
VERTEX
  8
0
 10
151.321716
 20
15.014229
 42
-0.172563
  0
VERTEX
  8
0
 10
151.507456
 20
15.549978
 42
-0.085643
  0
VERTEX
  8
0
 10
152.052977
 20
16.032742
 42
0.058370
  0
VERTEX
  8
0
 10
152.524013
 20
16.406061
 42
0.334484
  0
VERTEX
  8
0
 10
152.565301
 20
16.702398
 42
0.194752
  0
VERTEX
  8
0
 10
152.256834
 20
16.951320
 42
0.026013
  0
VERTEX
  8
0
 10
151.428939
 20
17.155910
 42
-0.735417
  0
VERTEX
  8
0
 10
151.312412
 20
18.188835
 42
-0.014318
  0
VERTEX
  8
0
 10
158.729050
 20
21.205395
 42
-0.014820
  0
VERTEX
  8
0
 10
168.613336
 20
24.569166
 42
-0.013461
  0
VERTEX
  8
0
 10
179.000000
 20
27.460113
 42
0.002243
  0
VERTEX
  8
0
 10
181.362068
 20
28.060802
 42
0.001772
  0
VERTEX
  8
0
 10
183.912500
 20
28.731244
 42
0.001791
  0
VERTEX
  8
0
 10
186.276019
 20
29.370591
 42
0.004449
  0
VERTEX
  8
0
 10
188.000000
 20
29.860109
 42
-0.049561
  0
VERTEX
  8
0
 10
190.238012
 20
30.282455
 42
-0.005084
  0
VERTEX
  8
0
 10
195.612500
 20
30.698802
 42
-0.006301
  0
VERTEX
  8
0
 10
202.042599
 20
31.049869
 42
-0.004991
  0
VERTEX
  8
0
 10
209.000000
 20
31.272290
 42
-0.003177
  0
VERTEX
  8
0
 10
215.459188
 20
31.373196
 42
-0.007907
  0
VERTEX
  8
0
 10
220.184375
 20
31.342258
 42
-0.020429
  0
VERTEX
  8
0
 10
222.492555
 20
31.196157
 42
-0.871575
  0
VERTEX
  8
0
 10
222.500000
 20
30.970364
 42
0.000000
  0
VERTEX
  8
0
 10
218.500000
 20
30.283811
 42
0.000000
  0
VERTEX
  8
0
 10
222.500000
 20
30.130900
 42
-0.006964
  0
VERTEX
  8
0
 10
224.320877
 20
30.035879
 42
-0.004069
  0
VERTEX
  8
0
 10
226.500000
 20
29.873886
 42
-0.004068
  0
VERTEX
  8
0
 10
228.678957
 20
29.676203
 42
-0.006885
  0
VERTEX
  8
0
 10
230.500000
 20
29.470684
 42
0.005660
  0
VERTEX
  8
0
 10
232.474446
 20
29.242951
 42
0.080274
  0
VERTEX
  8
0
 10
233.181875
 20
29.283098
 42
0.652968
  0
VERTEX
  8
0
 10
233.223316
 20
29.490751
 42
0.042080
  0
VERTEX
  8
0
 10
232.500000
 20
29.911405
 42
-0.337159
  0
VERTEX
  8
0
 10
232.285597
 20
30.325482
 42
-0.311711
  0
VERTEX
  8
0
 10
232.625575
 20
30.671264
 42
-0.038100
  0
VERTEX
  8
0
 10
234.405813
 20
30.873949
 42
-0.005733
  0
VERTEX
  8
0
 10
238.000000
 20
30.966470
 42
0.019845
  0
VERTEX
  8
0
 10
243.576089
 20
31.267623
 42
0.017748
  0
VERTEX
  8
0
 10
249.324196
 20
32.014037
 42
0.014161
  0
VERTEX
  8
0
 10
256.083654
 20
33.334655
 42
0.006342
  0
VERTEX
  8
0
 10
264.894552
 20
35.434374
 42
-0.012319
  0
VERTEX
  8
0
 10
269.209225
 20
36.408244
 42
-0.067516
  0
VERTEX
  8
0
 10
271.588140
 20
36.557185
 42
-0.792317
  0
VERTEX
  8
0
 10
271.657936
 20
36.120298
 42
-0.027241
  0
VERTEX
  8
0
 10
268.859659
 20
35.147196
 42
0.013583
  0
VERTEX
  8
0
 10
267.663187
 20
34.767405
 42
0.053891
  0
VERTEX
  8
0
 10
266.967237
 20
34.437887
 42
0.398460
  0
VERTEX
  8
0
 10
266.911846
 20
34.231789
 42
0.260647
  0
VERTEX
  8
0
 10
267.135190
 20
34.090188
 42
0.087158
  0
VERTEX
  8
0
 10
269.253625
 20
34.343001
 42
0.033390
  0
VERTEX
  8
0
 10
272.041370
 20
35.390437
 42
0.046574
  0
VERTEX
  8
0
 10
274.044013
 20
36.535070
 42
0.615693
  0
VERTEX
  8
0
 10
273.949116
 20
37.183628
 42
-0.464304
  0
VERTEX
  8
0
 10
273.822268
 20
37.501513
 42
-0.111680
  0
VERTEX
  8
0
 10
274.247905
 20
37.994580
 42
-0.045180
  0
VERTEX
  8
0
 10
275.307864
 20
38.638521
 42
-0.018757
  0
VERTEX
  8
0
 10
276.840593
 20
39.319541
 42
0.027693
  0
VERTEX
  8
0
 10
278.505516
 20
40.095200
 42
0.030774
  0
VERTEX
  8
0
 10
280.014434
 20
41.026323
 42
0.032305
  0
VERTEX
  8
0
 10
281.184963
 20
41.970951
 42
0.119003
  0
VERTEX
  8
0
 10
281.710465
 20
42.755270
 42
-0.065706
  0
VERTEX
  8
0
 10
282.505454
 20
44.265131
 42
-0.105550
  0
VERTEX
  8
0
 10
283.571364
 20
45.247441
 42
-0.095690
  0
VERTEX
  8
0
 10
285.025194
 20
45.767418
 42
-0.046638
  0
VERTEX
  8
0
 10
287.000000
 20
45.885007
 42
0.000000
  0
VERTEX
  8
0
 10
289.500000
 20
45.800640
 42
0.000000
  0
VERTEX
  8
0
 10
287.000000
 20
45.000000
 42
0.002101
  0
VERTEX
  8
0
 10
285.296711
 20
44.446610
 42
0.489650
  0
VERTEX
  8
0
 10
285.248411
 20
44.310843
 42
0.256019
  0
VERTEX
  8
0
 10
285.431019
 20
44.210929
 42
0.001398
  0
VERTEX
  8
0
 10
287.500000
 20
44.217995
 42
0.019539
  0
VERTEX
  8
0
 10
288.865660
 20
44.279882
 42
0.011312
  0
VERTEX
  8
0
 10
290.500000
 20
44.455396
 42
0.011295
  0
VERTEX
  8
0
 10
292.133817
 20
44.705987
 42
0.018599
  0
VERTEX
  8
0
 10
293.500000
 20
45.000000
 42
0.000000
  0
VERTEX
  8
0
 10
296.500000
 20
45.763370
 42
0.000000
  0
VERTEX
  8
0
 10
293.500000
 20
45.919916
 42
-0.229083
  0
VERTEX
  8
0
 10
292.943657
 20
46.225677
 42
-0.453250
  0
VERTEX
  8
0
 10
293.046540
 20
46.658763
 42
-0.037938
  0
VERTEX
  8
0
 10
294.923945
 20
47.476119
 42
-0.004802
  0
VERTEX
  8
0
 10
299.113530
 20
48.888600
 42
-0.011477
  0
VERTEX
  8
0
 10
305.352673
 20
50.768230
 42
-0.015024
  0
VERTEX
  8
0
 10
311.137434
 20
52.181507
 42
-0.015116
  0
VERTEX
  8
0
 10
315.490375
 20
52.970643
 42
-0.723503
  0
VERTEX
  8
0
 10
315.763204
 20
52.429870
 42
-0.090615
  0
VERTEX
  8
0
 10
315.319316
 20
52.123143
 42
-0.013943
  0
VERTEX
  8
0
 10
314.326276
 20
51.707916
 42
-0.015179
  0
VERTEX
  8
0
 10
313.113004
 20
51.281735
 42
-0.012661
  0
VERTEX
  8
0
 10
311.800746
 20
50.901366
 42
0.004431
  0
VERTEX
  8
0
 10
309.990885
 20
50.408901
 42
0.766807
  0
VERTEX
  8
0
 10
309.992433
 20
50.280768
 42
0.085834
  0
VERTEX
  8
0
 10
310.506040
 20
50.240043
 42
0.001459
  0
VERTEX
  8
0
 10
313.332930
 20
50.509523
 42
0.013445
  0
VERTEX
  8
0
 10
317.025477
 20
50.972939
 42
0.072178
  0
VERTEX
  8
0
 10
318.959373
 20
51.562365
 42
0.319909
  0
VERTEX
  8
0
 10
319.367505
 20
52.289262
 42
0.228450
  0
VERTEX
  8
0
 10
318.856763
 20
53.109687
 42
-0.016284
  0
VERTEX
  8
0
 10
318.225857
 20
53.538860
 42
-0.207783
  0
VERTEX
  8
0
 10
318.084092
 20
53.780177
 42
-0.404034
  0
VERTEX
  8
0
 10
318.203613
 20
53.938533
 42
-0.036027
  0
VERTEX
  8
0
 10
318.750000
 20
53.984687
 42
0.316717
  0
VERTEX
  8
0
 10
319.340956
 20
54.411676
 42
0.046174
  0
VERTEX
  8
0
 10
319.712437
 20
55.933784
 42
0.028891
  0
VERTEX
  8
0
 10
319.937222
 20
58.443479
 42
0.007891
  0
VERTEX
  8
0
 10
320.000000
 20
62.421220
 42
0.000000
  0
VERTEX
  8
0
 10
320.000000
 20
70.842441
 42
0.000000
  0
VERTEX
  8
0
 10
308.942906
 20
67.941491
 42
0.004294
  0
VERTEX
  8
0
 10
299.902043
 20
65.486336
 42
0.012422
  0
VERTEX
  8
0
 10
293.702788
 20
63.578193
 42
0.017182
  0
VERTEX
  8
0
 10
289.362651
 20
61.955428
 42
0.054767
  0
VERTEX
  8
0
 10
286.653258
 20
60.469686
 42
-0.019219
  0
VERTEX
  8
0
 10
284.619576
 20
59.158747
 42
-0.281612
  0
VERTEX
  8
0
 10
283.802641
 20
59.170887
 42
-0.323462
  0
VERTEX
  8
0
 10
283.519049
 20
59.878341
 42
-0.022754
  0
VERTEX
  8
0
 10
284.164902
 20
62.043193
 42
-0.056896
  0
VERTEX
  8
0
 10
284.814998
 20
63.392101
 42
-0.047302
  0
VERTEX
  8
0
 10
285.788580
 20
64.653566
 42
-0.046494
  0
VERTEX
  8
0
 10
287.001798
 20
65.730679
 42
-0.050313
  0
VERTEX
  8
0
 10
288.362882
 20
66.532886
 42
0.002947
  0
VERTEX
  8
0
 10
289.991126
 20
67.295326
 42
0.120728
  0
VERTEX
  8
0
 10
290.291332
 20
67.540144
 42
0.692612
  0
VERTEX
  8
0
 10
290.220632
 20
67.651640
 42
0.007628
  0
VERTEX
  8
0
 10
289.000000
 20
67.377299
 42
-0.015373
  0
VERTEX
  8
0
 10
287.888521
 20
67.145513
 42
-0.114231
  0
VERTEX
  8
0
 10
287.352757
 20
67.173735
 42
-0.439982
  0
VERTEX
  8
0
 10
287.239693
 20
67.400962
 42
-0.100741
  0
VERTEX
  8
0
 10
287.500000
 20
67.808798
 42
-0.112888
  0
VERTEX
  8
0
 10
289.381395
 20
69.033617
 42
-0.007905
  0
VERTEX
  8
0
 10
295.363563
 20
71.125914
 42
-0.011042
  0
VERTEX
  8
0
 10
302.574856
 20
73.345295
 42
-0.008610
  0
VERTEX
  8
0
 10
310.500000
 20
75.447296
 42
0.000000
  0
VERTEX
  8
0
 10
319.500000
 20
77.669240
 42
0.000000
  0
VERTEX
  8
0
 10
319.791745
 20
85.915257
 42
0.004406
  0
VERTEX
  8
0
 10
319.923377
 20
90.871512
 42
0.052690
  0
VERTEX
  8
0
 10
319.756130
 20
92.777088
 42
0.222979
  0
VERTEX
  8
0
 10
319.222668
 20
93.506280
 42
0.204060
  0
VERTEX
  8
0
 10
318.291745
 20
93.597631
 42
-0.020482
  0
VERTEX
  8
0
 10
315.972110
 20
92.971064
 42
-0.000526
  0
VERTEX
  8
0
 10
305.429826
 20
90.593573
 42
-0.000212
  0
VERTEX
  8
0
 10
294.336992
 20
88.109126
 42
-0.055032
  0
VERTEX
  8
0
 10
293.348524
 20
88.000000
 42
-0.337784
  0
VERTEX
  8
0
 10
293.211977
 20
88.104127
 42
-0.024492
  0
VERTEX
  8
0
 10
293.102379
 20
88.596966
 42
-0.026342
  0
VERTEX
  8
0
 10
293.025134
 20
89.253177
 42
-0.016127
  0
VERTEX
  8
0
 10
293.000000
 20
90.032224
 42
-0.093033
  0
VERTEX
  8
0
 10
293.162854
 20
90.899900
 42
-0.070798
  0
VERTEX
  8
0
 10
293.638046
 20
91.744621
 42
-0.066980
  0
VERTEX
  8
0
 10
294.361577
 20
92.465056
 42
-0.066926
  0
VERTEX
  8
0
 10
295.250000
 20
92.968838
 42
0.003525
  0
VERTEX
  8
0
 10
296.676689
 20
93.554014
 42
0.236545
  0
VERTEX
  8
0
 10
296.843408
 20
93.747997
 42
0.465880
  0
VERTEX
  8
0
 10
296.738327
 20
93.893166
 42
0.006354
  0
VERTEX
  8
0
 10
295.500000
 20
93.967022
 42
-0.443112
  0
VERTEX
  8
0
 10
295.079167
 20
94.477216
 42
-0.285579
  0
VERTEX
  8
0
 10
295.625996
 20
95.125300
 42
-0.028280
  0
VERTEX
  8
0
 10
299.659218
 20
96.185448
 42
-0.008348
  0
VERTEX
  8
0
 10
305.943399
 20
97.353656
 42
-0.005001
  0
VERTEX
  8
0
 10
312.762207
 20
98.433807
 42
-0.055586
  0
VERTEX
  8
0
 10
315.511926
 20
98.532956
 42
-0.857730
  0
VERTEX
  8
0
 10
315.541775
 20
98.150319
 42
-0.008956
  0
VERTEX
  8
0
 10
310.329305
 20
97.024024
 42
0.002897
  0
VERTEX
  8
0
 10
305.754411
 20
96.093370
 42
0.026433
  0
VERTEX
  8
0
 10
303.789921
 20
95.572170
 42
0.596532
  0
VERTEX
  8
0
 10
303.738101
 20
95.291975
 42
0.159885
  0
VERTEX
  8
0
 10
304.302595
 20
95.078947
 42
0.047812
  0
VERTEX
  8
0
 10
305.389523
 20
95.135282
 42
0.006181
  0
VERTEX
  8
0
 10
307.689915
 20
95.505798
 42
0.007165
  0
VERTEX
  8
0
 10
310.414730
 20
96.019631
 42
0.005926
  0
VERTEX
  8
0
 10
313.302595
 20
96.642917
 42
0.006480
  0
VERTEX
  8
0
 10
316.875303
 20
97.507302
 42
0.046774
  0
VERTEX
  8
0
 10
318.540234
 20
98.103414
 42
0.303288
  0
VERTEX
  8
0
 10
318.839410
 20
98.597398
 42
0.296129
  0
VERTEX
  8
0
 10
318.500000
 20
99.072632
 42
-0.005341
  0
VERTEX
  8
0
 10
317.355093
 20
99.537220
 42
-0.226460
  0
VERTEX
  8
0
 10
317.183963
 20
99.728745
 42
-0.475059
  0
VERTEX
  8
0
 10
317.282087
 20
99.871198
 42
-0.010121
  0
VERTEX
  8
0
 10
318.250000
 20
99.929715
 42
0.116445
  0
VERTEX
  8
0
 10
319.067719
 20
100.157775
 42
0.148076
  0
VERTEX
  8
0
 10
319.612096
 20
100.715879
 42
0.092619
  0
VERTEX
  8
0
 10
319.912750
 20
101.708080
 42
0.027385
  0
VERTEX
  8
0
 10
320.000000
 20
103.299924
 42
0.043202
  0
VERTEX
  8
0
 10
319.826004
 20
105.309910
 42
0.186906
  0
VERTEX
  8
0
 10
319.218907
 20
106.317554
 42
0.104877
  0
VERTEX
  8
0
 10
317.875017
 20
106.966740
 42
0.009334
  0
VERTEX
  8
0
 10
314.189805
 20
107.799924
 42
0.005044
  0
VERTEX
  8
0
 10
311.846180
 20
108.259392
 42
0.005869
  0
VERTEX
  8
0
 10
309.609097
 20
108.647478
 42
0.005252
  0
VERTEX
  8
0
 10
307.710923
 20
108.933439
 42
0.034769
  0
VERTEX
  8
0
 10
306.754904
 20
109.000000
 42
-0.046589
  0
VERTEX
  8
0
 10
305.939847
 20
109.076111
 42
-0.015960
  0
VERTEX
  8
0
 10
304.780521
 20
109.333096
 42
-0.015706
  0
VERTEX
  8
0
 10
303.512073
 20
109.699860
 42
-0.017514
  0
VERTEX
  8
0
 10
302.315100
 20
110.133944
 42
0.033654
  0
VERTEX
  8
0
 10
300.968775
 20
110.573600
 42
0.017047
  0
VERTEX
  8
0
 10
299.225373
 20
110.952984
 42
0.016852
  0
VERTEX
  8
0
 10
297.391436
 20
111.223558
 42
0.024071
  0
VERTEX
  8
0
 10
295.750000
 20
111.329819
 42
-0.024575
  0
VERTEX
  8
0
 10
294.104329
 20
111.438019
 42
-0.062661
  0
VERTEX
  8
0
 10
292.944841
 20
111.721709
 42
-0.103028
  0
VERTEX
  8
0
 10
292.250180
 20
112.167400
 42
-0.201414
  0
VERTEX
  8
0
 10
292.000000
 20
112.763263
 42
-0.123769
  0
VERTEX
  8
0
 10
292.143638
 20
113.334640
 42
-0.203306
  0
VERTEX
  8
0
 10
292.526264
 20
113.642212
 42
-0.117056
  0
VERTEX
  8
0
 10
293.201759
 20
113.671199
 42
-0.031343
  0
VERTEX
  8
0
 10
294.250000
 20
113.400374
 42
0.011109
  0
VERTEX
  8
0
 10
295.221322
 20
113.107044
 42
0.008885
  0
VERTEX
  8
0
 10
296.279688
 20
112.833081
 42
0.009000
  0
VERTEX
  8
0
 10
297.268426
 20
112.614548
 42
0.022409
  0
VERTEX
  8
0
 10
298.000000
 20
112.500451
 42
-0.014400
  0
VERTEX
  8
0
 10
301.197549
 20
112.054078
 42
-0.006126
  0
VERTEX
  8
0
 10
305.452345
 20
111.280920
 42
-0.006090
  0
VERTEX
  8
0
 10
309.935507
 20
110.352592
 42
-0.008460
  0
VERTEX
  8
0
 10
313.925642
 20
109.404505
 42
0.013802
  0
VERTEX
  8
0
 10
317.154475
 20
108.673661
 42
0.052208
  0
VERTEX
  8
0
 10
319.214750
 20
108.486335
 42
0.240155
  0
VERTEX
  8
0
 10
319.902554
 20
108.848823
 42
0.364966
  0
VERTEX
  8
0
 10
319.847993
 20
109.485340
 42
0.145560
  0
VERTEX
  8
0
 10
318.778847
 20
110.064302
 42
0.001248
  0
VERTEX
  8
0
 10
309.532638
 20
111.984080
 42
0.003011
  0
VERTEX
  8
0
 10
300.831167
 20
113.713566
 42
0.047581
  0
VERTEX
  8
0
 10
297.827996
 20
114.000000
 42
-0.069070
  0
VERTEX
  8
0
 10
296.755821
 20
114.148821
 42
-0.013946
  0
VERTEX
  8
0
 10
294.915895
 20
114.725513
 42
-0.014474
  0
VERTEX
  8
0
 10
292.797278
 20
115.524344
 42
-0.013091
  0
VERTEX
  8
0
 10
290.655353
 20
116.469832
 42
0.021204
  0
VERTEX
  8
0
 10
288.171404
 20
117.518496
 42
0.010871
  0
VERTEX
  8
0
 10
284.978404
 20
118.631240
 42
0.010784
  0
VERTEX
  8
0
 10
281.635159
 20
119.636285
 42
0.015959
  0
VERTEX
  8
0
 10
278.660902
 20
120.359541
 42
-0.003844
  0
VERTEX
  8
0
 10
276.038308
 20
120.930368
 42
-0.005838
  0
VERTEX
  8
0
 10
273.768751
 20
121.470587
 42
-0.002433
  0
VERTEX
  8
0
 10
271.841137
 20
121.963244
 42
-0.133360
  0
VERTEX
  8
0
 10
271.518710
 20
122.147957
 42
-0.236148
  0
VERTEX
  8
0
 10
271.411758
 20
122.468973
 42
-0.004999
  0
VERTEX
  8
0
 10
271.672409
 20
124.168315
 42
-0.010472
  0
VERTEX
  8
0
 10
272.045944
 20
126.185081
 42
-0.006731
  0
VERTEX
  8
0
 10
272.559464
 20
128.508248
 42
0.032722
  0
VERTEX
  8
0
 10
273.422096
 20
133.670113
 42
0.013551
  0
VERTEX
  8
0
 10
273.938971
 20
140.731766
 42
0.007938
  0
VERTEX
  8
0
 10
274.142217
 20
147.484914
 42
0.673330
  0
VERTEX
  8
0
 10
273.445843
 20
147.779176
 42
0.164623
  0
VERTEX
  8
0
 10
273.209474
 20
147.300991
 42
0.004390
  0
VERTEX
  8
0
 10
272.914161
 20
144.931315
 42
0.008727
  0
VERTEX
  8
0
 10
272.637228
 20
142.107271
 42
0.005810
  0
VERTEX
  8
0
 10
272.414041
 20
138.862509
 42
-0.001004
  0
VERTEX
  8
0
 10
271.981980
 20
131.555767
 42
-0.021817
  0
VERTEX
  8
0
 10
271.757440
 20
129.418960
 42
-0.138618
  0
VERTEX
  8
0
 10
271.416145
 20
128.662449
 42
-0.372152
  0
VERTEX
  8
0
 10
270.877007
 20
128.576014
 42
-0.149605
  0
VERTEX
  8
0
 10
270.617145
 20
128.872171
 42
-0.077153
  0
VERTEX
  8
0
 10
270.484784
 20
129.351907
 42
-0.065532
  0
VERTEX
  8
0
 10
270.493912
 20
129.934319
 42
-0.055020
  0
VERTEX
  8
0
 10
270.650663
 20
130.532025
 42
0.068818
  0
VERTEX
  8
0
 10
270.781523
 20
131.093470
 42
0.116760
  0
VERTEX
  8
0
 10
270.714107
 20
131.568782
 42
0.152561
  0
VERTEX
  8
0
 10
270.462863
 20
131.881932
 42
0.149054
  0
VERTEX
  8
0
 10
270.075604
 20
132.000000
 42
0.114543
  0
VERTEX
  8
0
 10
269.597486
 20
131.889014
 42
0.065778
  0
VERTEX
  8
0
 10
269.102544
 20
131.559375
 42
0.060318
  0
VERTEX
  8
0
 10
268.666562
 20
131.073557
 42
0.061198
  0
VERTEX
  8
0
 10
268.361626
 20
130.500000
 42
-0.051433
  0
VERTEX
  8
0
 10
268.070782
 20
129.926272
 42
-0.055699
  0
VERTEX
  8
0
 10
267.675448
 20
129.440625
 42
-0.062736
  0
VERTEX
  8
0
 10
267.240618
 20
129.109403
 42
-0.132176
  0
VERTEX
  8
0
 10
266.833994
 20
129.000000
 42
-0.126107
  0
VERTEX
  8
0
 10
266.521582
 20
129.080068
 42
-0.188867
  0
VERTEX
  8
0
 10
266.343172
 20
129.293750
 42
-0.147995
  0
VERTEX
  8
0
 10
266.333949
 20
129.617398
 42
-0.072176
  0
VERTEX
  8
0
 10
266.500000
 20
130.000000
 42
0.072176
  0
VERTEX
  8
0
 10
266.666051
 20
130.382602
 42
0.147995
  0
VERTEX
  8
0
 10
266.656828
 20
130.706250
 42
0.188867
  0
VERTEX
  8
0
 10
266.478418
 20
130.919932
 42
0.126107
  0
VERTEX
  8
0
 10
266.166006
 20
131.000000
 42
0.136415
  0
VERTEX
  8
0
 10
265.757679
 20
130.886484
 42
0.061767
  0
VERTEX
  8
0
 10
265.317408
 20
130.540757
 42
0.054537
  0
VERTEX
  8
0
 10
264.914148
 20
130.034634
 42
0.049388
  0
VERTEX
  8
0
 10
264.614052
 20
129.436618
 42
-0.069381
  0
VERTEX
  8
0
 10
264.309425
 20
128.885502
 42
-0.099723
  0
VERTEX
  8
0
 10
263.894529
 20
128.515309
 42
-0.123594
  0
VERTEX
  8
0
 10
263.437686
 20
128.382065
 42
-0.148943
  0
VERTEX
  8
0
 10
263.007063
 20
128.495635
 42
0.207713
  0
VERTEX
  8
0
 10
262.496677
 20
128.569628
 42
0.252145
  0
VERTEX
  8
0
 10
262.150784
 20
128.241122
 42
0.076409
  0
VERTEX
  8
0
 10
261.995264
 20
127.305184
 42
0.012953
  0
VERTEX
  8
0
 10
262.020262
 20
125.489522
 42
-0.130389
  0
VERTEX
  8
0
 10
261.741900
 20
124.242639
 42
-0.016139
  0
VERTEX
  8
0
 10
260.368082
 20
121.793692
 42
-0.012241
  0
VERTEX
  8
0
 10
258.835391
 20
119.391882
 42
-0.249577
  0
VERTEX
  8
0
 10
258.099202
 20
119.000000
 42
-0.409211
  0
VERTEX
  8
0
 10
257.507045
 20
119.582112
 42
-0.009788
  0
VERTEX
  8
0
 10
257.517506
 20
123.823303
 42
-0.017795
  0
VERTEX
  8
0
 10
257.796208
 20
128.654137
 42
-0.017289
  0
VERTEX
  8
0
 10
258.418854
 20
133.500000
 42
0.026518
  0
VERTEX
  8
0
 10
258.655117
 20
135.652162
 42
0.068857
  0
VERTEX
  8
0
 10
258.528929
 20
137.203179
 42
0.078125
  0
VERTEX
  8
0
 10
258.001535
 20
138.544546
 42
0.042037
  0
VERTEX
  8
0
 10
256.974358
 20
140.000000
 42
0.003359
  0
VERTEX
  8
0
 10
255.650573
 20
141.554813
 42
0.155187
  0
VERTEX
  8
0
 10
255.298601
 20
141.771020
 42
0.559227
  0
VERTEX
  8
0
 10
255.148405
 20
141.623364
 42
0.011286
  0
VERTEX
  8
0
 10
255.465360
 20
140.373965
 42
-0.058471
  0
VERTEX
  8
0
 10
255.630918
 20
139.308886
 42
-0.143734
  0
VERTEX
  8
0
 10
255.438304
 20
138.548570
 42
-0.134297
  0
VERTEX
  8
0
 10
254.853116
 20
137.980935
 42
-0.048307
  0
VERTEX
  8
0
 10
253.778043
 20
137.517968
 42
0.008673
  0
VERTEX
  8
0
 10
252.511711
 20
137.087833
 42
0.205480
  0
VERTEX
  8
0
 10
252.241849
 20
136.836375
 42
0.435529
  0
VERTEX
  8
0
 10
252.341947
 20
136.603614
 42
0.020551
  0
VERTEX
  8
0
 10
253.250000
 20
136.320679
 42
-0.042625
  0
VERTEX
  8
0
 10
253.919663
 20
136.079149
 42
-0.053490
  0
VERTEX
  8
0
 10
254.485938
 20
135.741070
 42
-0.063373
  0
VERTEX
  8
0
 10
254.874396
 20
135.363126
 42
-0.169737
  0
VERTEX
  8
0
 10
255.000000
 20
135.003791
 42
-0.389354
  0
VERTEX
  8
0
 10
254.710598
 20
134.688486
 42
-0.011998
  0
VERTEX
  8
0
 10
252.796875
 20
134.570410
 42
-0.017706
  0
VERTEX
  8
0
 10
250.375774
 20
134.565037
 42
-0.010575
  0
VERTEX
  8
0
 10
247.500000
 20
134.721453
 42
0.008053
  0
VERTEX
  8
0
 10
243.901995
 20
134.935357
 42
0.031984
  0
VERTEX
  8
0
 10
241.690301
 20
134.889635
 42
0.057882
  0
VERTEX
  8
0
 10
240.392232
 20
134.626165
 42
0.324442
  0
VERTEX
  8
0
 10
240.000000
 20
134.085321
 42
0.086307
  0
VERTEX
  8
0
 10
240.072169
 20
133.670340
 42
0.165165
  0
VERTEX
  8
0
 10
240.280241
 20
133.408650
 42
0.179511
  0
VERTEX
  8
0
 10
240.590463
 20
133.340439
 42
0.104065
  0
VERTEX
  8
0
 10
240.954011
 20
133.471577
 42
-0.107888
  0
VERTEX
  8
0
 10
241.483937
 20
133.658215
 42
-0.032459
  0
VERTEX
  8
0
 10
242.342044
 20
133.708722
 42
-0.030866
  0
VERTEX
  8
0
 10
243.338681
 20
133.641031
 42
-0.029103
  0
VERTEX
  8
0
 10
244.339555
 20
133.450913
 42
-0.043299
  0
VERTEX
  8
0
 10
245.493118
 20
133.052630
 42
-0.132246
  0
VERTEX
  8
0
 10
246.130507
 20
132.535128
 42
-0.154876
  0
VERTEX
  8
0
 10
246.365619
 20
131.822218
 42
-0.066856
  0
VERTEX
  8
0
 10
246.242286
 20
130.818500
 42
-0.136605
  0
VERTEX
  8
0
 10
245.228635
 20
129.077750
 42
-0.040047
  0
VERTEX
  8
0
 10
242.823391
 20
127.084892
 42
-0.037404
  0
VERTEX
  8
0
 10
240.239184
 20
125.546067
 42
-0.259576
  0
VERTEX
  8
0
 10
238.820653
 20
125.610842
 42
0.107330
  0
VERTEX
  8
0
 10
238.508046
 20
125.721329
 42
0.181419
  0
VERTEX
  8
0
 10
238.241067
 20
125.657960
 42
0.162518
  0
VERTEX
  8
0
 10
238.061832
 20
125.425391
 42
0.083791
  0
VERTEX
  8
0
 10
238.000000
 20
125.059017
 42
0.161866
  0
VERTEX
  8
0
 10
238.238743
 20
124.340866
 42
0.284743
  0
VERTEX
  8
0
 10
238.801001
 20
124.120131
 42
0.067197
  0
VERTEX
  8
0
 10
239.998722
 20
124.510270
 42
0.005664
  0
VERTEX
  8
0
 10
242.916017
 20
125.957155
 42
-0.013064
  0
VERTEX
  8
0
 10
244.418579
 20
126.674869
 42
-0.020116
  0
VERTEX
  8
0
 10
245.756657
 20
127.208170
 42
-0.015374
  0
VERTEX
  8
0
 10
246.853194
 20
127.557354
 42
-0.272172
  0
VERTEX
  8
0
 10
247.199081
 20
127.467586
 42
0.353507
  0
VERTEX
  8
0
 10
247.511278
 20
127.434429
 42
0.020290
  0
VERTEX
  8
0
 10
248.355935
 20
128.030273
 42
0.023637
  0
VERTEX
  8
0
 10
249.379742
 20
128.896471
 42
0.014338
  0
VERTEX
  8
0
 10
250.509994
 20
130.010431
 42
-0.011443
  0
VERTEX
  8
0
 10
251.658563
 20
131.155629
 42
-0.015980
  0
VERTEX
  8
0
 10
252.740191
 20
132.121814
 42
-0.012324
  0
VERTEX
  8
0
 10
253.670196
 20
132.862377
 42
-0.163390
  0
VERTEX
  8
0
 10
254.080102
 20
133.000000
 42
-0.276845
  0
VERTEX
  8
0
 10
254.964248
 20
132.469823
 42
-0.105964
  0
VERTEX
  8
0
 10
255.375648
 20
131.035546
 42
-0.070048
  0
VERTEX
  8
0
 10
255.226998
 20
128.965050
 42
-0.046093
  0
VERTEX
  8
0
 10
254.511627
 20
126.682070
 42
0.034840
  0
VERTEX
  8
0
 10
254.017901
 20
125.222217
 42
0.029291
  0
VERTEX
  8
0
 10
253.696772
 20
123.620838
 42
0.030310
  0
VERTEX
  8
0
 10
253.578260
 20
122.118838
 42
0.068586
  0
VERTEX
  8
0
 10
253.713155
 20
120.988895
 42
-0.020847
  0
VERTEX
  8
0
 10
253.976995
 20
119.775404
 42
-0.184462
  0
VERTEX
  8
0
 10
253.874050
 20
119.247026
 42
-0.303977
  0
VERTEX
  8
0
 10
253.489268
 20
119.073645
 42
-0.049930
  0
VERTEX
  8
0
 10
252.660740
 20
119.299945
 42
0.088793
  0
VERTEX
  8
0
 10
251.648237
 20
119.493920
 42
0.293076
  0
VERTEX
  8
0
 10
251.098007
 20
119.150469
 42
0.092072
  0
VERTEX
  8
0
 10
250.816421
 20
118.087534
 42
0.006473
  0
VERTEX
  8
0
 10
250.623637
 20
115.001799
 42
-0.044485
  0
VERTEX
  8
0
 10
250.490467
 20
114.045472
 42
-0.062378
  0
VERTEX
  8
0
 10
250.193610
 20
113.236917
 42
-0.079822
  0
VERTEX
  8
0
 10
249.788706
 20
112.688255
 42
-0.195999
  0
VERTEX
  8
0
 10
249.333333
 20
112.501799
 42
0.071333
  0
VERTEX
  8
0
 10
248.154267
 20
112.330870
 42
0.213485
  0
VERTEX
  8
0
 10
247.549134
 20
111.813839
 42
0.312733
  0
VERTEX
  8
0
 10
247.652360
 20
111.186572
 42
0.109204
  0
VERTEX
  8
0
 10
248.456872
 20
110.654923
 42
0.052267
  0
VERTEX
  8
0
 10
249.047932
 20
110.496442
 42
0.094664
  0
VERTEX
  8
0
 10
249.546706
 20
110.512026
 42
0.143579
  0
VERTEX
  8
0
 10
249.873688
 20
110.692876
 42
0.197607
  0
VERTEX
  8
0
 10
250.000000
 20
111.000000
 42
-0.214388
  0
VERTEX
  8
0
 10
250.136300
 20
111.303271
 42
-0.137974
  0
VERTEX
  8
0
 10
250.488813
 20
111.474344
 42
-0.088143
  0
VERTEX
  8
0
 10
251.026466
 20
111.475294
 42
-0.048123
  0
VERTEX
  8
0
 10
251.664045
 20
111.298676
 42
0.026450
  0
VERTEX
  8
0
 10
252.381889
 20
111.065942
 42
0.192905
  0
VERTEX
  8
0
 10
252.734128
 20
111.108593
 42
0.358176
  0
VERTEX
  8
0
 10
252.829118
 20
111.345527
 42
0.061825
  0
VERTEX
  8
0
 10
252.612107
 20
111.818607
 42
-0.057711
  0
VERTEX
  8
0
 10
252.392196
 20
112.287821
 42
-0.337259
  0
VERTEX
  8
0
 10
252.474432
 20
112.529825
 42
-0.212163
  0
VERTEX
  8
0
 10
252.796631
 20
112.586640
 42
-0.030715
  0
VERTEX
  8
0
 10
253.448062
 20
112.381557
 42
-0.049745
  0
VERTEX
  8
0
 10
254.041693
 20
112.083131
 42
-0.054745
  0
VERTEX
  8
0
 10
254.544118
 20
111.681302
 42
-0.061946
  0
VERTEX
  8
0
 10
254.887221
 20
111.242015
 42
-0.135659
  0
VERTEX
  8
0
 10
255.000000
 20
110.833994
 42
-0.126107
  0
VERTEX
  8
0
 10
254.919932
 20
110.521582
 42
-0.188867
  0
VERTEX
  8
0
 10
254.706250
 20
110.343172
 42
-0.147995
  0
VERTEX
  8
0
 10
254.382602
 20
110.333949
 42
-0.072176
  0
VERTEX
  8
0
 10
254.000000
 20
110.500000
 42
0.251944
  0
VERTEX
  8
0
 10
253.404015
 20
110.535778
 42
0.207347
  0
VERTEX
  8
0
 10
252.974256
 20
110.053855
 42
0.084350
  0
VERTEX
  8
0
 10
252.802502
 20
108.925381
 42
0.027975
  0
VERTEX
  8
0
 10
252.925354
 20
107.250000
 42
-0.082595
  0
VERTEX
  8
0
 10
252.908313
 20
106.772633
 42
-0.103799
  0
VERTEX
  8
0
 10
252.733365
 20
106.367188
 42
-0.116034
  0
VERTEX
  8
0
 10
252.428977
 20
106.097217
 42
-0.124261
  0
VERTEX
  8
0
 10
252.043837
 20
106.000000
 42
-0.142290
  0
VERTEX
  8
0
 10
251.645780
 20
106.115620
 42
-0.099695
  0
VERTEX
  8
0
 10
251.306627
 20
106.440625
 42
-0.084459
  0
VERTEX
  8
0
 10
251.078147
 20
106.926647
 42
-0.067835
  0
VERTEX
  8
0
 10
251.000000
 20
107.500000
 42
0.136237
  0
VERTEX
  8
0
 10
250.757064
 20
108.375046
 42
0.150772
  0
VERTEX
  8
0
 10
250.104377
 20
108.959022
 42
0.106680
  0
VERTEX
  8
0
 10
249.033366
 20
109.196326
 42
0.047983
  0
VERTEX
  8
0
 10
247.591641
 20
109.065635
 42
-0.129829
  0
VERTEX
  8
0
 10
247.183469
 20
109.095040
 42
-0.062049
  0
VERTEX
  8
0
 10
246.707378
 20
109.327413
 42
-0.055323
  0
VERTEX
  8
0
 10
246.240459
 20
109.711634
 42
-0.051666
  0
VERTEX
  8
0
 10
245.856954
 20
110.197214
 42
0.043633
  0
VERTEX
  8
0
 10
245.454696
 20
110.723670
 42
0.380607
  0
VERTEX
  8
0
 10
245.185457
 20
110.751712
 42
0.202483
  0
VERTEX
  8
0
 10
244.990337
 20
110.431783
 42
0.019189
  0
VERTEX
  8
0
 10
244.887690
 20
109.500000
 42
-0.005639
  0
VERTEX
  8
0
 10
244.626940
 20
106.351312
 42
-0.019602
  0
VERTEX
  8
0
 10
244.355999
 20
104.327718
 42
-0.028420
  0
VERTEX
  8
0
 10
244.044305
 20
102.991228
 42
-0.125516
  0
VERTEX
  8
0
 10
243.635018
 20
102.301684
 42
-0.194165
  0
VERTEX
  8
0
 10
243.395928
 20
102.200080
 42
-0.249865
  0
VERTEX
  8
0
 10
243.186536
 20
102.306818
 42
-0.113329
  0
VERTEX
  8
0
 10
243.043653
 20
102.660463
 42
-0.039591
  0
VERTEX
  8
0
 10
243.000000
 20
103.210889
 42
0.124346
  0
VERTEX
  8
0
 10
242.630677
 20
104.672989
 42
0.097928
  0
VERTEX
  8
0
 10
241.587437
 20
105.936810
 42
0.137849
  0
VERTEX
  8
0
 10
240.396785
 20
106.456449
 42
0.296988
  0
VERTEX
  8
0
 10
239.530011
 20
106.048558
 42
0.119685
  0
VERTEX
  8
0
 10
239.399893
 20
105.649696
 42
0.186937
  0
VERTEX
  8
0
 10
239.502790
 20
105.308014
 42
0.152800
  0
VERTEX
  8
0
 10
239.835141
 20
105.077983
 42
0.075687
  0
VERTEX
  8
0
 10
240.347363
 20
105.000000
 42
-0.110532
  0
VERTEX
  8
0
 10
240.945601
 20
104.866115
 42
-0.174262
  0
VERTEX
  8
0
 10
241.313693
 20
104.498023
 42
-0.126882
  0
VERTEX
  8
0
 10
241.431580
 20
103.878104
 42
-0.047857
  0
VERTEX
  8
0
 10
241.289749
 20
103.000000
 42
-0.069702
  0
VERTEX
  8
0
 10
240.719741
 20
101.632620
 42
-0.208357
  0
VERTEX
  8
0
 10
239.916325
 20
101.051959
 42
-0.346964
  0
VERTEX
  8
0
 10
239.258044
 20
101.372340
 42
-0.112956
  0
VERTEX
  8
0
 10
239.000000
 20
102.500000
 42
0.062722
  0
VERTEX
  8
0
 10
238.927770
 20
103.073532
 42
0.080880
  0
VERTEX
  8
0
 10
238.715469
 20
103.559375
 42
0.098158
  0
VERTEX
  8
0
 10
238.400789
 20
103.884506
 42
0.152681
  0
VERTEX
  8
0
 10
238.031385
 20
104.000000
 42
0.208256
  0
VERTEX
  8
0
 10
237.716514
 20
103.862906
 42
0.140133
  0
VERTEX
  8
0
 10
237.535954
 20
103.508377
 42
0.090467
  0
VERTEX
  8
0
 10
237.529376
 20
102.967565
 42
0.049572
  0
VERTEX
  8
0
 10
237.704994
 20
102.326391
 42
-0.034420
  0
VERTEX
  8
0
 10
237.955533
 20
101.509513
 42
-0.273446
  0
VERTEX
  8
0
 10
237.841618
 20
101.147753
 42
-0.249730
  0
VERTEX
  8
0
 10
237.456571
 20
101.052527
 42
-0.029860
  0
VERTEX
  8
0
 10
236.591821
 20
101.326391
 42
0.007713
  0
VERTEX
  8
0
 10
235.887363
 20
101.584324
 42
0.009503
  0
VERTEX
  8
0
 10
235.222451
 20
101.802127
 42
0.008122
  0
VERTEX
  8
0
 10
234.659766
 20
101.964725
 42
0.066362
  0
VERTEX
  8
0
 10
234.395160
 20
102.000000
 42
-0.529633
  0
VERTEX
  8
0
 10
234.306962
 20
102.129849
 42
-0.019260
  0
VERTEX
  8
0
 10
234.593371
 20
102.778137
 42
-0.020417
  0
VERTEX
  8
0
 10
235.054974
 20
103.632513
 42
-0.010966
  0
VERTEX
  8
0
 10
235.689570
 20
104.648976
 42
0.002636
  0
VERTEX
  8
0
 10
236.880477
 20
106.487603
 42
0.224741
  0
VERTEX
  8
0
 10
236.921638
 20
106.809033
 42
0.460441
  0
VERTEX
  8
0
 10
236.712255
 20
106.895840
 42
0.005352
  0
VERTEX
  8
0
 10
235.212623
 20
106.113792
 42
0.074506
  0
VERTEX
  8
0
 10
233.998800
 20
105.209795
 42
0.089932
  0
VERTEX
  8
0
 10
233.194427
 20
104.040442
 42
0.083345
  0
VERTEX
  8
0
 10
232.813422
 20
102.589882
 42
0.054611
  0
VERTEX
  8
0
 10
232.845569
 20
100.858029
 42
-0.329899
  0
VERTEX
  8
0
 10
232.712578
 20
100.620069
 42
-0.054265
  0
VERTEX
  8
0
 10
232.180183
 20
100.446340
 42
-0.041745
  0
VERTEX
  8
0
 10
231.403141
 20
100.349839
 42
-0.024427
  0
VERTEX
  8
0
 10
230.464697
 20
100.358029
 42
-0.030986
  0
VERTEX
  8
0
 10
229.521089
 20
100.471351
 42
-0.046750
  0
VERTEX
  8
0
 10
228.724795
 20
100.695945
 42
-0.058192
  0
VERTEX
  8
0
 10
228.170045
 20
100.988000
 42
-0.247123
  0
VERTEX
  8
0
 10
228.000706
 20
101.309017
 42
0.157842
  0
VERTEX
  8
0
 10
227.917726
 20
101.564566
 42
0.191060
  0
VERTEX
  8
0
 10
227.706457
 20
101.698838
 42
0.126971
  0
VERTEX
  8
0
 10
227.383223
 20
101.678119
 42
0.059313
  0
VERTEX
  8
0
 10
227.000000
 20
101.500000
 42
-0.152499
  0
VERTEX
  8
0
 10
226.620785
 20
101.402804
 42
-0.191558
  0
VERTEX
  8
0
 10
226.293750
 20
101.552903
 42
-0.130242
  0
VERTEX
  8
0
 10
226.072722
 20
101.954667
 42
-0.061057
  0
VERTEX
  8
0
 10
226.000000
 20
102.547972
 42
0.071974
  0
VERTEX
  8
0
 10
225.902706
 20
103.220364
 42
0.165183
  0
VERTEX
  8
0
 10
225.611286
 20
103.633080
 42
0.171662
  0
VERTEX
  8
0
 10
225.137870
 20
103.773614
 42
0.078904
  0
VERTEX
  8
0
 10
224.500000
 20
103.638374
 42
-0.055937
  0
VERTEX
  8
0
 10
223.925634
 20
103.488865
 42
-0.100118
  0
VERTEX
  8
0
 10
223.440625
 20
103.516384
 42
-0.147206
  0
VERTEX
  8
0
 10
223.122486
 20
103.710807
 42
-0.184534
  0
VERTEX
  8
0
 10
223.000000
 20
104.031385
 42
-0.095789
  0
VERTEX
  8
0
 10
223.071484
 20
104.401093
 42
-0.097122
  0
VERTEX
  8
0
 10
223.275494
 20
104.715469
 42
-0.098672
  0
VERTEX
  8
0
 10
223.579975
 20
104.925941
 42
-0.102386
  0
VERTEX
  8
0
 10
223.937851
 20
105.000000
 42
0.200703
  0
VERTEX
  8
0
 10
224.284689
 20
105.145066
 42
0.095327
  0
VERTEX
  8
0
 10
224.558385
 20
105.555226
 42
0.070934
  0
VERTEX
  8
0
 10
224.718885
 20
106.166618
 42
0.047605
  0
VERTEX
  8
0
 10
224.733323
 20
106.890130
 42
0.184101
  0
VERTEX
  8
0
 10
224.291316
 20
107.830693
 42
0.170397
  0
VERTEX
  8
0
 10
223.319047
 20
108.276369
 42
0.200171
  0
VERTEX
  8
0
 10
222.393744
 20
107.987233
 42
0.221734
  0
VERTEX
  8
0
 10
222.000000
 20
107.143011
 42
-0.277650
  0
VERTEX
  8
0
 10
221.850781
 20
106.895008
 42
-0.052328
  0
VERTEX
  8
0
 10
221.339063
 20
106.688885
 42
-0.042591
  0
VERTEX
  8
0
 10
220.612143
 20
106.546645
 42
-0.027032
  0
VERTEX
  8
0
 10
219.750000
 20
106.500000
 42
-0.065653
  0
VERTEX
  8
0
 10
218.627581
 20
106.648018
 42
-0.152068
  0
VERTEX
  8
0
 10
217.917039
 20
107.097518
 42
-0.122277
  0
VERTEX
  8
0
 10
217.494320
 20
107.947364
 42
-0.035511
  0
VERTEX
  8
0
 10
217.278040
 20
109.405701
 42
0.115563
  0
VERTEX
  8
0
 10
216.144921
 20
112.988100
 42
0.098711
  0
VERTEX
  8
0
 10
213.488953
 20
115.936691
 42
0.228501
  0
VERTEX
  8
0
 10
211.193092
 20
116.381778
 42
0.340570
  0
VERTEX
  8
0
 10
210.000000
 20
114.833333
 42
-0.042649
  0
VERTEX
  8
0
 10
209.868292
 20
113.292065
 42
-0.695410
  0
VERTEX
  8
0
 10
209.514563
 20
113.225860
 42
-0.098690
  0
VERTEX
  8
0
 10
209.084228
 20
114.427849
 42
-0.017754
  0
VERTEX
  8
0
 10
208.818234
 20
116.802392
 42
0.068296
  0
VERTEX
  8
0
 10
208.406066
 20
118.713367
 42
0.155448
  0
VERTEX
  8
0
 10
207.513917
 20
119.869466
 42
0.307674
  0
VERTEX
  8
0
 10
206.549338
 20
119.877343
 42
0.166578
  0
VERTEX
  8
0
 10
205.797316
 20
118.891947
 42
-0.442361
  0
VERTEX
  8
0
 10
205.420003
 20
118.725220
 42
-0.050735
  0
VERTEX
  8
0
 10
204.512590
 20
119.242687
 42
-0.035643
  0
VERTEX
  8
0
 10
203.306328
 20
120.240100
 42
-0.018482
  0
VERTEX
  8
0
 10
201.942445
 20
121.641947
 42
0.005430
  0
VERTEX
  8
0
 10
200.572104
 20
123.126027
 42
0.008124
  0
VERTEX
  8
0
 10
199.340248
 20
124.389618
 42
0.004056
  0
VERTEX
  8
0
 10
198.276227
 20
125.429147
 42
0.152153
  0
VERTEX
  8
0
 10
197.978463
 20
125.578031
 42
-0.149688
  0
VERTEX
  8
0
 10
196.740397
 20
126.189632
 42
-0.009341
  0
VERTEX
  8
0
 10
193.788882
 20
129.078577
 42
-0.008844
  0
VERTEX
  8
0
 10
190.932548
 20
132.085364
 42
-0.165092
  0
VERTEX
  8
0
 10
190.413084
 20
133.264951
 42
0.000645
  0
VERTEX
  8
0
 10
190.360743
 20
133.852296
 42
0.000304
  0
VERTEX
  8
0
 10
190.291745
 20
134.610275
 42
0.000302
  0
VERTEX
  8
0
 10
190.218553
 20
135.403675
 42
0.000426
  0
VERTEX
  8
0
 10
190.152314
 20
136.110453
 42
0.074382
  0
VERTEX
  8
0
 10
189.942978
 20
136.955663
 42
0.017347
  0
VERTEX
  8
0
 10
189.337545
 20
138.289949
 42
0.017515
  0
VERTEX
  8
0
 10
188.525272
 20
139.792175
 42
0.016382
  0
VERTEX
  8
0
 10
187.592520
 20
141.268526
 42
-0.072965
  0
VERTEX
  8
0
 10
185.721700
 20
145.135902
 42
-0.029977
  0
VERTEX
  8
0
 10
184.305326
 20
150.802074
 42
-0.029950
  0
VERTEX
  8
0
 10
183.546471
 20
156.834768
 42
-0.049687
  0
VERTEX
  8
0
 10
183.720850
 20
161.955449
 42
-0.034935
  0
VERTEX
  8
0
 10
184.157567
 20
164.075269
 42
-0.060738
  0
VERTEX
  8
0
 10
184.846752
 20
165.731411
 42
-0.062263
  0
VERTEX
  8
0
 10
185.900042
 20
167.145991
 42
-0.038718
  0
VERTEX
  8
0
 10
187.445187
 20
168.525990
 42
-0.052455
  0
VERTEX
  8
0
 10
191.375031
 20
170.918072
 42
-0.026132
  0
VERTEX
  8
0
 10
196.771055
 20
173.134388
 42
-0.021819
  0
VERTEX
  8
0
 10
202.033263
 20
174.726724
 42
-0.159602
  0
VERTEX
  8
0
 10
204.625717
 20
174.554521
 42
-0.020896
  0
VERTEX
  8
0
 10
205.680911
 20
174.077406
 42
-0.378099
  0
VERTEX
  8
0
 10
205.808167
 20
173.760084
 42
-0.205790
  0
VERTEX
  8
0
 10
205.501183
 20
173.428896
 42
-0.008774
  0
VERTEX
  8
0
 10
204.000000
 20
172.794477
 42
-0.031570
  0
VERTEX
  8
0
 10
202.842293
 20
172.411878
 42
-0.018669
  0
VERTEX
  8
0
 10
201.421276
 20
172.096006
 42
-0.018638
  0
VERTEX
  8
0
 10
199.973507
 20
171.885892
 42
-0.030244
  0
VERTEX
  8
0
 10
198.732003
 20
171.828266
 42
0.028291
  0
VERTEX
  8
0
 10
197.593719
 20
171.779881
 42
0.091538
  0
VERTEX
  8
0
 10
196.869907
 20
171.570479
 42
0.206793
  0
VERTEX
  8
0
 10
196.577894
 20
171.222928
 42
0.214323
  0
VERTEX
  8
0
 10
196.636511
 20
170.779120
 42
-0.036376
  0
VERTEX
  8
0
 10
196.854304
 20
170.361651
 42
-0.363581
  0
VERTEX
  8
0
 10
196.802152
 20
170.186446
 42
-0.264031
  0
VERTEX
  8
0
 10
196.585193
 20
170.171722
 42
-0.026270
  0
VERTEX
  8
0
 10
196.110704
 20
170.431581
 42
0.202477
  0
VERTEX
  8
0
 10
194.845968
 20
170.627933
 42
0.117376
  0
VERTEX
  8
0
 10
193.459018
 20
169.907255
 42
0.100250
  0
VERTEX
  8
0
 10
192.381477
 20
168.513304
 42
0.115062
  0
VERTEX
  8
0
 10
192.000000
 20
166.877555
 42
0.209017
  0
VERTEX
  8
0
 10
192.588705
 20
165.530810
 42
0.200048
  0
VERTEX
  8
0
 10
193.992078
 20
165.015818
 42
0.143609
  0
VERTEX
  8
0
 10
195.737498
 20
165.610631
 42
0.116951
  0
VERTEX
  8
0
 10
197.051258
 20
167.095777
 42
0.000000
  0
VERTEX
  8
0
 10
198.172884
 20
169.191554
 42
0.000000
  0
VERTEX
  8
0
 10
200.125397
 20
167.095777
 42
0.032119
  0
VERTEX
  8
0
 10
200.975078
 20
166.293748
 42
0.033074
  0
VERTEX
  8
0
 10
201.912559
 20
165.615634
 42
0.035040
  0
VERTEX
  8
0
 10
202.799879
 20
165.142301
 42
0.105385
  0
VERTEX
  8
0
 10
203.467527
 20
165.000000
 42
0.137415
  0
VERTEX
  8
0
 10
204.898084
 20
165.400728
 42
0.063153
  0
VERTEX
  8
0
 10
206.425286
 20
166.616584
 42
0.062933
  0
VERTEX
  8
0
 10
207.608598
 20
168.184262
 42
0.130960
  0
VERTEX
  8
0
 10
208.000000
 20
169.652988
 42
-0.165460
  0
VERTEX
  8
0
 10
208.205605
 20
170.257290
 42
-0.281972
  0
VERTEX
  8
0
 10
208.687521
 20
170.441565
 42
-0.081834
  0
VERTEX
  8
0
 10
209.636875
 20
170.097440
 42
-0.010630
  0
VERTEX
  8
0
 10
211.500000
 20
169.000000
 42
0.019097
  0
VERTEX
  8
0
 10
212.843398
 20
168.239033
 42
0.037634
  0
VERTEX
  8
0
 10
213.971875
 20
167.759308
 42
0.057300
  0
VERTEX
  8
0
 10
214.753885
 20
167.590784
 42
0.443152
  0
VERTEX
  8
0
 10
215.000000
 20
167.813938
 42
0.216776
  0
VERTEX
  8
0
 10
214.775604
 20
168.307193
 42
0.022422
  0
VERTEX
  8
0
 10
213.751563
 20
169.121950
 42
0.024669
  0
VERTEX
  8
0
 10
212.378074
 20
170.017710
 42
0.017238
  0
VERTEX
  8
0
 10
210.750000
 20
170.894709
 42
-0.012904
  0
VERTEX
  8
0
 10
209.215017
 20
171.704479
 42
-0.035151
  0
VERTEX
  8
0
 10
208.189063
 20
172.378879
 42
-0.123953
  0
VERTEX
  8
0
 10
207.865540
 20
172.785263
 42
-0.546331
  0
VERTEX
  8
0
 10
208.000000
 20
172.993051
 42
-0.063865
  0
VERTEX
  8
0
 10
208.769896
 20
172.891504
 42
-0.018550
  0
VERTEX
  8
0
 10
209.917339
 20
172.541843
 42
-0.018322
  0
VERTEX
  8
0
 10
211.192449
 20
172.047968
 42
-0.018632
  0
VERTEX
  8
0
 10
212.420728
 20
171.464568
 42
0.026520
  0
VERTEX
  8
0
 10
213.793963
 20
170.838662
 42
0.062645
  0
VERTEX
  8
0
 10
214.882040
 20
170.561405
 42
0.091172
  0
VERTEX
  8
0
 10
215.729676
 20
170.610168
 42
0.137378
  0
VERTEX
  8
0
 10
216.370728
 20
170.970728
 42
0.045616
  0
VERTEX
  8
0
 10
216.761891
 20
171.440609
 42
0.250171
  0
VERTEX
  8
0
 10
216.797809
 20
171.757725
 42
0.251896
  0
VERTEX
  8
0
 10
216.554547
 20
171.962529
 42
0.046113
  0
VERTEX
  8
0
 10
215.950000
 20
172.031803
 42
-0.068288
  0
VERTEX
  8
0
 10
215.264417
 20
172.141242
 42
-0.028622
  0
VERTEX
  8
0
 10
214.385031
 20
172.464122
 42
-0.027661
  0
VERTEX
  8
0
 10
213.470092
 20
172.922474
 42
-0.032186
  0
VERTEX
  8
0
 10
212.658617
 20
173.458867
 42
-0.033605
  0
VERTEX
  8
0
 10
211.646835
 20
174.338442
 42
-0.304827
  0
VERTEX
  8
0
 10
211.538406
 20
174.883858
 42
-0.165626
  0
VERTEX
  8
0
 10
212.015120
 20
175.423253
 42
-0.010372
  0
VERTEX
  8
0
 10
213.908617
 20
176.452744
 42
0.051820
  0
VERTEX
  8
0
 10
215.953300
 20
177.794684
 42
0.157201
  0
VERTEX
  8
0
 10
216.846545
 20
179.174251
 42
0.199191
  0
VERTEX
  8
0
 10
216.659896
 20
180.596583
 42
0.088821
  0
VERTEX
  8
0
 10
215.418799
 20
182.067391
 42
0.058281
  0
VERTEX
  8
0
 10
214.617047
 20
182.588438
 42
0.086657
  0
VERTEX
  8
0
 10
213.816017
 20
182.824845
 42
0.089825
  0
VERTEX
  8
0
 10
213.003675
 20
182.771914
 42
0.067269
  0
VERTEX
  8
0
 10
212.168799
 20
182.439836
 42
-0.086967
  0
VERTEX
  8
0
 10
211.190755
 20
182.094516
 42
-0.019030
  0
VERTEX
  8
0
 10
209.413645
 20
181.866058
 42
-0.019268
  0
VERTEX
  8
0
 10
207.310071
 20
181.758116
 42
-0.017439
  0
VERTEX
  8
0
 10
205.132972
 20
181.806318
 42
0.000000
  0
VERTEX
  8
0
 10
199.765944
 20
182.112636
 42
0.000000
  0
VERTEX
  8
0
 10
203.065870
 20
185.058809
 42
0.000000
  0
VERTEX
  8
0
 10
206.365796
 20
188.004981
 42
0.000000
  0
VERTEX
  8
0
 10
208.673007
 20
185.837469
 42
0.029185
  0
VERTEX
  8
0
 10
210.025896
 20
184.707542
 42
0.109902
  0
VERTEX
  8
0
 10
211.029283
 20
184.261192
 42
0.119682
  0
VERTEX
  8
0
 10
212.079514
 20
184.301751
 42
0.037692
  0
VERTEX
  8
0
 10
213.565045
 20
184.847682
 42
-0.026719
  0
VERTEX
  8
0
 10
214.616263
 20
185.260378
 42
-0.032709
  0
VERTEX
  8
0
 10
215.637444
 20
185.526880
 42
-0.034547
  0
VERTEX
  8
0
 10
216.500197
 20
185.631628
 42
-0.152497
  0
VERTEX
  8
0
 10
216.990264
 20
185.506017
 42
0.301673
  0
VERTEX
  8
0
 10
218.351985
 20
185.550164
 42
0.031037
  0
VERTEX
  8
0
 10
220.980274
 20
187.677489
 42
0.033543
  0
VERTEX
  8
0
 10
223.363279
 20
190.178512
 42
0.175308
  0
VERTEX
  8
0
 10
224.000000
 20
191.938707
 42
-0.185654
  0
VERTEX
  8
0
 10
224.346928
 20
192.840841
 42
-0.167240
  0
VERTEX
  8
0
 10
225.226208
 20
193.327063
 42
-0.053586
  0
VERTEX
  8
0
 10
227.084304
 20
193.451077
 42
-0.005916
  0
VERTEX
  8
0
 10
231.347637
 20
193.228084
 42
0.008533
  0
VERTEX
  8
0
 10
235.574298
 20
193.029187
 42
0.050318
  0
VERTEX
  8
0
 10
237.783749
 20
193.185416
 42
0.092113
  0
VERTEX
  8
0
 10
239.274964
 20
193.737964
 42
0.070671
  0
VERTEX
  8
0
 10
240.629067
 20
194.832225
 42
-0.114359
  0
VERTEX
  8
0
 10
243.017572
 20
196.442012
 42
-0.070606
  0
VERTEX
  8
0
 10
246.335067
 20
197.198990
 42
-0.076328
  0
VERTEX
  8
0
 10
249.434182
 20
196.984805
 42
-0.212941
  0
VERTEX
  8
0
 10
251.142075
 20
195.710609
 42
0.086848
  0
VERTEX
  8
0
 10
251.675170
 20
195.056031
 42
0.056381
  0
VERTEX
  8
0
 10
252.481806
 20
194.502491
 42
0.054736
  0
VERTEX
  8
0
 10
253.423379
 20
194.127049
 42
0.067617
  0
VERTEX
  8
0
 10
254.358560
 20
194.000000
 42
-0.084956
  0
VERTEX
  8
0
 10
256.526349
 20
193.628988
 42
-0.080103
  0
VERTEX
  8
0
 10
258.496748
 20
192.555429
 42
-0.086053
  0
VERTEX
  8
0
 10
259.916082
 20
191.002161
 42
-0.124424
  0
VERTEX
  8
0
 10
260.500314
 20
189.245743
 42
-0.106665
  0
VERTEX
  8
0
 10
260.348282
 20
188.158935
 42
-0.242290
  0
VERTEX
  8
0
 10
259.754906
 20
187.612909
 42
-0.082657
  0
VERTEX
  8
0
 10
258.415860
 20
187.473810
 42
-0.007250
  0
VERTEX
  8
0
 10
255.002839
 20
187.733459
 42
0.024681
  0
VERTEX
  8
0
 10
252.122273
 20
187.851850
 42
0.025830
  0
VERTEX
  8
0
 10
249.287858
 20
187.681796
 42
0.025143
  0
VERTEX
  8
0
 10
246.417341
 20
187.213110
 42
0.021011
  0
VERTEX
  8
0
 10
243.428115
 20
186.436644
 42
-0.007845
  0
VERTEX
  8
0
 10
240.996269
 20
185.736132
 42
-0.008328
  0
VERTEX
  8
0
 10
238.591430
 20
185.126889
 42
-0.008008
  0
VERTEX
  8
0
 10
236.505956
 20
184.670490
 42
-0.037475
  0
VERTEX
  8
0
 10
235.287392
 20
184.517965
 42
0.024805
  0
VERTEX
  8
0
 10
234.393599
 20
184.429003
 42
0.026917
  0
VERTEX
  8
0
 10
233.537463
 20
184.253111
 42
0.027774
  0
VERTEX
  8
0
 10
232.827016
 20
184.023979
 42
0.104852
  0
VERTEX
  8
0
 10
232.437256
 20
183.770590
 42
0.247557
  0
VERTEX
  8
0
 10
232.140558
 20
182.811589
 42
0.210234
  0
VERTEX
  8
0
 10
232.745589
 20
181.926733
 42
0.100602
  0
VERTEX
  8
0
 10
234.360186
 20
181.326193
 42
0.048321
  0
VERTEX
  8
0
 10
236.575879
 20
181.195334
 42
-0.031244
  0
VERTEX
  8
0
 10
238.000058
 20
181.159876
 42
-0.032645
  0
VERTEX
  8
0
 10
239.387604
 20
180.946439
 42
-0.034557
  0
VERTEX
  8
0
 10
240.552358
 20
180.602688
 42
-0.107747
  0
VERTEX
  8
0
 10
241.236594
 20
180.163406
 42
-0.020571
  0
VERTEX
  8
0
 10
241.778820
 20
179.574630
 42
-0.185735
  0
VERTEX
  8
0
 10
241.892136
 20
179.250000
 42
-0.344415
  0
VERTEX
  8
0
 10
241.730986
 20
179.056654
 42
-0.053197
  0
VERTEX
  8
0
 10
241.200000
 20
179.000000
 42
0.080098
  0
VERTEX
  8
0
 10
240.741636
 20
178.926098
 42
0.091351
  0
VERTEX
  8
0
 10
240.352500
 20
178.712548
 42
0.100750
  0
VERTEX
  8
0
 10
240.092332
 20
178.394657
 42
0.121860
  0
VERTEX
  8
0
 10
240.000000
 20
178.021439
 42
0.239685
  0
VERTEX
  8
0
 10
240.170347
 20
177.686498
 42
0.149516
  0
VERTEX
  8
0
 10
240.595608
 20
177.539421
 42
0.076094
  0
VERTEX
  8
0
 10
241.299073
 20
177.621214
 42
0.027954
  0
VERTEX
  8
0
 10
242.250000
 20
177.940084
 42
-0.004080
  0
VERTEX
  8
0
 10
245.481852
 20
179.198342
 42
-0.019255
  0
VERTEX
  8
0
 10
247.367488
 20
179.832881
 42
-0.033582
  0
VERTEX
  8
0
 10
248.620162
 20
180.111641
 42
-0.098260
  0
VERTEX
  8
0
 10
249.500000
 20
180.072845
 42
0.049291
  0
VERTEX
  8
0
 10
250.180907
 20
179.975879
 42
0.002973
  0
VERTEX
  8
0
 10
252.247488
 20
179.899364
 42
0.004427
  0
VERTEX
  8
0
 10
254.714302
 20
179.844569
 42
0.003255
  0
VERTEX
  8
0
 10
257.448897
 20
179.825851
 42
0.011066
  0
VERTEX
  8
0
 10
260.967200
 20
179.902555
 42
0.039762
  0
VERTEX
  8
0
 10
263.194403
 20
180.178823
 42
0.065964
  0
VERTEX
  8
0
 10
264.662964
 20
180.689457
 42
0.118818
  0
VERTEX
  8
0
 10
265.630213
 20
181.508964
 42
0.038609
  0
VERTEX
  8
0
 10
266.082040
 20
182.239025
 42
0.037336
  0
VERTEX
  8
0
 10
266.422054
 20
183.037937
 42
0.039752
  0
VERTEX
  8
0
 10
266.611796
 20
183.786411
 42
0.099515
  0
VERTEX
  8
0
 10
266.595211
 20
184.347199
 42
-0.014671
  0
VERTEX
  8
0
 10
266.512148
 20
184.759920
 42
-0.133316
  0
VERTEX
  8
0
 10
266.529555
 20
184.941052
 42
-0.572206
  0
VERTEX
  8
0
 10
266.605784
 20
184.954173
 42
-0.048005
  0
VERTEX
  8
0
 10
266.747228
 20
184.750000
 42
0.108925
  0
VERTEX
  8
0
 10
267.002823
 20
184.462612
 42
0.054387
  0
VERTEX
  8
0
 10
267.427758
 20
184.220313
 42
0.050270
  0
VERTEX
  8
0
 10
267.943389
 20
184.055653
 42
0.052208
  0
VERTEX
  8
0
 10
268.474925
 20
184.000000
 42
-0.272885
  0
VERTEX
  8
0
 10
269.580879
 20
183.347839
 42
-0.064767
  0
VERTEX
  8
0
 10
270.398730
 20
181.275257
 42
-0.035193
  0
VERTEX
  8
0
 10
271.040834
 20
177.667540
 42
-0.008824
  0
VERTEX
  8
0
 10
271.567246
 20
171.709900
 42
0.006308
  0
VERTEX
  8
0
 10
271.818534
 20
168.692852
 42
0.005758
  0
VERTEX
  8
0
 10
272.152554
 20
165.589783
 42
0.005767
  0
VERTEX
  8
0
 10
272.514871
 20
162.824452
 42
0.018601
  0
VERTEX
  8
0
 10
272.845001
 20
161.000000
 42
0.000000
  0
VERTEX
  8
0
 10
273.613744
 20
157.500000
 42
0.000000
  0
VERTEX
  8
0
 10
275.254900
 20
160.500000
 42
0.004370
  0
VERTEX
  8
0
 10
275.958385
 20
161.813082
 42
0.003216
  0
VERTEX
  8
0
 10
276.715713
 20
163.279687
 42
0.003249
  0
VERTEX
  8
0
 10
277.414160
 20
164.676268
 42
0.007240
  0
VERTEX
  8
0
 10
277.923278
 20
165.750000
 42
-0.042362
  0
VERTEX
  8
0
 10
278.847411
 20
167.390737
 42
-0.216187
  0
VERTEX
  8
0
 10
279.719456
 20
167.922216
 42
-0.363714
  0
VERTEX
  8
0
 10
280.356817
 20
167.508135
 42
-0.074379
  0
VERTEX
  8
0
 10
280.571429
 20
166.073419
 42
-0.039538
  0
VERTEX
  8
0
 10
280.515602
 20
165.368544
 42
-0.085489
  0
VERTEX
  8
0
 10
280.340625
 20
164.855415
 42
-0.161426
  0
VERTEX
  8
0
 10
280.082567
 20
164.614282
 42
-0.251349
  0
VERTEX
  8
0
 10
279.785714
 20
164.632436
 42
0.364827
  0
VERTEX
  8
0
 10
279.489193
 20
164.588812
 42
0.102253
  0
VERTEX
  8
0
 10
279.237335
 20
164.150241
 42
0.054926
  0
VERTEX
  8
0
 10
279.069294
 20
163.353029
 42
0.026486
  0
VERTEX
  8
0
 10
279.022236
 20
162.309017
 42
0.000000
  0
VERTEX
  8
0
 10
279.044472
 20
159.500000
 42
0.000000
  0
VERTEX
  8
0
 10
280.979061
 20
162.000000
 42
0.057111
  0
VERTEX
  8
0
 10
282.612733
 20
164.697866
 42
0.021159
  0
VERTEX
  8
0
 10
284.295696
 20
168.814627
 42
0.020833
  0
VERTEX
  8
0
 10
285.614440
 20
173.016580
 42
0.065706
  0
VERTEX
  8
0
 10
286.000000
 20
175.937897
 42
0.068053
  0
VERTEX
  8
0
 10
285.889446
 20
176.746394
 42
0.091027
  0
VERTEX
  8
0
 10
285.565837
 20
177.410627
 42
0.106468
  0
VERTEX
  8
0
 10
285.074621
 20
177.844731
 42
0.128607
  0
VERTEX
  8
0
 10
284.480948
 20
178.000000
 42
-0.116622
  0
VERTEX
  8
0
 10
283.801359
 20
178.160696
 42
-0.203429
  0
VERTEX
  8
0
 10
283.432319
 20
178.594395
 42
-0.110372
  0
VERTEX
  8
0
 10
283.365119
 20
179.394516
 42
-0.024651
  0
VERTEX
  8
0
 10
283.619280
 20
180.750000
 42
-0.013291
  0
VERTEX
  8
0
 10
283.933438
 20
181.925146
 42
-0.010414
  0
VERTEX
  8
0
 10
284.334326
 20
183.182553
 42
-0.010557
  0
VERTEX
  8
0
 10
284.756634
 20
184.337417
 42
-0.025263
  0
VERTEX
  8
0
 10
285.130343
 20
185.169330
 42
0.052027
  0
VERTEX
  8
0
 10
285.420811
 20
185.920990
 42
0.110900
  0
VERTEX
  8
0
 10
285.448004
 20
186.540019
 42
0.142154
  0
VERTEX
  8
0
 10
285.214025
 20
187.012976
 42
0.111725
  0
VERTEX
  8
0
 10
284.742010
 20
187.340382
 42
-0.528416
  0
VERTEX
  8
0
 10
284.664732
 20
187.694874
 42
-0.223044
  0
VERTEX
  8
0
 10
285.221454
 20
187.913558
 42
-0.034530
  0
VERTEX
  8
0
 10
287.395207
 20
187.621299
 42
-0.040182
  0
VERTEX
  8
0
 10
289.396938
 20
187.039184
 42
0.030646
  0
VERTEX
  8
0
 10
290.894486
 20
186.572574
 42
0.224167
  0
VERTEX
  8
0
 10
291.611175
 20
186.718053
 42
0.178113
  0
VERTEX
  8
0
 10
292.051333
 20
187.394358
 42
0.018508
  0
VERTEX
  8
0
 10
292.410671
 20
189.289184
 42
0.008001
  0
VERTEX
  8
0
 10
293.111217
 20
194.470080
 42
0.022008
  0
VERTEX
  8
0
 10
293.385228
 20
198.146695
 42
0.030195
  0
VERTEX
  8
0
 10
293.306558
 20
200.769160
 42
0.105348
  0
VERTEX
  8
0
 10
292.808447
 20
202.377802
 42
-0.033081
  0
VERTEX
  8
0
 10
292.406915
 20
203.221786
 42
-0.015061
  0
VERTEX
  8
0
 10
291.990250
 20
204.371055
 42
-0.014839
  0
VERTEX
  8
0
 10
291.622254
 20
205.613230
 42
-0.019741
  0
VERTEX
  8
0
 10
291.366597
 20
206.762637
 42
0.018434
  0
VERTEX
  8
0
 10
291.124982
 20
207.862467
 42
0.017786
  0
VERTEX
  8
0
 10
290.800555
 20
208.954900
 42
0.018028
  0
VERTEX
  8
0
 10
290.446295
 20
209.895217
 42
0.059879
  0
VERTEX
  8
0
 10
290.120869
 20
210.468939
 42
-0.060817
  0
VERTEX
  8
0
 10
289.752109
 20
211.121897
 42
-0.009232
  0
VERTEX
  8
0
 10
289.203540
 20
212.519001
 42
-0.010226
  0
VERTEX
  8
0
 10
288.617371
 20
214.201519
 42
-0.008691
  0
VERTEX
  8
0
 10
288.066144
 20
216.000000
 42
0.003984
  0
VERTEX
  8
0
 10
287.512339
 20
217.869529
 42
0.003765
  0
VERTEX
  8
0
 10
286.918548
 20
219.765625
 42
0.003742
  0
VERTEX
  8
0
 10
286.367614
 20
221.436483
 42
0.013127
  0
VERTEX
  8
0
 10
285.976695
 20
222.500000
 42
-0.002831
  0
VERTEX
  8
0
 10
284.853030
 20
225.372887
 42
-0.009514
  0
VERTEX
  8
0
 10
284.164091
 20
227.271165
 42
-0.013764
  0
VERTEX
  8
0
 10
283.749114
 20
228.605152
 42
-0.046984
  0
VERTEX
  8
0
 10
283.586367
 20
229.498681
 42
0.142387
  0
VERTEX
  8
0
 10
283.438851
 20
229.879984
 42
0.089592
  0
VERTEX
  8
0
 10
283.083628
 20
230.204386
 42
0.076472
  0
VERTEX
  8
0
 10
282.577556
 20
230.423575
 42
0.063887
  0
VERTEX
  8
0
 10
281.996198
 20
230.498681
 42
-0.142243
  0
VERTEX
  8
0
 10
281.157132
 20
230.743111
 42
-0.017142
  0
VERTEX
  8
0
 10
279.551078
 20
231.842671
 42
-0.019278
  0
VERTEX
  8
0
 10
277.697074
 20
233.321106
 42
-0.014752
  0
VERTEX
  8
0
 10
275.784106
 20
235.072115
 42
0.014379
  0
VERTEX
  8
0
 10
273.722192
 20
236.962287
 42
0.011844
  0
VERTEX
  8
0
 10
271.419616
 20
238.860849
 42
0.012019
  0
VERTEX
  8
0
 10
269.221372
 20
240.503703
 42
0.030952
  0
VERTEX
  8
0
 10
267.537908
 20
241.549519
 42
-0.015796
  0
VERTEX
  8
0
 10
266.182569
 20
242.335623
 42
-0.022687
  0
VERTEX
  8
0
 10
265.039260
 20
243.122079
 42
-0.019716
  0
VERTEX
  8
0
 10
264.179349
 20
243.827955
 42
-0.214196
  0
VERTEX
  8
0
 10
264.000000
 20
244.227404
 42
0.205177
  0
VERTEX
  8
0
 10
263.870853
 20
244.528877
 42
0.077267
  0
VERTEX
  8
0
 10
263.485937
 20
244.796241
 42
0.060021
  0
VERTEX
  8
0
 10
262.919926
 20
244.991993
 42
0.042021
  0
VERTEX
  8
0
 10
262.250000
 20
245.078947
 42
-0.014712
  0
VERTEX
  8
0
 10
261.484430
 20
245.136092
 42
-0.221988
  0
VERTEX
  8
0
 10
261.261454
 20
245.269999
 42
-0.444109
  0
VERTEX
  8
0
 10
261.304352
 20
245.443190
 42
-0.028137
  0
VERTEX
  8
0
 10
261.837218
 20
245.691354
 42
0.265923
  0
VERTEX
  8
0
 10
262.209440
 20
246.159835
 42
0.154280
  0
VERTEX
  8
0
 10
262.095472
 20
246.891286
 42
0.062075
  0
VERTEX
  8
0
 10
261.363018
 20
247.997858
 42
0.015272
  0
VERTEX
  8
0
 10
259.891052
 20
249.612406
 42
0.026159
  0
VERTEX
  8
0
 10
257.939026
 20
251.426212
 42
0.073874
  0
VERTEX
  8
0
 10
256.355200
 20
252.394922
 42
0.074085
  0
VERTEX
  8
0
 10
254.560801
 20
252.859891
 42
0.026417
  0
VERTEX
  8
0
 10
251.910822
 20
253.000000
 42
-0.018541
  0
VERTEX
  8
0
 10
249.632516
 20
253.084512
 42
-0.057225
  0
VERTEX
  8
0
 10
248.121151
 20
253.372795
 42
-0.092096
  0
VERTEX
  8
0
 10
247.146295
 20
253.888368
 42
-0.134360
  0
VERTEX
  8
0
 10
246.574206
 20
254.667217
 42
0.041324
  0
VERTEX
  8
0
 10
246.202318
 20
255.439037
 42
0.196354
  0
VERTEX
  8
0
 10
245.820340
 20
255.730271
 42
0.215502
  0
VERTEX
  8
0
 10
245.368303
 20
255.656916
 42
0.050045
  0
VERTEX
  8
0
 10
244.757566
 20
255.157566
 42
-0.088502
  0
VERTEX
  8
0
 10
244.122013
 20
254.714450
 42
-0.216076
  0
VERTEX
  8
0
 10
243.564119
 20
254.710711
 42
-0.133566
  0
VERTEX
  8
0
 10
243.003975
 20
255.167832
 42
-0.028463
  0
VERTEX
  8
0
 10
242.325784
 20
256.240349
 42
0.022527
  0
VERTEX
  8
0
 10
241.839053
 20
257.030686
 42
0.077605
  0
VERTEX
  8
0
 10
241.429093
 20
257.469040
 42
0.307407
  0
VERTEX
  8
0
 10
241.175433
 20
257.486183
 42
0.258929
  0
VERTEX
  8
0
 10
241.035435
 20
257.250000
 42
-0.347232
  0
VERTEX
  8
0
 10
240.180710
 20
256.228522
 42
-0.070171
  0
VERTEX
  8
0
 10
237.651296
 20
256.062565
 42
-0.053532
  0
VERTEX
  8
0
 10
234.316845
 20
256.674703
 42
-0.045838
  0
VERTEX
  8
0
 10
231.000000
 20
258.000000
 42
0.031521
  0
VERTEX
  8
0
 10
228.056708
 20
259.274781
 42
0.053241
  0
VERTEX
  8
0
 10
225.447392
 20
259.911442
 42
0.083758
  0
VERTEX
  8
0
 10
223.636652
 20
259.849509
 42
0.356406
  0
VERTEX
  8
0
 10
223.000000
 20
259.069806
 42
-0.317582
  0
VERTEX
  8
0
 10
222.774663
 20
258.750818
 42
-0.085398
  0
VERTEX
  8
0
 10
222.128301
 20
258.639611
 42
-0.049535
  0
VERTEX
  8
0
 10
221.108712
 20
258.740871
 42
-0.020333
  0
VERTEX
  8
0
 10
219.756602
 20
259.069806
 42
0.003394
  0
VERTEX
  8
0
 10
218.512357
 20
259.417529
 42
0.005728
  0
VERTEX
  8
0
 10
217.464013
 20
259.689988
 42
0.001351
  0
VERTEX
  8
0
 10
216.556668
 20
259.912137
 42
0.469409
  0
VERTEX
  8
0
 10
216.506602
 20
259.874833
 42
-0.343909
  0
VERTEX
  8
0
 10
216.455393
 20
259.815876
 42
-0.000804
  0
VERTEX
  8
0
 10
215.258957
 20
259.583866
 42
-0.004420
  0
VERTEX
  8
0
 10
213.891483
 20
259.333483
 42
-0.002676
  0
SEQEND
  0
POLYLINE
  8
0
 66
1
 70
1
  0
VERTEX
  8
0
 10
259.000000
 20
249.429632
 42
-0.439016
  0
VERTEX
  8
0
 10
258.867419
 20
249.307737
 42
-0.048507
  0
VERTEX
  8
0
 10
258.412500
 20
249.390928
 42
-0.035050
  0
VERTEX
  8
0
 10
257.767478
 20
249.624831
 42
-0.018363
  0
VERTEX
  8
0
 10
257.000000
 20
250.000000
 42
-0.018122
  0
VERTEX
  8
0
 10
256.233921
 20
250.446431
 42
-0.025446
  0
VERTEX
  8
0
 10
255.587500
 20
250.902822
 42
-0.023718
  0
VERTEX
  8
0
 10
255.108693
 20
251.316932
 42
-0.205392
  0
VERTEX
  8
0
 10
255.000000
 20
251.570368
 42
-0.439016
  0
VERTEX
  8
0
 10
255.132581
 20
251.692263
 42
-0.048507
  0
VERTEX
  8
0
 10
255.587500
 20
251.609072
 42
-0.035050
  0
VERTEX
  8
0
 10
256.232522
 20
251.375169
 42
-0.018363
  0
VERTEX
  8
0
 10
257.000000
 20
251.000000
 42
-0.018122
  0
VERTEX
  8
0
 10
257.766079
 20
250.553569
 42
-0.025446
  0
VERTEX
  8
0
 10
258.412500
 20
250.097178
 42
-0.023718
  0
VERTEX
  8
0
 10
258.891307
 20
249.683068
 42
-0.205392
  0
SEQEND
  0
POLYLINE
  8
0
 66
1
 70
1
  0
VERTEX
  8
0
 10
259.000000
 20
246.883369
 42
-0.217518
  0
VERTEX
  8
0
 10
258.703661
 20
246.234413
 42
-0.227657
  0
VERTEX
  8
0
 10
258.027751
 20
246.049976
 42
-0.117010
  0
VERTEX
  8
0
 10
257.051057
 20
246.479430
 42
-0.057778
  0
VERTEX
  8
0
 10
256.065294
 20
247.421326
 42
-0.020124
  0
VERTEX
  8
0
 10
255.483961
 20
248.182104
 42
-0.363425
  0
VERTEX
  8
0
 10
255.508120
 20
248.465884
 42
-0.253319
  0
VERTEX
  8
0
 10
255.834001
 20
248.564019
 42
-0.013020
  0
VERTEX
  8
0
 10
256.942849
 20
248.304694
 42
-0.037801
  0
VERTEX
  8
0
 10
257.730253
 20
248.033806
 42
-0.049464
  0
VERTEX
  8
0
 10
258.395712
 20
247.665273
 42
-0.058693
  0
VERTEX
  8
0
 10
258.855541
 20
247.260458
 42
-0.184990
  0
SEQEND
  0
POLYLINE
  8
0
 66
1
 70
1
  0
VERTEX
  8
0
 10
236.604875
 20
198.960127
 42
-0.091027
  0
VERTEX
  8
0
 10
238.250974
 20
197.962466
 42
-0.189043
  0
VERTEX
  8
0
 10
238.921262
 20
196.645168
 42
-0.223543
  0
VERTEX
  8
0
 10
238.472150
 20
195.386915
 42
-0.120775
  0
VERTEX
  8
0
 10
237.037773
 20
194.511989
 42
-0.112662
  0
VERTEX
  8
0
 10
235.265679
 20
194.364650
 42
-0.066008
  0
VERTEX
  8
0
 10
233.206000
 20
194.941899
 42
-0.070753
  0
VERTEX
  8
0
 10
231.542411
 20
195.953510
 42
-0.224454
  0
VERTEX
  8
0
 10
231.000000
 20
197.100925
 42
-0.094496
  0
VERTEX
  8
0
 10
231.303435
 20
198.692138
 42
-0.055000
  0
VERTEX
  8
0
 10
232.215704
 20
200.415921
 42
-0.092885
  0
VERTEX
  8
0
 10
233.175363
 20
201.382354
 42
-0.499416
  0
VERTEX
  8
0
 10
233.772429
 20
201.182713
 42
0.105930
  0
VERTEX
  8
0
 10
234.107176
 20
200.615070
 42
0.040414
  0
VERTEX
  8
0
 10
234.784855
 20
199.988644
 42
0.037753
  0
VERTEX
  8
0
 10
235.656098
 20
199.405469
 42
0.037786
  0
SEQEND
  0
POLYLINE
  8
0
 66
1
 70
1
  0
VERTEX
  8
0
 10
221.382816
 20
194.709346
 42
-0.051324
  0
VERTEX
  8
0
 10
222.277060
 20
193.902719
 42
-0.153171
  0
VERTEX
  8
0
 10
222.616954
 20
193.162240
 42
-0.115621
  0
VERTEX
  8
0
 10
222.519661
 20
192.228933
 42
-0.023363
  0
VERTEX
  8
0
 10
221.895826
 20
190.670708
 42
-0.034249
  0
VERTEX
  8
0
 10
221.235167
 20
189.449789
 42
-0.093381
  0
VERTEX
  8
0
 10
220.567855
 20
188.734468
 42
-0.138626
  0
VERTEX
  8
0
 10
219.856052
 20
188.467852
 42
-0.122349
  0
VERTEX
  8
0
 10
219.071880
 20
188.594878
 42
0.035256
  0
VERTEX
  8
0
 10
218.343159
 20
188.847417
 42
0.021051
  0
VERTEX
  8
0
 10
217.447677
 20
189.048623
 42
0.021017
  0
VERTEX
  8
0
 10
216.534351
 20
189.174440
 42
0.033919
  0
VERTEX
  8
0
 10
215.750000
 20
189.195665
 42
-0.051699
  0
VERTEX
  8
0
 10
215.080361
 20
189.237604
 42
-0.073606
  0
VERTEX
  8
0
 10
214.514062
 20
189.420756
 42
-0.095830
  0
VERTEX
  8
0
 10
214.134387
 20
189.709880
 42
-0.184268
  0
VERTEX
  8
0
 10
214.000000
 20
190.062149
 42
-0.087358
  0
VERTEX
  8
0
 10
214.063047
 20
190.420249
 42
-0.094411
  0
VERTEX
  8
0
 10
214.244112
 20
190.724506
 42
-0.100139
  0
VERTEX
  8
0
 10
214.514005
 20
190.928027
 42
-0.112090
  0
VERTEX
  8
0
 10
214.831020
 20
191.000000
 42
0.183041
  0
VERTEX
  8
0
 10
215.235172
 20
191.153081
 42
0.033020
  0
VERTEX
  8
0
 10
215.810954
 20
191.734375
 42
0.031775
  0
VERTEX
  8
0
 10
216.426855
 20
192.542722
 42
0.024046
  0
VERTEX
  8
0
 10
217.000000
 20
193.500000
 42
-0.024734
  0
VERTEX
  8
0
 10
218.064938
 20
195.273146
 42
-0.179711
  0
VERTEX
  8
0
 10
218.857061
 20
195.844477
 42
-0.197089
  0
VERTEX
  8
0
 10
219.787807
 20
195.732285
 42
-0.030564
  0
SEQEND
  0
POLYLINE
  8
0
 66
1
 70
1
  0
VERTEX
  8
0
 10
122.000000
 20
153.531385
 42
-0.094172
  0
VERTEX
  8
0
 10
121.893936
 20
152.973240
 42
-0.165347
  0
VERTEX
  8
0
 10
121.593244
 20
152.618633
 42
-0.151817
  0
VERTEX
  8
0
 10
121.117056
 20
152.502894
 42
-0.076022
  0
VERTEX
  8
0
 10
120.505744
 20
152.636170
 42
-0.064087
  0
VERTEX
  8
0
 10
119.975437
 20
152.922037
 42
-0.094924
  0
VERTEX
  8
0
 10
119.612949
 20
153.304103
 42
-0.122111
  0
VERTEX
  8
0
 10
119.472387
 20
153.718783
 42
-0.160704
  0
VERTEX
  8
0
 10
119.564761
 20
154.104785
 42
-0.117169
  0
VERTEX
  8
0
 10
120.282977
 20
154.820919
 42
-0.198008
  0
VERTEX
  8
0
 10
121.109611
 20
154.954077
 42
-0.210000
  0
VERTEX
  8
0
 10
121.754977
 20
154.468306
 42
-0.128597
  0
SEQEND
  0
POLYLINE
  8
0
 66
1
 70
1
  0
VERTEX
  8
0
 10
132.216667
 20
151.816667
 42
-0.103621
  0
VERTEX
  8
0
 10
131.205275
 20
151.155634
 42
-0.297810
  0
VERTEX
  8
0
 10
130.422432
 20
151.319633
 42
-0.219336
  0
VERTEX
  8
0
 10
130.091174
 20
152.217175
 42
-0.072159
  0
VERTEX
  8
0
 10
130.409244
 20
153.624089
 42
-0.040341
  0
VERTEX
  8
0
 10
130.787781
 20
154.413665
 42
-0.190670
  0
VERTEX
  8
0
 10
131.174991
 20
154.718105
 42
-0.218633
  0
VERTEX
  8
0
 10
131.629413
 20
154.653597
 42
-0.053524
  0
VERTEX
  8
0
 10
132.232783
 20
154.167217
 42
-0.053474
  0
VERTEX
  8
0
 10
132.739052
 20
153.539301
 42
-0.145657
  0
VERTEX
  8
0
 10
132.896548
 20
152.996548
 42
-0.143917
  0
VERTEX
  8
0
 10
132.732364
 20
152.451783
 42
-0.051746
  0
SEQEND
  0
POLYLINE
  8
0
 66
1
 70
1
  0
VERTEX
  8
0
 10
151.638374
 20
131.500000
 42
0.114736
  0
VERTEX
  8
0
 10
152.026695
 20
130.926111
 42
0.065755
  0
VERTEX
  8
0
 10
152.712343
 20
130.440625
 42
0.060270
  0
VERTEX
  8
0
 10
153.574434
 20
130.111789
 42
0.061078
  0
VERTEX
  8
0
 10
154.486146
 20
130.000000
 42
-0.089475
  0
VERTEX
  8
0
 10
157.201475
 20
129.510170
 42
-0.014208
  0
VERTEX
  8
0
 10
162.234917
 20
127.468376
 42
-0.008268
  0
VERTEX
  8
0
 10
167.329937
 20
125.129752
 42
-0.288622
  0
VERTEX
  8
0
 10
168.000000
 20
124.065655
 42
0.228508
  0
VERTEX
  8
0
 10
168.201311
 20
123.648166
 42
0.014439
  0
VERTEX
  8
0
 10
169.321875
 20
122.808066
 42
0.018917
  0
VERTEX
  8
0
 10
170.775765
 20
121.862549
 42
0.012759
  0
VERTEX
  8
0
 10
172.500000
 20
120.890679
 42
-0.020231
  0
VERTEX
  8
0
 10
174.223477
 20
119.885018
 42
-0.027842
  0
VERTEX
  8
0
 10
175.678125
 20
118.836995
 42
-0.027237
  0
VERTEX
  8
0
 10
176.742891
 20
117.875535
 42
-0.197998
  0
VERTEX
  8
0
 10
177.000000
 20
117.251717
 42
0.092079
  0
VERTEX
  8
0
 10
177.088750
 20
116.773877
 42
0.096035
  0
VERTEX
  8
0
 10
177.342708
 20
116.367692
 42
0.099400
  0
VERTEX
  8
0
 10
177.721538
 20
116.095866
 42
0.106463
  0
VERTEX
  8
0
 10
178.166667
 20
116.000000
 42
-0.048179
  0
VERTEX
  8
0
 10
178.575754
 20
115.960489
 42
-0.143768
  0
VERTEX
  8
0
 10
178.822985
 20
115.832360
 42
-0.260521
  0
VERTEX
  8
0
 10
178.880314
 20
115.645281
 42
-0.144250
  0
VERTEX
  8
0
 10
178.762644
 20
115.429311
 42
0.222521
  0
VERTEX
  8
0
 10
178.624530
 20
115.047978
 42
0.037564
  0
VERTEX
  8
0
 10
178.755682
 20
114.262801
 42
0.034892
  0
VERTEX
  8
0
 10
179.065536
 20
113.296683
 42
0.024622
  0
VERTEX
  8
0
 10
179.540339
 20
112.259608
 42
-0.069125
  0
VERTEX
  8
0
 10
180.232689
 20
110.305777
 42
-0.124013
  0
VERTEX
  8
0
 10
180.157865
 20
108.615758
 42
-0.090910
  0
VERTEX
  8
0
 10
179.238132
 20
106.815548
 42
-0.025655
  0
VERTEX
  8
0
 10
177.188053
 20
104.405927
 42
0.026069
  0
VERTEX
  8
0
 10
176.301981
 20
103.362710
 42
0.012164
  0
VERTEX
  8
0
 10
175.259929
 20
101.926498
 42
0.012014
  0
VERTEX
  8
0
 10
174.237200
 20
100.363153
 42
0.016454
  0
VERTEX
  8
0
 10
173.398229
 20
98.905927
 42
0.005157
  0
VERTEX
  8
0
 10
172.243153
 20
96.682696
 42
0.025664
  0
VERTEX
  8
0
 10
171.672711
 20
95.396805
 42
0.038476
  0
VERTEX
  8
0
 10
171.349976
 20
94.312533
 42
0.022658
  0
VERTEX
  8
0
 10
171.125000
 20
92.978561
 42
-0.152689
  0
VERTEX
  8
0
 10
170.912873
 20
92.509618
 42
-0.038597
  0
VERTEX
  8
0
 10
170.302344
 20
91.922566
 42
-0.035755
  0
VERTEX
  8
0
 10
169.466130
 20
91.329162
 42
-0.029548
  0
VERTEX
  8
0
 10
168.500000
 20
90.818046
 42
0.041165
  0
VERTEX
  8
0
 10
167.543433
 20
90.283222
 42
0.047285
  0
VERTEX
  8
0
 10
166.734375
 20
89.620100
 42
0.053401
  0
VERTEX
  8
0
 10
166.176261
 20
88.934155
 42
0.145081
  0
VERTEX
  8
0
 10
166.000000
 20
88.339485
 42
-0.076680
  0
VERTEX
  8
0
 10
165.921055
 20
87.827747
 42
-0.089657
  0
VERTEX
  8
0
 10
165.692224
 20
87.393474
 42
-0.100761
  0
VERTEX
  8
0
 10
165.351827
 20
87.103160
 42
-0.127005
  0
VERTEX
  8
0
 10
164.952251
 20
87.000000
 42
0.136168
  0
VERTEX
  8
0
 10
164.404661
 20
86.848054
 42
0.024885
  0
VERTEX
  8
0
 10
163.523168
 20
86.256437
 42
0.025132
  0
VERTEX
  8
0
 10
162.533570
 20
85.437829
 42
0.020507
  0
VERTEX
  8
0
 10
161.558593
 20
84.468722
 42
-0.035348
  0
VERTEX
  8
0
 10
160.147012
 20
83.146507
 42
-0.007140
  0
VERTEX
  8
0
 10
157.447119
 20
81.017271
 42
-0.007503
  0
VERTEX
  8
0
 10
154.227552
 20
78.627714
 42
-0.006956
  0
VERTEX
  8
0
 10
150.856342
 20
76.273662
 42
-0.007092
  0
VERTEX
  8
0
 10
145.378800
 20
72.673389
 42
-0.056400
  0
VERTEX
  8
0
 10
142.661658
 20
71.345372
 42
-0.074625
  0
VERTEX
  8
0
 10
140.008712
 20
70.827018
 42
-0.017079
  0
VERTEX
  8
0
 10
135.426364
 20
70.781973
 42
-0.018296
  0
VERTEX
  8
0
 10
131.819546
 20
71.001942
 42
-0.028072
  0
VERTEX
  8
0
 10
128.727210
 20
71.480786
 42
-0.029900
  0
VERTEX
  8
0
 10
125.856138
 20
72.273959
 42
-0.025189
  0
VERTEX
  8
0
 10
122.926364
 20
73.443097
 42
-0.015509
  0
VERTEX
  8
0
 10
116.263051
 20
76.753347
 42
-0.291046
  0
VERTEX
  8
0
 10
115.167381
 20
78.701783
 42
-0.181027
  0
VERTEX
  8
0
 10
116.231317
 20
81.133989
 42
-0.006087
  0
VERTEX
  8
0
 10
123.753653
 20
88.696932
 42
0.007989
  0
VERTEX
  8
0
 10
129.257276
 20
94.272521
 42
0.026649
  0
VERTEX
  8
0
 10
132.607329
 20
98.172914
 42
0.034193
  0
VERTEX
  8
0
 10
135.066545
 20
101.861814
 42
0.021031
  0
VERTEX
  8
0
 10
137.466965
 20
106.500000
 42
0.002418
  0
VERTEX
  8
0
 10
142.326586
 20
117.077065
 42
0.007227
  0
VERTEX
  8
0
 10
145.510590
 20
124.374990
 42
0.006796
  0
VERTEX
  8
0
 10
147.623564
 20
129.614223
 42
0.092703
  0
VERTEX
  8
0
 10
148.000000
 20
131.627118
 42
-0.224064
  0
VERTEX
  8
0
 10
148.455593
 20
132.592735
 42
-0.183009
  0
VERTEX
  8
0
 10
149.548748
 20
132.963615
 42
-0.144021
  0
VERTEX
  8
0
 10
150.822742
 20
132.540013
 42
-0.150448
  0
SEQEND
  0
POLYLINE
  8
0
 66
1
 70
1
  0
VERTEX
  8
0
 10
276.729190
 20
115.422860
 42
-0.087864
  0
VERTEX
  8
0
 10
279.457715
 20
112.884259
 42
-0.083152
  0
VERTEX
  8
0
 10
281.212213
 20
109.516147
 42
-0.058956
  0
VERTEX
  8
0
 10
282.150275
 20
104.804870
 42
-0.021541
  0
VERTEX
  8
0
 10
282.393232
 20
98.000000
 42
-0.013791
  0
VERTEX
  8
0
 10
282.200088
 20
92.478484
 42
-0.029236
  0
VERTEX
  8
0
 10
281.683740
 20
88.232018
 42
-0.026166
  0
VERTEX
  8
0
 10
280.635829
 20
83.792053
 42
-0.009046
  0
VERTEX
  8
0
 10
278.674379
 20
77.500000
 42
-0.029491
  0
VERTEX
  8
0
 10
274.088247
 20
65.992559
 42
-0.054644
  0
VERTEX
  8
0
 10
268.859881
 20
57.414680
 42
-0.066493
  0
VERTEX
  8
0
 10
262.732229
 20
51.335367
 42
-0.075255
  0
VERTEX
  8
0
 10
255.462389
 20
47.378744
 42
-0.034413
  0
VERTEX
  8
0
 10
248.891704
 20
45.493633
 42
-0.060855
  0
VERTEX
  8
0
 10
243.281701
 20
44.992828
 42
-0.069549
  0
VERTEX
  8
0
 10
238.251482
 20
45.863557
 42
-0.062307
  0
VERTEX
  8
0
 10
233.445781
 20
48.095118
 42
-0.032770
  0
VERTEX
  8
0
 10
226.867782
 20
52.838012
 42
-0.043389
  0
VERTEX
  8
0
 10
221.605455
 20
58.012021
 42
-0.050327
  0
VERTEX
  8
0
 10
218.108545
 20
63.052076
 42
-0.127179
  0
VERTEX
  8
0
 10
217.000000
 20
67.339784
 42
0.044148
  0
VERTEX
  8
0
 10
216.872234
 20
68.783996
 42
0.006287
  0
VERTEX
  8
0
 10
216.312547
 20
71.709176
 42
0.007113
  0
VERTEX
  8
0
 10
215.555768
 20
75.160617
 42
0.006011
  0
VERTEX
  8
0
 10
214.659733
 20
78.789187
 42
-0.007826
  0
VERTEX
  8
0
 10
213.222162
 20
84.702920
 42
-0.029596
  0
VERTEX
  8
0
 10
212.601953
 20
88.459179
 42
-0.048475
  0
VERTEX
  8
0
 10
212.583993
 20
90.825755
 42
-0.288875
  0
VERTEX
  8
0
 10
213.299454
 20
91.763540
 42
-0.151129
  0
VERTEX
  8
0
 10
215.094985
 20
91.865359
 42
-0.020386
  0
VERTEX
  8
0
 10
218.763599
 20
90.794091
 42
-0.016245
  0
VERTEX
  8
0
 10
222.359974
 20
89.451216
 42
-0.304124
  0
VERTEX
  8
0
 10
223.000000
 20
88.496295
 42
0.214929
  0
VERTEX
  8
0
 10
223.696423
 20
86.951012
 42
0.052070
  0
VERTEX
  8
0
 10
226.033363
 20
85.282945
 42
0.050719
  0
VERTEX
  8
0
 10
228.978912
 20
83.986862
 42
0.075792
  0
VERTEX
  8
0
 10
231.749791
 20
83.534375
 42
0.019443
  0
VERTEX
  8
0
 10
233.818483
 20
83.592945
 42
0.141515
  0
VERTEX
  8
0
 10
234.742386
 20
83.928470
 42
0.357853
  0
VERTEX
  8
0
 10
234.893391
 20
84.510196
 42
0.088244
  0
VERTEX
  8
0
 10
234.285416
 20
85.381251
 42
-0.103672
  0
VERTEX
  8
0
 10
234.000914
 20
85.816639
 42
-0.027820
  0
VERTEX
  8
0
 10
233.742264
 20
86.606225
 42
-0.026942
  0
VERTEX
  8
0
 10
233.542573
 20
87.556797
 42
-0.024961
  0
VERTEX
  8
0
 10
233.439845
 20
88.547917
 42
-0.043573
  0
VERTEX
  8
0
 10
233.480216
 20
89.744581
 42
-0.139810
  0
VERTEX
  8
0
 10
233.786827
 20
90.472557
 42
-0.161613
  0
VERTEX
  8
0
 10
234.398731
 20
90.868134
 42
-0.064036
  0
VERTEX
  8
0
 10
235.404429
 20
90.995054
 42
0.078367
  0
VERTEX
  8
0
 10
239.978104
 20
91.705272
 42
0.054472
  0
VERTEX
  8
0
 10
244.761855
 20
93.837570
 42
0.042644
  0
VERTEX
  8
0
 10
249.999216
 20
97.524445
 42
0.021308
  0
VERTEX
  8
0
 10
255.981247
 20
103.000000
 42
0.005118
  0
VERTEX
  8
0
 10
259.419387
 20
106.498270
 42
0.005517
  0
VERTEX
  8
0
 10
262.699190
 20
109.980570
 42
0.005228
  0
VERTEX
  8
0
 10
265.448096
 20
113.027817
 42
0.026194
  0
VERTEX
  8
0
 10
266.877218
 20
114.827472
 42
-0.023104
  0
VERTEX
  8
0
 10
268.241323
 20
116.567208
 42
-0.091988
  0
VERTEX
  8
0
 10
269.294641
 20
117.412340
 42
-0.124551
  0
VERTEX
  8
0
 10
270.404444
 20
117.689685
 42
-0.059551
  0
VERTEX
  8
0
 10
271.873259
 20
117.509749
 42
-0.025675
  0
VERTEX
  8
0
 10
273.040906
 20
117.158513
 42
-0.015591
  0
VERTEX
  8
0
 10
274.383219
 20
116.630583
 42
-0.015607
  0
VERTEX
  8
0
 10
275.685596
 20
116.022044
 42
-0.026445
  0
SEQEND
  0
POLYLINE
  8
0
 66
1
 70
1
  0
VERTEX
  8
0
 10
255.239919
 20
115.648278
 42
-0.038736
  0
VERTEX
  8
0
 10
255.637119
 20
115.853120
 42
-0.349636
  0
VERTEX
  8
0
 10
255.812819
 20
115.803738
 42
-0.270968
  0
VERTEX
  8
0
 10
255.832684
 20
115.594983
 42
-0.029814
  0
VERTEX
  8
0
 10
255.595492
 20
115.154508
 42
-0.091750
  0
VERTEX
  8
0
 10
254.766298
 20
114.240097
 42
-0.224565
  0
VERTEX
  8
0
 10
253.899340
 20
114.055815
 42
-0.246727
  0
VERTEX
  8
0
 10
253.266925
 20
114.606190
 42
-0.104361
  0
VERTEX
  8
0
 10
253.078947
 20
115.750000
 42
-0.020483
  0
VERTEX
  8
0
 10
253.137062
 20
116.423747
 42
-0.187944
  0
VERTEX
  8
0
 10
253.274935
 20
116.676989
 42
-0.449603
  0
VERTEX
  8
0
 10
253.450943
 20
116.651402
 42
-0.049580
  0
VERTEX
  8
0
 10
253.664358
 20
116.243769
 42
0.093730
  0
VERTEX
  8
0
 10
253.939340
 20
115.814893
 42
0.113580
  0
VERTEX
  8
0
 10
254.336095
 20
115.550649
 42
0.119157
  0
VERTEX
  8
0
 10
254.793168
 20
115.493604
 42
0.110583
  0
SEQEND
  0
POLYLINE
  8
0
 66
1
 70
1
  0
VERTEX
  8
0
 10
215.000000
 20
110.559017
 42
-0.151918
  0
VERTEX
  8
0
 10
214.934461
 20
110.348290
 42
-0.038439
  0
VERTEX
  8
0
 10
214.706250
 20
110.066025
 42
-0.035638
  0
VERTEX
  8
0
 10
214.382774
 20
109.768994
 42
-0.029505
  0
VERTEX
  8
0
 10
214.000000
 20
109.500000
 42
-0.082592
  0
VERTEX
  8
0
 10
213.617900
 20
109.343488
 42
-0.161196
  0
VERTEX
  8
0
 10
213.293750
 20
109.374600
 42
-0.182303
  0
VERTEX
  8
0
 10
213.078288
 20
109.586039
 42
-0.108972
  0
VERTEX
  8
0
 10
213.000000
 20
109.940983
 42
-0.093332
  0
VERTEX
  8
0
 10
213.076123
 20
110.345238
 42
-0.096420
  0
VERTEX
  8
0
 10
213.293750
 20
110.688914
 42
-0.099167
  0
VERTEX
  8
0
 10
213.618444
 20
110.918938
 42
-0.105053
  0
VERTEX
  8
0
 10
214.000000
 20
111.000000
 42
-0.042167
  0
VERTEX
  8
0
 10
214.382849
 20
110.967655
 42
-0.061769
  0
VERTEX
  8
0
 10
214.706250
 20
110.870461
 42
-0.081139
  0
VERTEX
  8
0
 10
214.925540
 20
110.727648
 42
-0.210953
  0
SEQEND
  0
POLYLINE
  8
0
 66
1
 70
1
  0
VERTEX
  8
0
 10
250.000000
 20
106.000000
 42
-0.099038
  0
VERTEX
  8
0
 10
249.923658
 20
105.618362
 42
-0.097945
  0
VERTEX
  8
0
 10
249.706250
 20
105.293750
 42
-0.097945
  0
VERTEX
  8
0
 10
249.381638
 20
105.076342
 42
-0.099038
  0
VERTEX
  8
0
 10
249.000000
 20
105.000000
 42
-0.099038
  0
VERTEX
  8
0
 10
248.618362
 20
105.076342
 42
-0.097945
  0
VERTEX
  8
0
 10
248.293750
 20
105.293750
 42
-0.097945
  0
VERTEX
  8
0
 10
248.076342
 20
105.618362
 42
-0.099038
  0
VERTEX
  8
0
 10
248.000000
 20
106.000000
 42
-0.099038
  0
VERTEX
  8
0
 10
248.076342
 20
106.381638
 42
-0.097945
  0
VERTEX
  8
0
 10
248.293750
 20
106.706250
 42
-0.097945
  0
VERTEX
  8
0
 10
248.618362
 20
106.923658
 42
-0.099038
  0
VERTEX
  8
0
 10
249.000000
 20
107.000000
 42
-0.099038
  0
VERTEX
  8
0
 10
249.381638
 20
106.923658
 42
-0.097945
  0
VERTEX
  8
0
 10
249.706250
 20
106.706250
 42
-0.097945
  0
VERTEX
  8
0
 10
249.923658
 20
106.381638
 42
-0.099038
  0
SEQEND
  0
POLYLINE
  8
0
 66
1
 70
1
  0
VERTEX
  8
0
 10
207.741123
 20
86.486634
 42
-0.011797
  0
VERTEX
  8
0
 10
211.018234
 20
80.330665
 42
-0.044161
  0
VERTEX
  8
0
 10
212.631013
 20
76.261311
 42
-0.107610
  0
VERTEX
  8
0
 10
212.806187
 20
73.919819
 42
-0.375416
  0
VERTEX
  8
0
 10
211.750000
 20
73.006833
 42
-0.236554
  0
VERTEX
  8
0
 10
209.885057
 20
73.954239
 42
-0.027159
  0
VERTEX
  8
0
 10
207.219018
 20
78.006747
 42
-0.030074
  0
VERTEX
  8
0
 10
204.591749
 20
83.211645
 42
-0.027627
  0
VERTEX
  8
0
 10
202.523227
 20
88.841920
 42
-0.187673
  0
VERTEX
  8
0
 10
202.644145
 20
90.468873
 42
-0.408015
  0
VERTEX
  8
0
 10
203.713980
 20
90.860349
 42
-0.110951
  0
VERTEX
  8
0
 10
205.770977
 20
89.312767
 42
-0.048040
  0
SEQEND
  0
POLYLINE
  8
0
 66
1
 70
1
  0
VERTEX
  8
0
 10
196.250000
 20
74.337719
 42
-0.057986
  0
VERTEX
  8
0
 10
195.679992
 20
74.181385
 42
-0.037979
  0
VERTEX
  8
0
 10
195.000000
 20
74.129660
 42
-0.037979
  0
VERTEX
  8
0
 10
194.320008
 20
74.181385
 42
-0.057986
  0
VERTEX
  8
0
 10
193.750000
 20
74.337719
 42
-0.174857
  0
VERTEX
  8
0
 10
193.540618
 20
74.525001
 42
-0.447206
  0
VERTEX
  8
0
 10
193.601562
 20
74.693942
 42
-0.078554
  0
VERTEX
  8
0
 10
194.108560
 20
74.810911
 42
-0.017491
  0
VERTEX
  8
0
 10
195.000000
 20
74.842105
 42
-0.017491
  0
VERTEX
  8
0
 10
195.891440
 20
74.810911
 42
-0.078554
  0
VERTEX
  8
0
 10
196.398438
 20
74.693942
 42
-0.447206
  0
VERTEX
  8
0
 10
196.459382
 20
74.525001
 42
-0.174857
  0
SEQEND
  0
POLYLINE
  8
0
 66
1
 70
1
  0
VERTEX
  8
0
 10
189.761659
 20
73.312920
 42
-0.041951
  0
VERTEX
  8
0
 10
188.934218
 20
73.169017
 42
-0.020826
  0
VERTEX
  8
0
 10
187.869594
 20
73.119272
 42
-0.020511
  0
VERTEX
  8
0
 10
186.754739
 20
73.159391
 42
-0.028254
  0
VERTEX
  8
0
 10
185.761659
 20
73.292739
 42
-0.082665
  0
VERTEX
  8
0
 10
185.319562
 20
73.456590
 42
-0.671610
  0
VERTEX
  8
0
 10
185.339362
 20
73.605813
 42
-0.053901
  0
VERTEX
  8
0
 10
186.071102
 20
73.715166
 42
-0.008901
  0
VERTEX
  8
0
 10
187.500000
 20
73.747817
 42
-0.009782
  0
VERTEX
  8
0
 10
188.938425
 20
73.726931
 42
-0.038992
  0
VERTEX
  8
0
 10
189.814362
 20
73.628390
 42
-0.417468
  0
VERTEX
  8
0
 10
189.916221
 20
73.476221
 42
-0.285845
  0
SEQEND
  0
POLYLINE
  8
0
 66
1
 70
1
  0
VERTEX
  8
0
 10
199.416550
 20
71.356872
 42
-0.018368
  0
VERTEX
  8
0
 10
199.638206
 20
70.709063
 42
-0.026696
  0
VERTEX
  8
0
 10
199.781508
 20
70.122370
 42
-0.025108
  0
VERTEX
  8
0
 10
199.846267
 20
69.649064
 42
-0.232038
  0
VERTEX
  8
0
 10
199.773539
 20
69.461682
 42
-0.151915
  0
VERTEX
  8
0
 10
198.829203
 20
69.013601
 42
-0.001802
  0
VERTEX
  8
0
 10
191.967366
 20
68.061253
 42
-0.001318
  0
VERTEX
  8
0
 10
184.983639
 20
67.136363
 42
-0.232675
  0
VERTEX
  8
0
 10
184.296250
 20
67.370416
 42
0.255230
  0
VERTEX
  8
0
 10
183.936576
 20
67.476030
 42
0.008107
  0
VERTEX
  8
0
 10
182.403423
 20
67.116415
 42
0.013881
  0
VERTEX
  8
0
 10
180.561407
 20
66.597946
 42
0.008964
  0
VERTEX
  8
0
 10
178.457663
 20
65.900653
 42
-0.013068
  0
VERTEX
  8
0
 10
176.200747
 20
65.173094
 42
-0.012768
  0
VERTEX
  8
0
 10
173.891415
 20
64.558317
 42
-0.012760
  0
VERTEX
  8
0
 10
171.838311
 20
64.122586
 42
-0.045935
  0
VERTEX
  8
0
 10
170.506777
 20
64.000000
 42
0.064686
  0
VERTEX
  8
0
 10
169.032740
 20
63.808499
 42
0.009820
  0
VERTEX
  8
0
 10
166.171237
 20
62.991777
 42
0.010861
  0
VERTEX
  8
0
 10
162.815015
 20
61.881849
 42
0.009210
  0
VERTEX
  8
0
 10
159.318778
 20
60.567752
 42
0.000000
  0
VERTEX
  8
0
 10
150.673966
 20
57.135505
 42
0.000000
  0
VERTEX
  8
0
 10
153.586983
 20
59.898335
 42
-0.073450
  0
VERTEX
  8
0
 10
157.003331
 20
62.297831
 42
-0.021226
  0
VERTEX
  8
0
 10
162.898303
 20
64.953191
 42
-0.022048
  0
VERTEX
  8
0
 10
169.364724
 20
67.216552
 42
-0.037612
  0
VERTEX
  8
0
 10
174.950386
 20
68.450456
 42
0.019747
  0
VERTEX
  8
0
 10
176.760729
 20
68.783092
 42
0.020367
  0
VERTEX
  8
0
 10
178.520348
 20
69.254828
 42
0.020592
  0
VERTEX
  8
0
 10
180.005743
 20
69.786688
 42
0.077089
  0
VERTEX
  8
0
 10
180.853971
 20
70.293861
 42
-0.116504
  0
VERTEX
  8
0
 10
182.440923
 20
71.081693
 42
-0.015749
  0
VERTEX
  8
0
 10
186.111648
 20
71.815626
 42
-0.016645
  0
VERTEX
  8
0
 10
190.759050
 20
72.435314
 42
-0.010926
  0
VERTEX
  8
0
 10
196.143011
 20
72.852979
 42
-0.049838
  0
VERTEX
  8
0
 10
197.279138
 20
72.802930
 42
-0.071388
  0
VERTEX
  8
0
 10
198.245000
 20
72.518748
 42
-0.084125
  0
VERTEX
  8
0
 10
198.973146
 20
72.024287
 42
-0.110444
  0
SEQEND
  0
POLYLINE
  8
0
 66
1
 70
1
  0
VERTEX
  8
0
 10
147.722075
 20
54.250000
 42
-0.050296
  0
VERTEX
  8
0
 10
145.955419
 20
52.658088
 42
-0.018894
  0
VERTEX
  8
0
 10
143.193483
 20
50.788248
 42
-0.012101
  0
VERTEX
  8
0
 10
140.453205
 20
49.171086
 42
-0.572475
  0
VERTEX
  8
0
 10
140.000000
 20
49.437192
 42
-0.233619
  0
VERTEX
  8
0
 10
140.326643
 20
50.098132
 42
-0.003067
  0
VERTEX
  8
0
 10
144.098203
 20
52.945413
 42
-0.003994
  0
VERTEX
  8
0
 10
147.840789
 20
55.688712
 42
-0.157417
  0
VERTEX
  8
0
 10
148.805026
 20
56.000000
 42
-0.524867
  0
VERTEX
  8
0
 10
148.888890
 20
55.878491
 42
-0.047931
  0
VERTEX
  8
0
 10
148.695201
 20
55.485937
 42
-0.030783
  0
VERTEX
  8
0
 10
148.296272
 20
54.922026
 42
-0.014908
  0
SEQEND
  0
POLYLINE
  8
0
 66
1
 70
1
  0
VERTEX
  8
0
 10
208.500000
 20
53.000000
 42
0.000000
  0
VERTEX
  8
0
 10
204.500000
 20
52.283811
 42
0.000000
  0
VERTEX
  8
0
 10
209.075686
 20
52.141905
 42
-0.026789
  0
VERTEX
  8
0
 10
211.412934
 20
51.943778
 42
-0.056651
  0
VERTEX
  8
0
 10
213.171797
 20
51.492207
 42
-0.065220
  0
VERTEX
  8
0
 10
214.624197
 20
50.708634
 42
-0.047938
  0
VERTEX
  8
0
 10
216.000000
 20
49.500000
 42
0.000000
  0
VERTEX
  8
0
 10
218.348628
 20
47.000000
 42
0.000000
  0
VERTEX
  8
0
 10
208.924314
 20
46.938177
 42
0.022326
  0
VERTEX
  8
0
 10
195.813053
 20
46.266226
 42
0.018184
  0
VERTEX
  8
0
 10
181.874930
 20
44.412597
 42
0.018586
  0
VERTEX
  8
0
 10
168.589626
 20
41.639981
 42
0.029516
  0
VERTEX
  8
0
 10
157.500000
 20
38.186121
 42
0.000119
  0
VERTEX
  8
0
 10
154.039325
 20
36.878841
 42
0.000091
  0
VERTEX
  8
0
 10
150.253412
 20
35.446878
 42
0.000092
  0
VERTEX
  8
0
 10
146.707833
 20
34.104332
 42
0.000218
  0
VERTEX
  8
0
 10
144.064806
 20
33.101668
 42
-0.010985
  0
VERTEX
  8
0
 10
141.943538
 20
32.348776
 42
-0.016795
  0
VERTEX
  8
0
 10
140.070678
 20
31.799057
 42
-0.011423
  0
VERTEX
  8
0
 10
138.527340
 20
31.439212
 42
-0.253112
  0
VERTEX
  8
0
 10
138.100175
 20
31.566491
 42
-0.372516
  0
VERTEX
  8
0
 10
138.007337
 20
32.849817
 42
-0.074499
  0
VERTEX
  8
0
 10
139.774506
 20
34.601889
 42
-0.040176
  0
VERTEX
  8
0
 10
143.297953
 20
36.772209
 42
-0.013532
  0
VERTEX
  8
0
 10
148.749667
 20
39.370165
 42
0.004239
  0
VERTEX
  8
0
 10
152.235059
 20
40.952289
 42
0.007251
  0
VERTEX
  8
0
 10
155.112718
 20
42.339150
 42
0.002256
  0
VERTEX
  8
0
 10
157.525060
 20
43.558803
 42
0.509090
  0
VERTEX
  8
0
 10
157.559038
 20
43.774296
 42
0.264370
  0
VERTEX
  8
0
 10
157.280485
 20
43.850933
 42
0.010407
  0
VERTEX
  8
0
 10
156.221139
 20
43.558612
 42
0.016052
  0
VERTEX
  8
0
 10
154.940393
 20
43.131116
 42
0.010380
  0
VERTEX
  8
0
 10
153.485962
 20
42.558581
 42
-0.006268
  0
VERTEX
  8
0
 10
150.428596
 20
41.325921
 42
-0.086853
  0
VERTEX
  8
0
 10
149.264559
 20
41.093066
 42
-0.751450
  0
VERTEX
  8
0
 10
149.176468
 20
41.371805
 42
-0.017297
  0
VERTEX
  8
0
 10
151.000000
 20
42.498500
 42
-0.061983
  0
VERTEX
  8
0
 10
160.388137
 20
46.413117
 42
-0.018097
  0
VERTEX
  8
0
 10
175.635926
 20
50.064695
 42
-0.018757
  0
VERTEX
  8
0
 10
192.166095
 20
52.755320
 42
-0.029603
  0
VERTEX
  8
0
 10
206.500000
 20
53.683387
 42
-0.001113
  0
VERTEX
  8
0
 10
210.285377
 20
53.695657
 42
-0.082756
  0
VERTEX
  8
0
 10
210.889682
 20
53.595578
 42
-0.768211
  0
VERTEX
  8
0
 10
210.879299
 20
53.444385
 42
-0.003737
  0
SEQEND
  0
POLYLINE
  8
0
 66
1
 70
1
  0
VERTEX
  8
0
 10
149.918379
 20
7.426406
 42
-0.008357
  0
VERTEX
  8
0
 10
153.673541
 20
6.731522
 42
-0.048167
  0
VERTEX
  8
0
 10
155.604016
 20
6.142910
 42
-0.096746
  0
VERTEX
  8
0
 10
156.721869
 20
5.402346
 42
-0.107004
  0
VERTEX
  8
0
 10
157.431157
 20
4.318805
 42
-0.091601
  0
VERTEX
  8
0
 10
157.692608
 20
2.911723
 42
-0.339837
  0
VERTEX
  8
0
 10
157.178327
 20
2.241033
 42
-0.113499
  0
VERTEX
  8
0
 10
155.718852
 20
2.189320
 42
-0.011209
  0
VERTEX
  8
0
 10
152.264897
 20
2.936452
 42
-0.041677
  0
VERTEX
  8
0
 10
146.874293
 20
4.715377
 42
-0.030530
  0
VERTEX
  8
0
 10
141.235835
 20
7.530726
 42
-0.026362
  0
VERTEX
  8
0
 10
136.524949
 20
10.595978
 42
-0.201110
  0
VERTEX
  8
0
 10
135.184870
 20
12.809876
 42
-0.117457
  0
VERTEX
  8
0
 10
135.270369
 20
13.796319
 42
-0.391082
  0
VERTEX
  8
0
 10
135.790533
 20
14.083809
 42
-0.071163
  0
VERTEX
  8
0
 10
137.058539
 20
13.573276
 42
-0.004290
  0
VERTEX
  8
0
 10
140.603249
 20
11.479989
 42
0.017408
  0
VERTEX
  8
0
 10
143.061128
 20
10.114172
 42
0.015487
  0
VERTEX
  8
0
 10
145.704641
 20
8.865077
 42
0.015740
  0
VERTEX
  8
0
 10
148.152705
 20
7.890215
 42
0.045338
  0
SEQEND
  0
POLYLINE
  8
0
 66
1
 70
1
  0
VERTEX
  8
0
 10
285.000000
 20
228.622445
 42
0.184603
  0
VERTEX
  8
0
 10
285.081150
 20
228.410139
 42
0.013803
  0
VERTEX
  8
0
 10
285.514063
 20
227.952641
 42
0.017649
  0
VERTEX
  8
0
 10
286.079598
 20
227.425681
 42
0.012436
  0
VERTEX
  8
0
 10
286.750000
 20
226.872445
 42
0.001576
  0
VERTEX
  8
0
 10
287.879507
 20
225.992360
 42
0.377591
  0
VERTEX
  8
0
 10
288.000000
 20
226.000000
 42
0.377591
  0
VERTEX
  8
0
 10
288.007640
 20
226.120493
 42
0.001576
  0
VERTEX
  8
0
 10
287.127555
 20
227.250000
 42
0.017685
  0
VERTEX
  8
0
 10
286.236680
 20
228.306759
 42
0.065617
  0
VERTEX
  8
0
 10
285.573889
 20
228.869516
 42
0.241985
  0
VERTEX
  8
0
 10
285.193395
 20
228.906950
 42
0.307699
  0
SEQEND
  0
POLYLINE
  8
0
 66
1
 70
1
  0
VERTEX
  8
0
 10
69.500000
 20
179.450650
 42
0.038252
  0
VERTEX
  8
0
 10
67.390270
 20
178.157336
 42
0.044307
  0
VERTEX
  8
0
 10
65.611546
 20
176.613051
 42
0.049662
  0
VERTEX
  8
0
 10
64.382191
 20
175.055046
 42
0.143164
  0
VERTEX
  8
0
 10
64.000000
 20
173.747597
 42
0.356132
  0
VERTEX
  8
0
 10
64.247256
 20
173.444485
 42
0.035170
  0
VERTEX
  8
0
 10
65.248437
 20
173.311580
 42
0.032014
  0
VERTEX
  8
0
 10
66.620510
 20
173.314791
 42
0.018924
  0
VERTEX
  8
0
 10
68.250000
 20
173.485184
 42
-0.046328
  0
VERTEX
  8
0
 10
71.911481
 20
173.666369
 42
-0.031006
  0
VERTEX
  8
0
 10
76.085396
 20
173.225910
 42
-0.026542
  0
VERTEX
  8
0
 10
80.830763
 20
172.163751
 42
-0.016831
  0
VERTEX
  8
0
 10
86.233800
 20
170.451265
 42
0.029634
  0
VERTEX
  8
0
 10
89.678784
 20
169.455641
 42
0.091094
  0
VERTEX
  8
0
 10
92.094561
 20
169.357980
 42
0.223288
  0
VERTEX
  8
0
 10
93.249433
 20
170.115688
 42
0.233401
  0
VERTEX
  8
0
 10
93.374345
 20
171.466856
 42
0.148550
  0
VERTEX
  8
0
 10
92.342491
 20
172.792684
 42
0.038305
  0
VERTEX
  8
0
 10
89.988073
 20
174.197375
 42
0.027934
  0
VERTEX
  8
0
 10
86.416331
 20
175.730706
 42
0.010499
  0
VERTEX
  8
0
 10
81.261762
 20
177.488510
 42
-0.011919
  0
VERTEX
  8
0
 10
79.213872
 20
178.193374
 42
-0.015947
  0
VERTEX
  8
0
 10
77.394590
 20
178.935289
 42
-0.013116
  0
VERTEX
  8
0
 10
75.935526
 20
179.631730
 42
-0.137266
  0
VERTEX
  8
0
 10
75.452745
 20
180.076460
 42
0.162044
  0
VERTEX
  8
0
 10
74.635507
 20
180.759138
 42
0.120421
  0
VERTEX
  8
0
 10
73.462131
 20
180.918445
 42
0.069940
  0
VERTEX
  8
0
 10
71.809170
 20
180.506225
 42
0.022359
  0
SEQEND
  0
POLYLINE
  8
0
 66
1
 70
1
  0
VERTEX
  8
0
 10
244.418665
 20
176.834074
 42
0.039176
  0
VERTEX
  8
0
 10
243.105423
 20
176.379113
 42
0.027458
  0
VERTEX
  8
0
 10
241.706774
 20
175.674417
 42
0.027827
  0
VERTEX
  8
0
 10
240.434095
 20
174.845575
 42
0.050627
  0
VERTEX
  8
0
 10
239.513678
 20
174.015114
 42
0.046136
  0
VERTEX
  8
0
 10
238.520975
 20
172.691114
 42
0.403948
  0
VERTEX
  8
0
 10
238.664356
 20
172.039724
 42
0.310748
  0
VERTEX
  8
0
 10
239.447716
 20
172.052455
 42
0.041667
  0
VERTEX
  8
0
 10
240.776371
 20
173.176371
 42
-0.083583
  0
VERTEX
  8
0
 10
241.444347
 20
173.651855
 42
-0.155089
  0
VERTEX
  8
0
 10
242.096404
 20
173.746484
 42
-0.111298
  0
VERTEX
  8
0
 10
242.835049
 20
173.446916
 42
-0.032158
  0
VERTEX
  8
0
 10
243.805112
 20
172.676371
 42
0.072606
  0
VERTEX
  8
0
 10
245.636173
 20
171.448764
 42
0.125497
  0
VERTEX
  8
0
 10
247.423722
 20
171.093920
 42
0.120185
  0
VERTEX
  8
0
 10
249.217097
 20
171.634856
 42
0.063391
  0
VERTEX
  8
0
 10
251.066912
 20
173.066912
 42
-0.028360
  0
VERTEX
  8
0
 10
252.161132
 20
174.043576
 42
-0.102897
  0
VERTEX
  8
0
 10
252.989494
 20
174.461147
 42
-0.151328
  0
VERTEX
  8
0
 10
253.731676
 20
174.432534
 42
-0.088685
  0
VERTEX
  8
0
 10
254.511870
 20
173.990149
 42
0.078196
  0
VERTEX
  8
0
 10
255.206490
 20
173.576930
 42
0.042026
  0
VERTEX
  8
0
 10
256.162221
 20
173.284871
 42
0.040557
  0
VERTEX
  8
0
 10
257.211212
 20
173.146124
 42
0.050190
  0
VERTEX
  8
0
 10
258.194958
 20
173.195216
 42
0.000000
  0
VERTEX
  8
0
 10
260.500000
 20
173.543960
 42
0.000000
  0
VERTEX
  8
0
 10
258.264296
 20
174.799513
 42
0.059638
  0
VERTEX
  8
0
 10
255.276501
 20
176.036626
 42
0.031893
  0
VERTEX
  8
0
 10
251.362781
 20
176.869437
 42
0.031917
  0
VERTEX
  8
0
 10
247.432729
 20
177.192783
 42
0.068474
  0
SEQEND
  0
POLYLINE
  8
0
 66
1
 70
1
  0
VERTEX
  8
0
 10
42.604785
 20
164.412469
 42
0.041331
  0
VERTEX
  8
0
 10
42.374349
 20
163.622398
 42
0.016748
  0
VERTEX
  8
0
 10
42.186998
 20
162.515601
 42
0.016437
  0
VERTEX
  8
0
 10
42.063951
 20
161.305305
 42
0.020094
  0
VERTEX
  8
0
 10
42.031803
 20
160.168213
 42
0.006287
  0
VERTEX
  8
0
 10
42.074222
 20
158.436610
 42
0.277399
  0
VERTEX
  8
0
 10
42.264588
 20
158.144941
 42
0.348498
  0
VERTEX
  8
0
 10
42.570491
 20
158.213129
 42
0.008311
  0
VERTEX
  8
0
 10
43.531803
 20
159.441130
 42
0.064531
  0
VERTEX
  8
0
 10
44.497278
 20
161.132553
 42
0.073756
  0
VERTEX
  8
0
 10
44.944328
 20
162.939416
 42
0.090230
  0
VERTEX
  8
0
 10
44.813084
 20
164.485770
 42
0.190397
  0
VERTEX
  8
0
 10
44.104785
 20
165.435239
 42
0.169737
  0
VERTEX
  8
0
 10
43.716284
 20
165.521017
 42
0.120446
  0
VERTEX
  8
0
 10
43.294884
 20
165.363026
 42
0.091339
  0
VERTEX
  8
0
 10
42.902484
 20
164.974366
 42
0.060475
  0
SEQEND
  0
POLYLINE
  8
0
 66
1
 70
1
  0
VERTEX
  8
0
 10
67.750000
 20
164.428025
 42
0.087281
  0
VERTEX
  8
0
 10
65.410695
 20
162.570152
 42
0.355826
  0
VERTEX
  8
0
 10
65.340193
 20
160.883333
 42
0.142670
  0
VERTEX
  8
0
 10
67.527998
 20
159.235877
 42
0.019579
  0
VERTEX
  8
0
 10
73.000000
 20
157.405195
 42
0.015403
  0
VERTEX
  8
0
 10
74.138466
 20
157.110987
 42
0.009365
  0
VERTEX
  8
0
 10
75.500000
 20
156.830227
 42
0.009381
  0
VERTEX
  8
0
 10
76.862060
 20
156.602213
 42
0.016336
  0
VERTEX
  8
0
 10
78.000000
 20
156.471422
 42
0.003633
  0
VERTEX
  8
0
 10
84.312700
 20
156.000256
 42
0.018119
  0
VERTEX
  8
0
 10
87.862908
 20
155.890167
 42
0.026399
  0
VERTEX
  8
0
 10
90.032645
 20
156.016197
 42
0.293507
  0
VERTEX
  8
0
 10
90.675292
 20
156.537778
 42
0.201820
  0
VERTEX
  8
0
 10
90.543852
 20
158.172041
 42
0.036649
  0
VERTEX
  8
0
 10
88.914624
 20
160.818617
 42
0.038535
  0
VERTEX
  8
0
 10
86.860378
 20
163.247102
 42
0.134777
  0
VERTEX
  8
0
 10
85.100439
 20
164.263484
 42
0.025253
  0
VERTEX
  8
0
 10
84.322095
 20
164.425548
 42
0.063883
  0
VERTEX
  8
0
 10
83.745263
 20
164.441239
 42
0.166307
  0
VERTEX
  8
0
 10
83.468762
 20
164.314431
 42
0.355081
  0
VERTEX
  8
0
 10
83.440503
 20
164.096268
 42
-0.522202
  0
VERTEX
  8
0
 10
83.319831
 20
163.817809
 42
-0.020095
  0
VERTEX
  8
0
 10
82.009826
 20
163.607499
 42
-0.021003
  0
VERTEX
  8
0
 10
80.193856
 20
163.467395
 42
-0.011297
  0
VERTEX
  8
0
 10
77.947659
 20
163.439527
 42
-0.012929
  0
VERTEX
  8
0
 10
73.806342
 20
163.588861
 42
-0.134796
  0
VERTEX
  8
0
 10
72.211321
 20
164.134976
 42
-0.651727
  0
VERTEX
  8
0
 10
72.324473
 20
164.749002
 42
-0.027486
  0
VERTEX
  8
0
 10
75.250000
 20
165.276604
 42
0.001416
  0
VERTEX
  8
0
 10
77.324726
 20
165.540046
 42
0.685326
  0
VERTEX
  8
0
 10
77.347945
 20
165.634905
 42
0.145046
  0
VERTEX
  8
0
 10
77.098155
 20
165.717998
 42
0.000766
  0
VERTEX
  8
0
 10
74.500000
 20
165.799925
 42
0.033211
  0
VERTEX
  8
0
 10
72.767171
 20
165.736810
 42
0.024432
  0
VERTEX
  8
0
 10
70.867188
 20
165.446429
 42
0.024872
  0
VERTEX
  8
0
 10
69.089570
 20
164.992062
 42
0.049313
  0
SEQEND
  0
POLYLINE
  8
0
 66
1
 70
1
  0
VERTEX
  8
0
 10
76.244751
 20
159.500000
 42
-0.008244
  0
VERTEX
  8
0
 10
76.587189
 20
157.533378
 42
-0.316639
  0
VERTEX
  8
0
 10
76.400118
 20
157.153312
 42
-0.323559
  0
VERTEX
  8
0
 10
75.984217
 20
157.205892
 42
-0.008447
  0
VERTEX
  8
0
 10
74.562237
 20
158.580620
 42
-0.044372
  0
VERTEX
  8
0
 10
73.999387
 20
159.253335
 42
-0.055870
  0
VERTEX
  8
0
 10
73.612836
 20
159.967000
 42
-0.066704
  0
VERTEX
  8
0
 10
73.446604
 20
160.613782
 42
-0.169581
  0
VERTEX
  8
0
 10
73.549826
 20
161.080620
 42
-0.115316
  0
VERTEX
  8
0
 10
74.321900
 20
161.856109
 42
-0.279029
  0
VERTEX
  8
0
 10
75.099247
 20
161.866814
 42
-0.166140
  0
VERTEX
  8
0
 10
75.783452
 20
161.072524
 42
-0.048268
  0
SEQEND
  0
POLYLINE
  8
0
 66
1
 70
1
  0
VERTEX
  8
0
 10
88.000000
 20
158.500000
 42
-0.037417
  0
VERTEX
  8
0
 10
88.578847
 20
157.685618
 42
-0.333054
  0
VERTEX
  8
0
 10
88.537632
 20
157.274320
 42
-0.193794
  0
VERTEX
  8
0
 10
88.056100
 20
157.044628
 42
-0.015561
  0
VERTEX
  8
0
 10
86.622445
 20
157.000000
 42
-0.046640
  0
VERTEX
  8
0
 10
85.031768
 20
157.148701
 42
-0.173401
  0
VERTEX
  8
0
 10
84.176696
 20
157.649485
 42
-0.275273
  0
VERTEX
  8
0
 10
84.054976
 20
158.402012
 42
-0.102486
  0
VERTEX
  8
0
 10
84.666667
 20
159.333333
 42
-0.096175
  0
VERTEX
  8
0
 10
85.441361
 20
159.856126
 42
-0.163139
  0
VERTEX
  8
0
 10
86.213419
 20
159.916819
 42
-0.118966
  0
VERTEX
  8
0
 10
87.041159
 20
159.483995
 42
-0.039885
  0
SEQEND
  0
POLYLINE
  8
0
 66
1
 70
1
  0
VERTEX
  8
0
 10
112.000000
 20
155.000000
 42
0.099038
  0
VERTEX
  8
0
 10
112.076342
 20
154.618362
 42
0.097945
  0
VERTEX
  8
0
 10
112.293750
 20
154.293750
 42
0.097945
  0
VERTEX
  8
0
 10
112.618362
 20
154.076342
 42
0.099038
  0
VERTEX
  8
0
 10
113.000000
 20
154.000000
 42
0.099038
  0
VERTEX
  8
0
 10
113.381638
 20
154.076342
 42
0.097945
  0
VERTEX
  8
0
 10
113.706250
 20
154.293750
 42
0.097945
  0
VERTEX
  8
0
 10
113.923658
 20
154.618362
 42
0.099038
  0
VERTEX
  8
0
 10
114.000000
 20
155.000000
 42
0.099038
  0
VERTEX
  8
0
 10
113.923658
 20
155.381638
 42
0.097945
  0
VERTEX
  8
0
 10
113.706250
 20
155.706250
 42
0.097945
  0
VERTEX
  8
0
 10
113.381638
 20
155.923658
 42
0.099038
  0
VERTEX
  8
0
 10
113.000000
 20
156.000000
 42
0.099038
  0
VERTEX
  8
0
 10
112.618362
 20
155.923658
 42
0.097945
  0
VERTEX
  8
0
 10
112.293750
 20
155.706250
 42
0.097945
  0
VERTEX
  8
0
 10
112.076342
 20
155.381638
 42
0.099038
  0
SEQEND
  0
POLYLINE
  8
0
 66
1
 70
1
  0
VERTEX
  8
0
 10
79.500000
 20
153.000000
 42
0.000000
  0
VERTEX
  8
0
 10
74.500000
 20
152.314207
 42
0.000000
  0
VERTEX
  8
0
 10
79.750000
 20
152.157104
 42
0.017415
  0
VERTEX
  8
0
 10
81.787154
 20
152.167106
 42
0.029873
  0
VERTEX
  8
0
 10
83.476776
 20
152.335720
 42
0.031204
  0
VERTEX
  8
0
 10
84.710250
 20
152.613597
 42
0.333285
  0
VERTEX
  8
0
 10
85.000000
 20
153.000000
 42
0.023725
  0
VERTEX
  8
0
 10
84.982302
 20
153.372761
 42
0.048400
  0
VERTEX
  8
0
 10
84.926563
 20
153.660101
 42
0.085640
  0
VERTEX
  8
0
 10
84.845228
 20
153.824598
 42
0.394143
  0
VERTEX
  8
0
 10
84.750000
 20
153.842896
 42
-0.099636
  0
VERTEX
  8
0
 10
84.544948
 20
153.765144
 42
-0.001156
  0
VERTEX
  8
0
 10
83.104687
 20
153.530490
 42
-0.003470
  0
VERTEX
  8
0
 10
81.434424
 20
153.274203
 42
-0.002252
  0
SEQEND
  0
POLYLINE
  8
0
 66
1
 70
1
  0
VERTEX
  8
0
 10
220.157895
 20
149.000000
 42
0.017491
  0
VERTEX
  8
0
 10
220.189089
 20
148.108560
 42
0.078554
  0
VERTEX
  8
0
 10
220.306058
 20
147.601562
 42
0.447206
  0
VERTEX
  8
0
 10
220.474999
 20
147.540618
 42
0.174857
  0
VERTEX
  8
0
 10
220.662281
 20
147.750000
 42
0.057986
  0
VERTEX
  8
0
 10
220.818615
 20
148.320008
 42
0.037979
  0
VERTEX
  8
0
 10
220.870340
 20
149.000000
 42
0.037979
  0
VERTEX
  8
0
 10
220.818615
 20
149.679992
 42
0.057986
  0
VERTEX
  8
0
 10
220.662281
 20
150.250000
 42
0.174857
  0
VERTEX
  8
0
 10
220.474999
 20
150.459382
 42
0.447206
  0
VERTEX
  8
0
 10
220.306058
 20
150.398438
 42
0.078554
  0
VERTEX
  8
0
 10
220.189089
 20
149.891440
 42
0.017491
  0
SEQEND
  0
POLYLINE
  8
0
 66
1
 70
1
  0
VERTEX
  8
0
 10
41.664869
 20
145.826459
 42
0.048368
  0
VERTEX
  8
0
 10
41.380146
 20
144.052197
 42
0.151239
  0
VERTEX
  8
0
 10
41.661592
 20
142.890777
 42
0.183183
  0
VERTEX
  8
0
 10
42.501561
 20
142.224626
 42
0.077190
  0
VERTEX
  8
0
 10
43.947906
 20
142.000000
 42
-0.080078
  0
VERTEX
  8
0
 10
44.674009
 20
141.882960
 42
-0.113278
  0
VERTEX
  8
0
 10
45.231866
 20
141.544592
 42
-0.121248
  0
VERTEX
  8
0
 10
45.561746
 20
141.016859
 42
-0.100767
  0
VERTEX
  8
0
 10
45.638889
 20
140.357629
 42
0.073015
  0
VERTEX
  8
0
 10
45.679515
 20
139.696866
 42
0.070813
  0
VERTEX
  8
0
 10
45.907986
 20
139.068171
 42
0.075877
  0
VERTEX
  8
0
 10
46.282800
 20
138.566248
 42
0.110135
  0
VERTEX
  8
0
 10
46.750000
 20
138.274295
 42
0.232420
  0
VERTEX
  8
0
 10
47.630631
 20
138.378330
 42
0.332321
  0
VERTEX
  8
0
 10
47.893180
 20
139.087020
 42
0.087863
  0
VERTEX
  8
0
 10
47.122967
 20
140.633186
 42
0.027500
  0
VERTEX
  8
0
 10
45.463966
 20
142.633382
 42
-0.031494
  0
VERTEX
  8
0
 10
44.530315
 20
143.777514
 42
-0.039199
  0
VERTEX
  8
0
 10
43.821132
 20
144.952293
 42
-0.043375
  0
VERTEX
  8
0
 10
43.406710
 20
145.995741
 42
-0.165941
  0
VERTEX
  8
0
 10
43.432581
 20
146.684904
 42
0.056140
  0
VERTEX
  8
0
 10
43.563439
 20
147.188460
 42
0.100410
  0
VERTEX
  8
0
 10
43.538719
 20
147.613691
 42
0.147374
  0
VERTEX
  8
0
 10
43.367369
 20
147.892632
 42
0.183854
  0
VERTEX
  8
0
 10
43.085247
 20
148.000000
 42
0.195922
  0
VERTEX
  8
0
 10
42.718399
 20
147.850515
 42
0.054576
  0
VERTEX
  8
0
 10
42.316567
 20
147.361522
 42
0.046318
  0
VERTEX
  8
0
 10
41.944994
 20
146.658561
 42
0.034490
  0
SEQEND
  0
POLYLINE
  8
0
 66
1
 70
1
  0
VERTEX
  8
0
 10
123.768450
 20
146.831550
 42
0.074100
  0
VERTEX
  8
0
 10
124.270088
 20
146.460029
 42
0.058506
  0
VERTEX
  8
0
 10
124.899953
 20
146.213800
 42
0.059552
  0
VERTEX
  8
0
 10
125.556574
 20
146.123400
 42
0.085105
  0
VERTEX
  8
0
 10
126.136710
 20
146.212237
 42
0.170804
  0
VERTEX
  8
0
 10
126.424773
 20
146.435848
 42
0.353106
  0
VERTEX
  8
0
 10
126.396366
 20
146.701526
 42
0.106885
  0
VERTEX
  8
0
 10
125.940026
 20
146.995597
 42
0.025930
  0
VERTEX
  8
0
 10
125.080159
 20
147.268787
 42
0.013933
  0
VERTEX
  8
0
 10
123.995419
 20
147.520386
 42
0.131195
  0
VERTEX
  8
0
 10
123.522275
 20
147.491559
 42
0.470166
  0
VERTEX
  8
0
 10
123.436586
 20
147.270670
 42
0.069225
  0
SEQEND
  0
POLYLINE
  8
0
 66
1
 70
1
  0
VERTEX
  8
0
 10
212.528443
 20
146.827319
 42
0.108038
  0
VERTEX
  8
0
 10
212.381632
 20
145.984519
 42
0.078456
  0
VERTEX
  8
0
 10
212.570797
 20
145.048299
 42
0.065114
  0
VERTEX
  8
0
 10
213.091401
 20
144.062802
 42
0.042363
  0
VERTEX
  8
0
 10
213.922681
 20
143.077319
 42
-0.143636
  0
VERTEX
  8
0
 10
215.651976
 20
139.912451
 42
-0.219032
  0
VERTEX
  8
0
 10
214.990610
 20
136.905469
 42
-0.156785
  0
VERTEX
  8
0
 10
211.897516
 20
134.734391
 42
-0.075385
  0
VERTEX
  8
0
 10
207.054235
 20
134.000000
 42
0.020611
  0
VERTEX
  8
0
 10
204.797175
 20
133.906922
 42
0.108166
  0
VERTEX
  8
0
 10
203.617176
 20
133.544586
 42
0.150933
  0
VERTEX
  8
0
 10
202.898881
 20
132.785464
 42
0.053116
  0
VERTEX
  8
0
 10
202.376050
 20
131.362168
 42
0.048713
  0
VERTEX
  8
0
 10
202.167760
 20
129.970393
 42
0.104520
  0
VERTEX
  8
0
 10
202.336741
 20
128.903465
 42
0.099191
  0
VERTEX
  8
0
 10
202.931627
 20
127.961097
 42
0.040953
  0
VERTEX
  8
0
 10
204.062866
 20
126.952580
 42
0.018626
  0
VERTEX
  8
0
 10
205.412857
 20
126.011054
 42
0.121413
  0
VERTEX
  8
0
 10
206.189721
 20
125.744864
 42
0.196166
  0
VERTEX
  8
0
 10
206.810673
 20
125.936231
 42
0.063351
  0
VERTEX
  8
0
 10
207.485308
 20
126.649021
 42
-0.151013
  0
VERTEX
  8
0
 10
208.258419
 20
127.224231
 42
-0.170433
  0
VERTEX
  8
0
 10
209.180487
 20
127.226334
 42
-0.068635
  0
VERTEX
  8
0
 10
210.538873
 20
126.532223
 42
-0.010202
  0
VERTEX
  8
0
 10
213.029440
 20
124.716875
 42
0.010122
  0
VERTEX
  8
0
 10
216.251244
 20
122.367752
 42
0.017262
  0
VERTEX
  8
0
 10
219.046091
 20
120.555579
 42
0.017266
  0
VERTEX
  8
0
 10
221.317379
 20
119.296422
 42
0.118467
  0
VERTEX
  8
0
 10
222.550890
 20
119.000000
 42
0.302929
  0
VERTEX
  8
0
 10
222.773148
 20
119.148262
 42
0.078842
  0
VERTEX
  8
0
 10
222.879181
 20
119.587500
 42
0.053423
  0
VERTEX
  8
0
 10
222.861592
 20
120.233256
 42
0.030460
  0
VERTEX
  8
0
 10
222.710251
 20
121.000000
 42
-0.050442
  0
VERTEX
  8
0
 10
222.557492
 20
121.977764
 42
-0.180292
  0
VERTEX
  8
0
 10
222.742949
 20
122.571882
 42
-0.179731
  0
VERTEX
  8
0
 10
223.272529
 20
122.900820
 42
-0.050079
  0
VERTEX
  8
0
 10
224.260286
 20
123.000000
 42
0.034920
  0
VERTEX
  8
0
 10
225.718073
 20
123.101935
 42
0.629470
  0
VERTEX
  8
0
 10
225.826075
 20
123.441951
 42
0.139859
  0
VERTEX
  8
0
 10
225.013581
 20
123.861671
 42
0.016404
  0
VERTEX
  8
0
 10
222.981938
 20
124.202274
 42
-0.041707
  0
VERTEX
  8
0
 10
221.859449
 20
124.449358
 42
-0.022628
  0
VERTEX
  8
0
 10
220.528869
 20
124.927954
 42
-0.022394
  0
VERTEX
  8
0
 10
219.210101
 20
125.541265
 42
-0.032788
  0
VERTEX
  8
0
 10
218.116341
 20
126.205314
 42
-0.018465
  0
VERTEX
  8
0
 10
216.761256
 20
127.231440
 42
-0.161300
  0
VERTEX
  8
0
 10
216.362269
 20
127.859563
 42
-0.223037
  0
VERTEX
  8
0
 10
216.485844
 20
128.492449
 42
-0.038438
  0
VERTEX
  8
0
 10
217.302583
 20
129.445440
 42
-0.038304
  0
VERTEX
  8
0
 10
218.024109
 20
130.064142
 42
-0.101633
  0
VERTEX
  8
0
 10
218.638644
 20
130.345748
 42
-0.162809
  0
VERTEX
  8
0
 10
219.137315
 20
130.297894
 42
-0.150820
  0
VERTEX
  8
0
 10
219.525270
 20
129.959112
 42
0.125771
  0
VERTEX
  8
0
 10
219.915216
 20
129.583262
 42
0.157581
  0
VERTEX
  8
0
 10
220.404492
 20
129.481952
 42
0.106241
  0
VERTEX
  8
0
 10
221.011479
 20
129.683172
 42
0.039555
  0
VERTEX
  8
0
 10
221.751649
 20
130.201442
 42
-0.024116
  0
VERTEX
  8
0
 10
222.582920
 20
130.822568
 42
-0.144056
  0
VERTEX
  8
0
 10
223.093025
 20
130.984475
 42
-0.245114
  0
VERTEX
  8
0
 10
223.458232
 20
130.803738
 42
-0.076612
  0
VERTEX
  8
0
 10
223.748032
 20
130.243769
 42
0.106800
  0
VERTEX
  8
0
 10
223.999577
 20
129.821681
 42
0.129572
  0
VERTEX
  8
0
 10
224.387963
 20
129.576634
 42
0.125217
  0
VERTEX
  8
0
 10
224.857357
 20
129.550316
 42
0.095991
  0
VERTEX
  8
0
 10
225.335410
 20
129.743769
 42
-0.059951
  0
VERTEX
  8
0
 10
226.112819
 20
130.125228
 42
-0.006074
  0
VERTEX
  8
0
 10
228.067277
 20
130.782160
 42
-0.007536
  0
VERTEX
  8
0
 10
230.425705
 20
131.504057
 42
-0.005936
  0
VERTEX
  8
0
 10
233.000000
 20
132.216775
 42
0.000000
  0
VERTEX
  8
0
 10
239.500000
 20
133.933549
 42
0.000000
  0
VERTEX
  8
0
 10
234.000000
 20
133.470056
 42
-0.001539
  0
VERTEX
  8
0
 10
223.426882
 20
132.611817
 42
-0.014851
  0
VERTEX
  8
0
 10
218.924615
 20
132.394570
 42
-0.089286
  0
VERTEX
  8
0
 10
217.434353
 20
132.634434
 42
-0.641097
  0
VERTEX
  8
0
 10
217.385149
 20
133.162395
 42
-0.056992
  0
VERTEX
  8
0
 10
218.404870
 20
133.605213
 42
-0.017940
  0
VERTEX
  8
0
 10
220.014106
 20
134.033213
 42
-0.017661
  0
VERTEX
  8
0
 10
221.858128
 20
134.385468
 42
-0.018703
  0
VERTEX
  8
0
 10
223.687559
 20
134.598698
 42
0.013820
  0
VERTEX
  8
0
 10
225.466509
 20
134.788461
 42
0.015661
  0
VERTEX
  8
0
 10
227.159043
 20
135.070688
 42
0.014989
  0
VERTEX
  8
0
 10
228.574484
 20
135.396920
 42
0.078886
  0
VERTEX
  8
0
 10
229.302411
 20
135.716721
 42
-0.052899
  0
VERTEX
  8
0
 10
229.903077
 20
136.018592
 42
-0.024502
  0
VERTEX
  8
0
 10
230.735708
 20
136.286226
 42
-0.023946
  0
VERTEX
  8
0
 10
231.646486
 20
136.484282
 42
-0.030636
  0
VERTEX
  8
0
 10
232.500000
 20
136.574223
 42
0.017266
  0
VERTEX
  8
0
 10
233.539791
 20
136.655768
 42
0.005176
  0
VERTEX
  8
0
 10
235.116696
 20
136.850941
 42
0.005182
  0
VERTEX
  8
0
 10
236.883226
 20
137.106838
 42
0.005595
  0
VERTEX
  8
0
 10
238.599390
 20
137.393328
 42
0.015506
  0
VERTEX
  8
0
 10
240.972081
 20
137.893122
 42
0.122899
  0
VERTEX
  8
0
 10
241.958031
 20
138.410423
 42
0.204981
  0
VERTEX
  8
0
 10
242.331264
 20
139.205959
 42
0.055857
  0
VERTEX
  8
0
 10
242.221725
 20
140.620452
 42
0.043229
  0
VERTEX
  8
0
 10
241.936994
 20
141.628495
 42
0.093666
  0
VERTEX
  8
0
 10
241.518828
 20
142.312876
 42
0.140504
  0
VERTEX
  8
0
 10
241.001271
 20
142.634734
 42
0.162298
  0
VERTEX
  8
0
 10
240.423263
 20
142.608927
 42
-0.069230
  0
VERTEX
  8
0
 10
239.885192
 20
142.483980
 42
-0.269318
  0
VERTEX
  8
0
 10
239.587197
 20
142.622898
 42
-0.203279
  0
VERTEX
  8
0
 10
239.508414
 20
142.997429
 42
-0.043187
  0
VERTEX
  8
0
 10
239.696697
 20
143.651988
 42
0.056678
  0
VERTEX
  8
0
 10
239.900117
 20
144.438230
 42
0.461149
  0
VERTEX
  8
0
 10
239.683940
 20
144.682611
 42
0.109240
  0
VERTEX
  8
0
 10
239.045701
 20
144.529647
 42
0.006101
  0
VERTEX
  8
0
 10
237.209181
 20
143.608172
 42
0.015928
  0
VERTEX
  8
0
 10
235.983512
 20
142.924026
 42
0.017793
  0
VERTEX
  8
0
 10
234.849428
 20
142.186607
 42
0.017357
  0
VERTEX
  8
0
 10
233.933275
 20
141.494712
 42
0.084117
  0
VERTEX
  8
0
 10
233.504395
 20
141.007112
 42
-0.202955
  0
VERTEX
  8
0
 10
232.326847
 20
140.172211
 42
-0.096354
  0
VERTEX
  8
0
 10
230.433016
 20
140.126438
 42
-0.065355
  0
VERTEX
  8
0
 10
227.963619
 20
140.886190
 42
-0.033536
  0
VERTEX
  8
0
 10
225.110422
 20
142.430294
 42
0.022740
  0
VERTEX
  8
0
 10
223.498835
 20
143.347950
 42
0.039985
  0
VERTEX
  8
0
 10
222.082916
 20
143.933656
 42
0.049660
  0
VERTEX
  8
0
 10
220.969205
 20
144.174600
 42
0.228670
  0
VERTEX
  8
0
 10
220.363047
 20
143.963047
 42
-0.195043
  0
VERTEX
  8
0
 10
219.026223
 20
143.397613
 42
-0.096202
  0
VERTEX
  8
0
 10
217.179513
 20
143.727777
 42
-0.085158
  0
VERTEX
  8
0
 10
215.387061
 20
144.798906
 42
-0.106923
  0
VERTEX
  8
0
 10
214.219845
 20
146.336798
 42
0.012435
  0
VERTEX
  8
0
 10
213.613867
 20
147.556664
 42
0.203390
  0
VERTEX
  8
0
 10
213.267591
 20
147.838736
 42
0.351214
  0
VERTEX
  8
0
 10
212.947280
 20
147.705853
 42
0.028591
  0
SEQEND
  0
POLYLINE
  8
0
 66
1
 70
1
  0
VERTEX
  8
0
 10
213.991641
 20
130.973672
 42
-0.038995
  0
VERTEX
  8
0
 10
212.242316
 20
130.049965
 42
-0.197650
  0
VERTEX
  8
0
 10
211.162115
 20
130.030946
 42
-0.440347
  0
VERTEX
  8
0
 10
210.919280
 20
130.659757
 42
-0.074279
  0
VERTEX
  8
0
 10
211.750000
 20
131.850000
 42
-0.042711
  0
VERTEX
  8
0
 10
212.534196
 20
132.548688
 42
-0.076687
  0
VERTEX
  8
0
 10
213.293372
 20
132.952993
 42
-0.105622
  0
VERTEX
  8
0
 10
213.962087
 20
133.037575
 42
-0.163355
  0
VERTEX
  8
0
 10
214.491641
 20
132.808359
 42
-0.107780
  0
VERTEX
  8
0
 10
214.810341
 20
132.365432
 42
-0.170383
  0
VERTEX
  8
0
 10
214.843409
 20
131.903473
 42
-0.131530
  0
VERTEX
  8
0
 10
214.570148
 20
131.434540
 42
-0.054514
  0
SEQEND
  0
POLYLINE
  8
0
 66
1
 70
1
  0
VERTEX
  8
0
 10
111.876468
 20
138.545114
 42
0.028079
  0
VERTEX
  8
0
 10
112.690436
 20
137.038876
 42
0.067827
  0
VERTEX
  8
0
 10
113.491650
 20
136.062210
 42
0.103145
  0
VERTEX
  8
0
 10
114.289028
 20
135.581247
 42
0.157653
  0
VERTEX
  8
0
 10
115.089804
 20
135.561657
 42
-0.123109
  0
VERTEX
  8
0
 10
115.816306
 20
135.593125
 42
-0.097326
  0
VERTEX
  8
0
 10
116.544448
 20
135.288921
 42
-0.080175
  0
VERTEX
  8
0
 10
117.215674
 20
134.663874
 42
-0.053010
  0
VERTEX
  8
0
 10
117.772124
 20
133.766543
 42
0.022641
  0
VERTEX
  8
0
 10
118.198745
 20
132.975181
 42
0.086550
  0
VERTEX
  8
0
 10
118.563594
 20
132.552741
 42
0.356692
  0
VERTEX
  8
0
 10
118.798331
 20
132.552624
 42
0.211761
  0
VERTEX
  8
0
 10
118.932320
 20
132.817256
 42
0.170153
  0
VERTEX
  8
0
 10
118.426634
 20
134.538549
 42
0.016665
  0
VERTEX
  8
0
 10
115.745748
 20
138.020450
 42
0.015500
  0
VERTEX
  8
0
 10
112.836933
 20
141.333822
 42
0.203565
  0
VERTEX
  8
0
 10
111.376468
 20
141.981974
 42
0.318605
  0
VERTEX
  8
0
 10
111.020194
 20
141.737799
 42
0.125035
  0
VERTEX
  8
0
 10
110.954756
 20
141.112739
 42
0.055993
  0
VERTEX
  8
0
 10
111.232922
 20
140.051459
 42
0.017775
  0
SEQEND
  0
POLYLINE
  8
0
 66
1
 70
1
  0
VERTEX
  8
0
 10
86.962529
 20
132.260350
 42
0.097912
  0
VERTEX
  8
0
 10
88.282492
 20
130.526104
 42
0.039232
  0
VERTEX
  8
0
 10
90.673537
 20
128.721244
 42
0.035232
  0
VERTEX
  8
0
 10
93.120991
 20
127.391388
 42
0.312818
  0
VERTEX
  8
0
 10
94.265130
 20
127.598464
 42
-0.240814
  0
VERTEX
  8
0
 10
94.654433
 20
127.724358
 42
-0.020044
  0
VERTEX
  8
0
 10
95.727210
 20
127.506961
 42
-0.023248
  0
VERTEX
  8
0
 10
97.047159
 20
127.118081
 42
-0.015696
  0
VERTEX
  8
0
 10
98.514038
 20
126.558581
 42
0.019241
  0
VERTEX
  8
0
 10
100.112275
 20
125.961917
 42
0.016665
  0
VERTEX
  8
0
 10
101.829664
 20
125.457833
 42
0.016983
  0
VERTEX
  8
0
 10
103.416819
 20
125.105899
 42
0.046094
  0
VERTEX
  8
0
 10
104.563107
 20
125.000000
 42
-0.040166
  0
VERTEX
  8
0
 10
105.496773
 20
124.924875
 42
-0.042905
  0
VERTEX
  8
0
 10
106.385310
 20
124.701458
 42
-0.047052
  0
VERTEX
  8
0
 10
107.106360
 20
124.374142
 42
-0.124908
  0
VERTEX
  8
0
 10
107.510081
 20
123.983688
 42
0.083440
  0
VERTEX
  8
0
 10
107.815187
 20
123.635866
 42
0.092847
  0
VERTEX
  8
0
 10
108.206842
 20
123.422376
 42
0.100558
  0
VERTEX
  8
0
 10
108.623007
 20
123.374953
 42
0.117181
  0
VERTEX
  8
0
 10
109.000000
 20
123.500000
 42
-0.101307
  0
VERTEX
  8
0
 10
109.370478
 20
123.635928
 42
-0.098451
  0
VERTEX
  8
0
 10
109.768584
 20
123.617384
 42
-0.097394
  0
VERTEX
  8
0
 10
110.132738
 20
123.447284
 42
-0.096815
  0
VERTEX
  8
0
 10
110.406265
 20
123.151666
 42
0.195051
  0
VERTEX
  8
0
 10
111.017522
 20
122.704155
 42
0.049775
  0
VERTEX
  8
0
 10
112.255862
 20
122.520513
 42
0.037176
  0
VERTEX
  8
0
 10
113.994774
 20
122.566713
 42
0.016919
  0
VERTEX
  8
0
 10
116.250000
 20
122.872377
 42
0.204832
  0
VERTEX
  8
0
 10
116.538026
 20
123.058061
 42
0.061647
  0
VERTEX
  8
0
 10
116.779687
 20
123.532674
 42
0.050507
  0
VERTEX
  8
0
 10
116.944985
 20
124.188523
 42
0.036508
  0
VERTEX
  8
0
 10
117.000000
 20
124.940983
 42
-0.046881
  0
VERTEX
  8
0
 10
117.074077
 20
125.729296
 42
-0.046318
  0
VERTEX
  8
0
 10
117.293750
 20
126.493350
 42
-0.050262
  0
VERTEX
  8
0
 10
117.616444
 20
127.123976
 42
-0.111412
  0
VERTEX
  8
0
 10
118.000000
 20
127.500000
 42
0.067923
  0
VERTEX
  8
0
 10
118.382546
 20
127.815222
 42
0.052403
  0
VERTEX
  8
0
 10
118.706250
 20
128.248868
 42
0.053435
  0
VERTEX
  8
0
 10
118.926276
 20
128.728927
 42
0.080924
  0
VERTEX
  8
0
 10
119.000000
 20
129.181462
 42
0.096802
  0
VERTEX
  8
0
 10
118.920265
 20
129.589448
 42
0.299755
  0
VERTEX
  8
0
 10
118.699966
 20
129.740917
 42
0.151038
  0
VERTEX
  8
0
 10
118.327217
 20
129.633753
 42
0.028250
  0
VERTEX
  8
0
 10
117.748605
 20
129.206324
 42
-0.157408
  0
VERTEX
  8
0
 10
115.299489
 20
128.226778
 42
-0.013714
  0
VERTEX
  8
0
 10
108.514821
 20
127.949869
 42
-0.019161
  0
VERTEX
  8
0
 10
101.320200
 20
128.129430
 42
-0.034950
  0
VERTEX
  8
0
 10
95.500000
 20
128.908952
 42
-0.020524
  0
VERTEX
  8
0
 10
92.824864
 20
129.575115
 42
-0.031653
  0
VERTEX
  8
0
 10
90.585009
 20
130.388624
 42
-0.037436
  0
VERTEX
  8
0
 10
88.836613
 20
131.313364
 42
-0.078696
  0
VERTEX
  8
0
 10
87.682885
 20
132.322024
 42
0.000000
  0
VERTEX
  8
0
 10
85.865770
 20
134.500000
 42
0.000000
  0
SEQEND
  0
POLYLINE
  8
0
 66
1
 70
1
  0
VERTEX
  8
0
 10
47.558870
 20
128.468197
 42
0.023140
  0
VERTEX
  8
0
 10
46.879145
 20
127.902802
 42
0.065258
  0
VERTEX
  8
0
 10
46.481698
 20
127.431283
 42
0.206301
  0
VERTEX
  8
0
 10
46.434312
 20
127.143397
 42
0.344492
  0
VERTEX
  8
0
 10
46.617741
 20
127.000000
 42
0.091785
  0
VERTEX
  8
0
 10
47.129393
 20
127.094722
 42
0.024227
  0
VERTEX
  8
0
 10
47.894198
 20
127.431283
 42
0.023749
  0
VERTEX
  8
0
 10
48.742315
 20
127.906233
 42
0.022398
  0
VERTEX
  8
0
 10
49.558870
 20
128.468197
 42
0.023140
  0
VERTEX
  8
0
 10
50.238596
 20
129.033591
 42
0.065258
  0
VERTEX
  8
0
 10
50.636043
 20
129.505110
 42
0.206301
  0
VERTEX
  8
0
 10
50.683429
 20
129.792996
 42
0.344492
  0
VERTEX
  8
0
 10
50.500000
 20
129.936393
 42
0.091785
  0
VERTEX
  8
0
 10
49.988347
 20
129.841671
 42
0.024227
  0
VERTEX
  8
0
 10
49.223543
 20
129.505110
 42
0.023749
  0
VERTEX
  8
0
 10
48.375426
 20
129.030160
 42
0.022398
  0
SEQEND
  0
POLYLINE
  8
0
 66
1
 70
1
  0
VERTEX
  8
0
 10
118.226190
 20
120.421277
 42
0.025624
  0
VERTEX
  8
0
 10
118.922345
 20
119.765278
 42
0.040938
  0
VERTEX
  8
0
 10
119.585822
 20
119.288962
 42
0.049795
  0
VERTEX
  8
0
 10
120.133352
 20
119.030321
 42
0.289503
  0
VERTEX
  8
0
 10
120.430712
 20
119.097379
 42
0.342991
  0
VERTEX
  8
0
 10
120.465039
 20
119.371532
 42
0.056956
  0
VERTEX
  8
0
 10
120.120955
 20
119.824095
 42
0.042367
  0
VERTEX
  8
0
 10
119.515455
 20
120.357587
 42
0.024195
  0
VERTEX
  8
0
 10
118.704522
 20
120.899609
 42
0.001303
  0
VERTEX
  8
0
 10
117.199081
 20
121.798352
 42
0.342804
  0
VERTEX
  8
0
 10
117.057007
 20
121.780515
 42
0.406252
  0
VERTEX
  8
0
 10
117.055240
 20
121.650819
 42
0.001428
  0
SEQEND
  0
POLYLINE
  8
0
 66
1
 70
1
  0
VERTEX
  8
0
 10
76.000000
 20
117.466756
 42
0.124924
  0
VERTEX
  8
0
 10
76.457157
 20
115.665572
 42
0.010326
  0
VERTEX
  8
0
 10
78.869650
 20
111.430202
 42
0.013915
  0
VERTEX
  8
0
 10
81.480400
 20
107.323256
 42
0.056580
  0
VERTEX
  8
0
 10
83.401015
 20
105.075686
 42
0.007845
  0
VERTEX
  8
0
 10
85.327079
 20
103.334769
 42
0.357803
  0
VERTEX
  8
0
 10
85.825910
 20
103.318780
 42
0.323173
  0
VERTEX
  8
0
 10
85.976634
 20
103.823011
 42
0.007157
  0
VERTEX
  8
0
 10
85.057568
 20
106.348584
 42
-0.015464
  0
VERTEX
  8
0
 10
84.520267
 20
107.905064
 42
-0.307510
  0
VERTEX
  8
0
 10
84.659588
 20
108.363236
 42
-0.233771
  0
VERTEX
  8
0
 10
85.184267
 20
108.480367
 42
-0.009912
  0
VERTEX
  8
0
 10
87.076863
 20
107.977956
 42
0.018122
  0
VERTEX
  8
0
 10
88.275537
 20
107.680731
 42
0.060829
  0
VERTEX
  8
0
 10
89.079995
 20
107.611936
 42
0.194288
  0
VERTEX
  8
0
 10
89.428493
 20
107.767563
 42
0.342687
  0
VERTEX
  8
0
 10
89.460278
 20
108.064272
 42
0.093170
  0
VERTEX
  8
0
 10
89.133490
 20
108.422612
 42
0.052969
  0
VERTEX
  8
0
 10
88.628556
 20
108.725130
 42
0.050372
  0
VERTEX
  8
0
 10
88.035076
 20
108.930588
 42
0.058221
  0
VERTEX
  8
0
 10
87.440983
 20
109.000000
 42
-0.065416
  0
VERTEX
  8
0
 10
86.890108
 20
109.072382
 42
-0.082820
  0
VERTEX
  8
0
 10
86.423289
 20
109.284531
 42
-0.099065
  0
VERTEX
  8
0
 10
86.111034
 20
109.599234
 42
-0.147048
  0
VERTEX
  8
0
 10
86.000000
 20
109.968615
 42
0.173789
  0
VERTEX
  8
0
 10
85.884154
 20
110.291844
 42
0.149600
  0
VERTEX
  8
0
 10
85.581903
 20
110.492261
 42
0.104864
  0
VERTEX
  8
0
 10
85.121532
 20
110.528963
 42
0.059319
  0
VERTEX
  8
0
 10
84.576692
 20
110.391056
 42
-0.252941
  0
VERTEX
  8
0
 10
83.164767
 20
110.574329
 42
-0.115915
  0
VERTEX
  8
0
 10
81.908946
 20
112.019450
 42
-0.118448
  0
VERTEX
  8
0
 10
81.443688
 20
113.850489
 42
-0.263414
  0
VERTEX
  8
0
 10
82.113216
 20
115.069972
 42
-0.091256
  0
VERTEX
  8
0
 10
82.717725
 20
115.305528
 42
-0.071409
  0
VERTEX
  8
0
 10
83.422406
 20
115.338660
 42
-0.069845
  0
VERTEX
  8
0
 10
84.123254
 20
115.170817
 42
-0.079719
  0
VERTEX
  8
0
 10
84.716462
 20
114.820353
 42
0.026440
  0
VERTEX
  8
0
 10
85.322736
 20
114.369090
 42
0.154275
  0
VERTEX
  8
0
 10
85.700283
 20
114.260176
 42
0.306462
  0
VERTEX
  8
0
 10
85.921837
 20
114.418356
 42
0.089239
  0
VERTEX
  8
0
 10
86.000000
 20
114.852813
 42
-0.337517
  0
VERTEX
  8
0
 10
86.356420
 20
115.320668
 42
-0.042484
  0
VERTEX
  8
0
 10
87.689862
 20
115.568597
 42
-0.030070
  0
VERTEX
  8
0
 10
89.763985
 20
115.649102
 42
-0.010493
  0
VERTEX
  8
0
 10
92.750000
 20
115.522679
 42
0.000000
  0
VERTEX
  8
0
 10
99.500000
 20
115.094842
 42
0.000000
  0
VERTEX
  8
0
 10
94.500000
 20
116.503288
 42
0.041324
  0
VERTEX
  8
0
 10
90.018365
 20
117.374374
 42
0.014336
  0
VERTEX
  8
0
 10
83.449408
 20
117.905663
 42
0.006001
  0
VERTEX
  8
0
 10
76.728240
 20
118.174864
 42
0.422447
  0
SEQEND
  0
POLYLINE
  8
0
 66
1
 70
1
  0
VERTEX
  8
0
 10
107.864275
 20
116.530942
 42
-0.136277
  0
VERTEX
  8
0
 10
107.516715
 20
116.334466
 42
-0.013491
  0
VERTEX
  8
0
 10
106.571373
 20
116.126396
 42
-0.016222
  0
VERTEX
  8
0
 10
105.409595
 20
115.942215
 42
-0.012184
  0
VERTEX
  8
0
 10
104.121585
 20
115.812441
 42
0.020953
  0
VERTEX
  8
0
 10
102.832740
 20
115.659713
 42
0.027004
  0
VERTEX
  8
0
 10
101.667703
 20
115.406707
 42
0.026750
  0
VERTEX
  8
0
 10
100.746095
 20
115.099940
 42
0.161998
  0
VERTEX
  8
0
 10
100.364959
 20
114.781500
 42
0.505211
  0
VERTEX
  8
0
 10
100.562420
 20
114.290036
 42
0.038886
  0
VERTEX
  8
0
 10
102.202935
 20
113.999288
 42
0.021043
  0
VERTEX
  8
0
 10
105.152847
 20
113.835119
 42
0.004577
  0
VERTEX
  8
0
 10
110.250000
 20
113.812895
 42
-0.023037
  0
VERTEX
  8
0
 10
111.687185
 20
113.753547
 42
-0.036909
  0
VERTEX
  8
0
 10
112.898438
 20
113.556683
 42
-0.042542
  0
VERTEX
  8
0
 10
113.766924
 20
113.268936
 42
-0.300000
  0
VERTEX
  8
0
 10
114.000000
 20
112.915437
 42
0.160812
  0
VERTEX
  8
0
 10
114.115285
 20
112.566261
 42
0.096563
  0
VERTEX
  8
0
 10
114.440625
 20
112.268910
 42
0.078093
  0
VERTEX
  8
0
 10
114.926340
 20
112.068070
 42
0.059122
  0
VERTEX
  8
0
 10
115.500000
 20
112.000000
 42
-0.061006
  0
VERTEX
  8
0
 10
116.073593
 20
111.929753
 42
-0.079580
  0
VERTEX
  8
0
 10
116.559375
 20
111.722907
 42
-0.097455
  0
VERTEX
  8
0
 10
116.884591
 20
111.416474
 42
-0.156466
  0
VERTEX
  8
0
 10
117.000000
 20
111.056704
 42
-0.216965
  0
VERTEX
  8
0
 10
116.423506
 20
109.790700
 42
-0.051150
  0
VERTEX
  8
0
 10
114.475736
 20
108.417817
 42
-0.050211
  0
VERTEX
  8
0
 10
112.039090
 20
107.354642
 42
-0.077929
  0
VERTEX
  8
0
 10
109.777494
 20
107.000000
 42
0.050843
  0
VERTEX
  8
0
 10
107.924815
 20
106.811120
 42
0.232775
  0
VERTEX
  8
0
 10
107.095275
 20
106.166510
 42
0.351132
  0
VERTEX
  8
0
 10
107.278341
 20
105.357654
 42
0.076762
  0
VERTEX
  8
0
 10
108.608335
 20
104.596802
 42
-0.054577
  0
VERTEX
  8
0
 10
109.459786
 20
104.158436
 42
-0.253670
  0
VERTEX
  8
0
 10
109.710791
 20
103.687215
 42
-0.131543
  0
VERTEX
  8
0
 10
109.520595
 20
102.997315
 42
-0.012364
  0
VERTEX
  8
0
 10
108.585282
 20
101.489813
 42
0.008104
  0
VERTEX
  8
0
 10
107.599820
 20
99.931278
 42
0.152486
  0
VERTEX
  8
0
 10
107.461041
 20
99.376177
 42
0.360937
  0
VERTEX
  8
0
 10
107.728609
 20
99.089207
 42
0.036913
  0
VERTEX
  8
0
 10
108.726947
 20
99.035435
 42
0.099532
  0
VERTEX
  8
0
 10
111.168257
 20
99.577242
 42
0.066487
  0
VERTEX
  8
0
 10
113.617208
 20
101.077302
 42
0.046671
  0
VERTEX
  8
0
 10
116.300348
 20
103.708559
 42
0.018213
  0
VERTEX
  8
0
 10
119.509260
 20
107.796880
 42
0.010889
  0
VERTEX
  8
0
 10
121.422045
 20
110.549672
 42
0.031917
  0
VERTEX
  8
0
 10
122.572507
 20
112.551217
 42
0.051002
  0
VERTEX
  8
0
 10
123.073656
 20
113.899176
 42
0.402796
  0
VERTEX
  8
0
 10
122.776818
 20
114.427620
 42
0.025348
  0
VERTEX
  8
0
 10
120.915411
 20
114.888046
 42
0.001802
  0
VERTEX
  8
0
 10
115.667916
 20
115.887429
 42
0.001179
  0
VERTEX
  8
0
 10
110.234675
 20
116.888647
 42
0.044999
  0
VERTEX
  8
0
 10
108.999885
 20
117.000000
 42
0.059008
  0
VERTEX
  8
0
 10
108.710341
 20
116.965710
 42
0.039006
  0
VERTEX
  8
0
 10
108.391347
 20
116.862214
 42
0.039030
  0
VERTEX
  8
0
 10
108.092613
 20
116.710572
 42
0.059484
  0
SEQEND
  0
POLYLINE
  8
0
 66
1
 70
1
  0
VERTEX
  8
0
 10
227.750000
 20
114.301939
 42
0.049777
  0
VERTEX
  8
0
 10
227.080568
 20
114.057270
 42
0.059243
  0
VERTEX
  8
0
 10
226.514062
 20
113.695577
 42
0.069454
  0
VERTEX
  8
0
 10
226.128455
 20
113.277936
 42
0.152888
  0
VERTEX
  8
0
 10
226.000000
 20
112.867659
 42
0.115404
  0
VERTEX
  8
0
 10
226.076667
 20
112.539915
 42
0.185310
  0
VERTEX
  8
0
 10
226.285138
 20
112.347738
 42
0.156103
  0
VERTEX
  8
0
 10
226.599581
 20
112.326140
 42
0.078271
  0
VERTEX
  8
0
 10
226.970683
 20
112.481881
 42
-0.242506
  0
VERTEX
  8
0
 10
227.388717
 20
112.514449
 42
-0.116092
  0
VERTEX
  8
0
 10
227.836137
 20
112.188758
 42
-0.074420
  0
VERTEX
  8
0
 10
228.248802
 20
111.533253
 42
-0.041871
  0
VERTEX
  8
0
 10
228.553821
 20
110.641583
 42
0.205985
  0
VERTEX
  8
0
 10
230.444602
 20
108.165663
 42
0.185486
  0
VERTEX
  8
0
 10
233.652598
 20
107.695529
 42
0.179586
  0
VERTEX
  8
0
 10
236.424730
 20
109.498589
 42
0.198138
  0
VERTEX
  8
0
 10
237.205449
 20
112.587960
 42
0.085969
  0
VERTEX
  8
0
 10
236.865329
 20
113.631056
 42
0.150135
  0
VERTEX
  8
0
 10
236.228416
 20
114.268786
 42
0.096631
  0
VERTEX
  8
0
 10
235.124158
 20
114.604733
 42
0.023152
  0
VERTEX
  8
0
 10
233.201683
 20
114.713222
 42
0.011076
  0
VERTEX
  8
0
 10
231.656118
 20
114.694560
 42
0.010269
  0
VERTEX
  8
0
 10
230.073307
 20
114.607795
 42
0.010313
  0
VERTEX
  8
0
 10
228.668475
 20
114.472625
 42
0.033609
  0
SEQEND
  0
POLYLINE
  8
0
 66
1
 70
1
  0
VERTEX
  8
0
 10
242.500000
 20
108.000000
 42
0.082592
  0
VERTEX
  8
0
 10
242.343488
 20
107.617900
 42
0.161196
  0
VERTEX
  8
0
 10
242.374600
 20
107.293750
 42
0.182303
  0
VERTEX
  8
0
 10
242.586039
 20
107.078288
 42
0.108972
  0
VERTEX
  8
0
 10
242.940983
 20
107.000000
 42
0.093332
  0
VERTEX
  8
0
 10
243.345238
 20
107.076123
 42
0.096420
  0
VERTEX
  8
0
 10
243.688914
 20
107.293750
 42
0.099167
  0
VERTEX
  8
0
 10
243.918938
 20
107.618444
 42
0.105053
  0
VERTEX
  8
0
 10
244.000000
 20
108.000000
 42
0.042167
  0
VERTEX
  8
0
 10
243.967655
 20
108.382849
 42
0.061769
  0
VERTEX
  8
0
 10
243.870461
 20
108.706250
 42
0.081139
  0
VERTEX
  8
0
 10
243.727648
 20
108.925540
 42
0.210953
  0
VERTEX
  8
0
 10
243.559017
 20
109.000000
 42
0.151918
  0
VERTEX
  8
0
 10
243.348290
 20
108.934461
 42
0.038439
  0
VERTEX
  8
0
 10
243.066025
 20
108.706250
 42
0.035638
  0
VERTEX
  8
0
 10
242.768994
 20
108.382774
 42
0.029505
  0
SEQEND
  0
POLYLINE
  8
0
 66
1
 70
1
  0
VERTEX
  8
0
 10
298.750000
 20
94.337719
 42
0.057986
  0
VERTEX
  8
0
 10
299.320008
 20
94.181385
 42
0.037979
  0
VERTEX
  8
0
 10
300.000000
 20
94.129660
 42
0.037979
  0
VERTEX
  8
0
 10
300.679992
 20
94.181385
 42
0.057986
  0
VERTEX
  8
0
 10
301.250000
 20
94.337719
 42
0.174857
  0
VERTEX
  8
0
 10
301.459382
 20
94.525001
 42
0.447206
  0
VERTEX
  8
0
 10
301.398438
 20
94.693942
 42
0.078554
  0
VERTEX
  8
0
 10
300.891440
 20
94.810911
 42
0.017491
  0
VERTEX
  8
0
 10
300.000000
 20
94.842105
 42
0.017491
  0
VERTEX
  8
0
 10
299.108560
 20
94.810911
 42
0.078554
  0
VERTEX
  8
0
 10
298.601562
 20
94.693942
 42
0.447206
  0
VERTEX
  8
0
 10
298.540618
 20
94.525001
 42
0.174857
  0
SEQEND
  0
POLYLINE
  8
0
 66
1
 70
1
  0
VERTEX
  8
0
 10
314.000000
 20
75.000000
 42
0.004595
  0
VERTEX
  8
0
 10
312.660122
 20
74.557279
 42
0.172749
  0
VERTEX
  8
0
 10
312.413781
 20
74.361940
 42
0.574334
  0
VERTEX
  8
0
 10
312.487696
 20
74.221484
 42
0.010926
  0
VERTEX
  8
0
 10
313.500000
 20
74.199360
 42
0.029800
  0
VERTEX
  8
0
 10
314.443967
 20
74.255671
 42
0.014229
  0
VERTEX
  8
0
 10
315.646875
 20
74.434548
 42
0.014050
  0
VERTEX
  8
0
 10
316.896643
 20
74.693325
 42
0.019418
  0
VERTEX
  8
0
 10
318.000000
 20
75.000000
 42
0.004595
  0
VERTEX
  8
0
 10
319.339878
 20
75.442721
 42
0.172749
  0
VERTEX
  8
0
 10
319.586219
 20
75.638060
 42
0.574334
  0
VERTEX
  8
0
 10
319.512304
 20
75.778516
 42
0.010926
  0
VERTEX
  8
0
 10
318.500000
 20
75.800640
 42
0.029800
  0
VERTEX
  8
0
 10
317.556033
 20
75.744329
 42
0.014229
  0
VERTEX
  8
0
 10
316.353125
 20
75.565452
 42
0.014050
  0
VERTEX
  8
0
 10
315.103357
 20
75.306675
 42
0.019418
  0
SEQEND
  0
POLYLINE
  8
0
 66
1
 70
1
  0
VERTEX
  8
0
 10
306.000000
 20
73.000000
 42
0.004584
  0
VERTEX
  8
0
 10
304.638787
 20
72.550264
 42
0.176900
  0
VERTEX
  8
0
 10
304.393431
 20
72.352483
 42
0.564240
  0
VERTEX
  8
0
 10
304.469886
 20
72.207490
 42
0.010858
  0
VERTEX
  8
0
 10
305.500000
 20
72.169965
 42
0.034995
  0
VERTEX
  8
0
 10
306.410457
 20
72.220333
 42
0.019847
  0
VERTEX
  8
0
 10
307.500000
 20
72.401663
 42
0.019741
  0
VERTEX
  8
0
 10
308.588662
 20
72.672791
 42
0.030584
  0
VERTEX
  8
0
 10
309.500000
 20
73.000000
 42
0.132187
  0
VERTEX
  8
0
 10
310.144577
 20
73.509313
 42
0.616563
  0
VERTEX
  8
0
 10
309.987773
 20
73.821257
 42
0.056364
  0
VERTEX
  8
0
 10
308.299060
 20
73.630287
 42
0.021183
  0
SEQEND
  0
POLYLINE
  8
0
 66
1
 70
1
  0
VERTEX
  8
0
 10
294.500000
 20
69.463885
 42
0.031725
  0
VERTEX
  8
0
 10
292.601285
 20
68.444227
 42
0.753985
  0
VERTEX
  8
0
 10
292.706300
 20
68.075636
 42
0.086148
  0
VERTEX
  8
0
 10
294.341050
 20
68.357468
 42
0.016754
  0
VERTEX
  8
0
 10
297.135190
 20
69.460858
 42
0.013774
  0
VERTEX
  8
0
 10
298.336260
 20
70.022120
 42
0.046457
  0
VERTEX
  8
0
 10
299.070962
 20
70.480229
 42
0.270931
  0
VERTEX
  8
0
 10
299.174719
 20
70.731751
 42
0.382389
  0
VERTEX
  8
0
 10
299.000000
 20
70.879639
 42
0.053784
  0
VERTEX
  8
0
 10
298.225581
 20
70.774052
 42
0.015460
  0
VERTEX
  8
0
 10
297.059375
 20
70.446405
 42
0.015365
  0
VERTEX
  8
0
 10
295.758613
 20
69.992802
 42
0.015785
  0
SEQEND
  0
POLYLINE
  8
0
 66
1
 70
1
  0
VERTEX
  8
0
 10
305.812500
 20
49.316886
 42
0.051402
  0
VERTEX
  8
0
 10
306.359369
 20
49.160852
 42
0.054150
  0
VERTEX
  8
0
 10
306.916927
 20
49.123424
 42
0.060344
  0
VERTEX
  8
0
 10
307.402231
 20
49.202593
 42
0.126455
  0
VERTEX
  8
0
 10
307.729167
 20
49.395833
 42
0.296942
  0
VERTEX
  8
0
 10
307.775380
 20
49.614691
 42
0.208169
  0
VERTEX
  8
0
 10
307.592839
 20
49.799335
 42
0.077125
  0
VERTEX
  8
0
 10
307.112848
 20
49.910055
 42
0.028489
  0
VERTEX
  8
0
 10
306.416667
 20
49.921053
 42
0.018894
  0
VERTEX
  8
0
 10
305.670344
 20
49.862007
 42
0.168741
  0
VERTEX
  8
0
 10
305.378580
 20
49.720685
 42
0.470617
  0
VERTEX
  8
0
 10
305.395823
 20
49.538436
 42
0.054073
  0
SEQEND
  0
POLYLINE
  8
0
 66
1
 70
1
  0
VERTEX
  8
0
 10
262.812500
 20
33.316886
 42
0.051402
  0
VERTEX
  8
0
 10
263.359369
 20
33.160852
 42
0.054150
  0
VERTEX
  8
0
 10
263.916927
 20
33.123424
 42
0.060344
  0
VERTEX
  8
0
 10
264.402231
 20
33.202593
 42
0.126455
  0
VERTEX
  8
0
 10
264.729167
 20
33.395833
 42
0.296942
  0
VERTEX
  8
0
 10
264.775380
 20
33.614691
 42
0.208169
  0
VERTEX
  8
0
 10
264.592839
 20
33.799335
 42
0.077125
  0
VERTEX
  8
0
 10
264.112848
 20
33.910055
 42
0.028489
  0
VERTEX
  8
0
 10
263.416667
 20
33.921053
 42
0.018894
  0
VERTEX
  8
0
 10
262.670344
 20
33.862007
 42
0.168741
  0
VERTEX
  8
0
 10
262.378580
 20
33.720685
 42
0.470617
  0
VERTEX
  8
0
 10
262.395823
 20
33.538436
 42
0.054073
  0
SEQEND
  0
POLYLINE
  8
0
 66
1
 70
1
  0
VERTEX
  8
0
 10
251.500000
 20
30.953304
 42
0.052205
  0
VERTEX
  8
0
 10
250.885949
 20
30.593758
 42
0.669598
  0
VERTEX
  8
0
 10
250.931864
 20
30.408771
 42
0.068523
  0
VERTEX
  8
0
 10
251.670501
 20
30.400929
 42
0.006223
  0
VERTEX
  8
0
 10
253.500000
 20
30.656249
 42
0.006898
  0
VERTEX
  8
0
 10
255.062683
 20
30.916301
 42
0.009719
  0
VERTEX
  8
0
 10
256.447396
 20
31.194311
 42
0.006366
  0
VERTEX
  8
0
 10
257.592716
 20
31.462852
 42
0.120459
  0
VERTEX
  8
0
 10
257.916667
 20
31.632660
 42
0.689044
  0
VERTEX
  8
0
 10
257.777400
 20
32.004412
 42
0.027799
  0
VERTEX
  8
0
 10
255.750417
 20
31.903188
 42
0.023299
  0
VERTEX
  8
0
 10
253.262980
 20
31.521981
 42
0.056746
  0
SEQEND
  0
POLYLINE
  8
0
 66
1
 70
1
  0
VERTEX
  8
0
 10
193.761659
 20
29.292739
 42
0.028254
  0
VERTEX
  8
0
 10
194.754739
 20
29.159391
 42
0.020511
  0
VERTEX
  8
0
 10
195.869594
 20
29.119272
 42
0.020826
  0
VERTEX
  8
0
 10
196.934218
 20
29.169017
 42
0.041951
  0
VERTEX
  8
0
 10
197.761659
 20
29.312920
 42
0.285845
  0
VERTEX
  8
0
 10
197.916221
 20
29.476221
 42
0.417468
  0
VERTEX
  8
0
 10
197.814362
 20
29.628390
 42
0.038992
  0
VERTEX
  8
0
 10
196.938425
 20
29.726931
 42
0.009782
  0
VERTEX
  8
0
 10
195.500000
 20
29.747817
 42
0.008901
  0
VERTEX
  8
0
 10
194.071102
 20
29.715166
 42
0.053901
  0
VERTEX
  8
0
 10
193.339362
 20
29.605813
 42
0.671610
  0
VERTEX
  8
0
 10
193.319562
 20
29.456590
 42
0.082665
  0
SEQEND
  0
POLYLINE
  8
0
 66
1
 70
1
  0
VERTEX
  8
0
 10
205.776433
 20
29.266503
 42
0.013671
  0
VERTEX
  8
0
 10
207.684837
 20
29.147583
 42
0.008930
  0
VERTEX
  8
0
 10
209.890462
 20
29.110009
 42
0.008983
  0
VERTEX
  8
0
 10
212.043501
 20
29.150473
 42
0.016947
  0
VERTEX
  8
0
 10
213.776433
 20
29.273107
 42
0.153636
  0
VERTEX
  8
0
 10
214.099419
 20
29.413268
 42
0.661512
  0
VERTEX
  8
0
 10
214.056202
 20
29.547090
 42
0.018464
  0
VERTEX
  8
0
 10
212.373175
 20
29.635783
 42
0.004138
  0
VERTEX
  8
0
 10
209.500000
 20
29.657190
 42
0.003921
  0
VERTEX
  8
0
 10
206.635274
 20
29.632360
 42
0.022011
  0
VERTEX
  8
0
 10
205.106202
 20
29.539701
 42
0.807686
  0
VERTEX
  8
0
 10
205.092045
 20
29.408440
 42
0.057523
  0
SEQEND
  0
POLYLINE
  8
0
 66
1
 70
1
  0
VERTEX
  8
0
 10
239.750000
 20
29.276604
 42
0.019375
  0
VERTEX
  8
0
 10
241.229765
 20
29.150935
 42
0.011494
  0
VERTEX
  8
0
 10
243.000000
 20
29.110234
 42
0.011494
  0
VERTEX
  8
0
 10
244.770235
 20
29.150935
 42
0.019375
  0
VERTEX
  8
0
 10
246.250000
 20
29.276604
 42
0.108536
  0
VERTEX
  8
0
 10
246.666199
 20
29.423685
 42
0.707215
  0
VERTEX
  8
0
 10
246.635937
 20
29.561450
 42
0.025693
  0
VERTEX
  8
0
 10
245.329566
 20
29.655793
 42
0.005179
  0
VERTEX
  8
0
 10
243.000000
 20
29.679926
 42
0.005179
  0
VERTEX
  8
0
 10
240.670434
 20
29.655793
 42
0.025693
  0
VERTEX
  8
0
 10
239.364063
 20
29.561450
 42
0.707215
  0
VERTEX
  8
0
 10
239.333801
 20
29.423685
 42
0.108536
  0
SEQEND
  0
POLYLINE
  8
0
 66
1
 70
1
  0
VERTEX
  8
0
 10
313.000000
 20
27.336339
 42
0.000890
  0
VERTEX
  8
0
 10
304.153175
 20
25.935504
 42
0.006464
  0
VERTEX
  8
0
 10
299.913312
 20
25.200074
 42
0.006350
  0
VERTEX
  8
0
 10
297.354960
 20
24.688458
 42
0.594722
  0
VERTEX
  8
0
 10
297.268941
 20
24.397725
 42
0.232986
  0
VERTEX
  8
0
 10
298.210179
 20
24.077857
 42
0.001901
  0
VERTEX
  8
0
 10
306.189097
 20
25.153591
 42
0.005143
  0
VERTEX
  8
0
 10
313.605245
 20
26.260048
 42
0.056475
  0
VERTEX
  8
0
 10
316.500000
 20
27.064996
 42
0.081510
  0
VERTEX
  8
0
 10
317.229823
 20
27.509158
 42
0.667692
  0
VERTEX
  8
0
 10
317.144739
 20
27.769390
 42
0.051324
  0
VERTEX
  8
0
 10
315.802570
 20
27.735578
 42
0.006878
  0
SEQEND
  0
POLYLINE
  8
0
 66
1
 70
1
  0
VERTEX
  8
0
 10
176.750000
 20
25.337719
 42
0.057986
  0
VERTEX
  8
0
 10
177.320008
 20
25.181385
 42
0.037979
  0
VERTEX
  8
0
 10
178.000000
 20
25.129660
 42
0.037979
  0
VERTEX
  8
0
 10
178.679992
 20
25.181385
 42
0.057986
  0
VERTEX
  8
0
 10
179.250000
 20
25.337719
 42
0.174857
  0
VERTEX
  8
0
 10
179.459382
 20
25.525001
 42
0.447206
  0
VERTEX
  8
0
 10
179.398438
 20
25.693942
 42
0.078554
  0
VERTEX
  8
0
 10
178.891440
 20
25.810911
 42
0.017491
  0
VERTEX
  8
0
 10
178.000000
 20
25.842105
 42
0.017491
  0
VERTEX
  8
0
 10
177.108560
 20
25.810911
 42
0.078554
  0
VERTEX
  8
0
 10
176.601562
 20
25.693942
 42
0.447206
  0
VERTEX
  8
0
 10
176.540618
 20
25.525001
 42
0.174857
  0
SEQEND
  0
POLYLINE
  8
0
 66
1
 70
1
  0
VERTEX
  8
0
 10
172.000000
 20
24.000000
 42
0.027275
  0
VERTEX
  8
0
 10
171.445888
 20
23.597454
 42
0.147021
  0
VERTEX
  8
0
 10
171.239151
 20
23.292684
 42
0.379910
  0
VERTEX
  8
0
 10
171.327599
 20
23.095709
 42
0.102799
  0
VERTEX
  8
0
 10
171.690983
 20
23.015313
 42
0.074131
  0
VERTEX
  8
0
 10
172.192374
 20
23.083483
 42
0.053889
  0
VERTEX
  8
0
 10
172.713662
 20
23.298248
 42
0.054031
  0
VERTEX
  8
0
 10
173.175433
 20
23.618541
 42
0.075854
  0
VERTEX
  8
0
 10
173.500000
 20
24.000000
 42
0.034464
  0
VERTEX
  8
0
 10
173.886554
 20
24.734105
 42
0.541951
  0
VERTEX
  8
0
 10
173.758161
 20
24.931144
 42
0.136158
  0
VERTEX
  8
0
 10
173.281145
 20
24.798791
 42
0.008108
  0
SEQEND
  0
POLYLINE
  8
0
 66
1
 70
1
  0
VERTEX
  8
0
 10
164.611830
 20
22.180944
 42
0.401493
  0
VERTEX
  8
0
 10
164.670055
 20
21.907784
 42
0.110488
  0
VERTEX
  8
0
 10
165.120059
 20
21.729549
 42
0.052318
  0
VERTEX
  8
0
 10
165.955997
 20
21.685627
 42
0.023425
  0
VERTEX
  8
0
 10
167.052813
 20
21.794443
 42
0.012039
  0
VERTEX
  8
0
 10
168.182551
 20
21.988145
 42
0.019299
  0
VERTEX
  8
0
 10
169.134264
 20
22.213470
 42
0.013978
  0
VERTEX
  8
0
 10
169.877487
 20
22.442582
 42
0.321380
  0
VERTEX
  8
0
 10
170.000000
 20
22.613499
 42
0.410000
  0
VERTEX
  8
0
 10
169.567918
 20
23.051852
 42
0.023633
  0
VERTEX
  8
0
 10
167.491733
 20
22.983625
 42
0.025083
  0
VERTEX
  8
0
 10
165.383322
 20
22.707415
 42
0.212307
  0
SEQEND
  0
POLYLINE
  8
0
 66
1
 70
1
  0
VERTEX
  8
0
 10
316.000000
 20
22.044294
 42
-0.029562
  0
VERTEX
  8
0
 10
314.520553
 20
21.666839
 42
-0.004868
  0
VERTEX
  8
0
 10
311.618843
 20
21.135935
 42
-0.005337
  0
VERTEX
  8
0
 10
308.188298
 20
20.580376
 42
-0.004691
  0
VERTEX
  8
0
 10
304.596061
 20
20.072341
 42
0.008888
  0
VERTEX
  8
0
 10
300.956862
 20
19.526473
 42
0.009229
  0
VERTEX
  8
0
 10
297.384983
 20
18.857588
 42
0.008981
  0
VERTEX
  8
0
 10
294.318754
 20
18.166957
 42
0.039089
  0
VERTEX
  8
0
 10
292.551113
 20
17.585803
 42
-0.041712
  0
VERTEX
  8
0
 10
290.834330
 20
17.031318
 42
-0.011200
  0
VERTEX
  8
0
 10
288.027029
 20
16.442856
 42
-0.011266
  0
VERTEX
  8
0
 10
284.796250
 20
15.915853
 42
-0.011433
  0
VERTEX
  8
0
 10
281.560755
 20
15.537861
 42
0.013411
  0
VERTEX
  8
0
 10
276.274745
 20
14.899108
 42
0.088257
  0
VERTEX
  8
0
 10
273.756525
 20
14.055830
 42
0.076802
  0
VERTEX
  8
0
 10
271.537114
 20
12.359869
 42
0.008823
  0
VERTEX
  8
0
 10
267.252629
 20
7.736307
 42
-0.095619
  0
VERTEX
  8
0
 10
264.672695
 20
5.773279
 42
-0.072477
  0
VERTEX
  8
0
 10
261.283842
 20
4.668758
 42
-0.037310
  0
VERTEX
  8
0
 10
255.951764
 20
4.156461
 42
-0.006761
  0
VERTEX
  8
0
 10
246.000000
 20
4.080062
 42
0.007530
  0
VERTEX
  8
0
 10
240.837924
 20
4.032493
 42
0.007463
  0
VERTEX
  8
0
 10
235.664201
 20
3.829574
 42
0.007356
  0
VERTEX
  8
0
 10
231.144987
 20
3.517984
 42
0.028558
  0
VERTEX
  8
0
 10
228.367491
 20
3.124731
 42
-0.020682
  0
VERTEX
  8
0
 10
225.865666
 20
2.730240
 42
-0.028393
  0
VERTEX
  8
0
 10
223.592050
 20
2.597615
 42
-0.031167
  0
VERTEX
  8
0
 10
221.503328
 20
2.724803
 42
-0.036584
  0
VERTEX
  8
0
 10
219.558161
 20
3.111552
 42
0.055487
  0
VERTEX
  8
0
 10
217.107742
 20
3.503333
 42
0.023746
  0
VERTEX
  8
0
 10
213.786655
 20
3.503992
 42
0.016604
  0
VERTEX
  8
0
 10
209.236625
 20
3.136965
 42
0.005731
  0
VERTEX
  8
0
 10
202.690670
 20
2.313386
 42
0.000000
  0
VERTEX
  8
0
 10
189.500000
 20
0.500000
 42
0.000000
  0
VERTEX
  8
0
 10
237.500000
 20
0.217897
 42
0.001575
  0
VERTEX
  8
0
 10
258.273305
 20
0.161228
 42
0.003499
  0
VERTEX
  8
0
 10
274.097536
 20
0.278620
 42
0.002363
  0
VERTEX
  8
0
 10
286.262583
 20
0.511507
 42
0.054430
  0
VERTEX
  8
0
 10
289.703089
 20
0.970483
 42
-0.018620
  0
VERTEX
  8
0
 10
291.943046
 20
1.434204
 42
-0.005191
  0
VERTEX
  8
0
 10
295.481508
 20
1.992613
 42
-0.005231
  0
VERTEX
  8
0
 10
299.501478
 20
2.541399
 42
-0.005472
  0
VERTEX
  8
0
 10
303.472093
 20
2.997106
 42
0.010121
  0
VERTEX
  8
0
 10
307.389670
 20
3.483671
 42
0.010387
  0
VERTEX
  8
0
 10
311.250563
 20
4.124906
 42
0.010182
  0
VERTEX
  8
0
 10
314.573499
 20
4.818300
 42
0.042450
  0
VERTEX
  8
0
 10
316.519004
 20
5.443494
 42
0.000000
  0
VERTEX
  8
0
 10
320.000000
 20
6.897947
 42
0.000000
  0
VERTEX
  8
0
 10
320.000000
 20
14.948973
 42
0.008742
  0
VERTEX
  8
0
 10
319.946116
 20
18.030516
 42
0.014709
  0
VERTEX
  8
0
 10
319.779688
 20
20.611820
 42
0.008458
  0
VERTEX
  8
0
 10
319.549275
 20
22.684368
 42
0.407563
  0
VERTEX
  8
0
 10
319.250000
 20
22.921053
 42
0.034162
  0
VERTEX
  8
0
 10
318.816558
 20
22.845232
 42
0.005507
  0
VERTEX
  8
0
 10
317.985937
 20
22.630939
 42
0.006061
  0
VERTEX
  8
0
 10
317.012136
 20
22.355529
 42
0.005291
  0
SEQEND
  0
POLYLINE
  8
0
 66
1
 70
1
  0
VERTEX
  8
0
 10
157.500000
 20
19.054724
 42
0.009164
  0
VERTEX
  8
0
 10
156.031217
 20
18.326448
 42
0.021463
  0
VERTEX
  8
0
 10
154.968750
 20
17.715921
 42
0.045681
  0
VERTEX
  8
0
 10
154.440184
 20
17.309264
 42
0.679644
  0
VERTEX
  8
0
 10
154.500000
 20
17.155111
 42
0.101949
  0
VERTEX
  8
0
 10
156.007307
 20
17.455031
 42
0.009542
  0
VERTEX
  8
0
 10
159.482114
 20
19.001329
 42
0.011181
  0
VERTEX
  8
0
 10
162.580114
 20
20.536747
 42
0.764630
  0
VERTEX
  8
0
 10
162.500000
 20
20.899613
 42
0.090088
  0
VERTEX
  8
0
 10
161.901010
 20
20.820213
 42
0.010501
  0
VERTEX
  8
0
 10
160.618750
 20
20.377452
 42
0.012334
  0
VERTEX
  8
0
 10
159.104866
 20
19.776037
 42
0.009793
  0
SEQEND
  0
POLYLINE
  8
0
 66
1
 70
1
  0
VERTEX
  8
0
 10
260.812500
 20
9.316886
 42
0.051402
  0
VERTEX
  8
0
 10
261.359369
 20
9.160852
 42
0.054150
  0
VERTEX
  8
0
 10
261.916927
 20
9.123424
 42
0.060344
  0
VERTEX
  8
0
 10
262.402231
 20
9.202593
 42
0.126455
  0
VERTEX
  8
0
 10
262.729167
 20
9.395833
 42
0.296942
  0
VERTEX
  8
0
 10
262.775380
 20
9.614691
 42
0.208169
  0
VERTEX
  8
0
 10
262.592839
 20
9.799335
 42
0.077125
  0
VERTEX
  8
0
 10
262.112848
 20
9.910055
 42
0.028489
  0
VERTEX
  8
0
 10
261.416667
 20
9.921053
 42
0.018894
  0
VERTEX
  8
0
 10
260.670344
 20
9.862007
 42
0.168741
  0
VERTEX
  8
0
 10
260.378580
 20
9.720685
 42
0.470617
  0
VERTEX
  8
0
 10
260.395823
 20
9.538436
 42
0.054073
  0
SEQEND
  0
POLYLINE
  8
0
 66
1
 70
1
  0
VERTEX
  8
0
 10
227.750000
 20
8.337719
 42
0.057986
  0
VERTEX
  8
0
 10
228.320008
 20
8.181385
 42
0.037979
  0
VERTEX
  8
0
 10
229.000000
 20
8.129660
 42
0.037979
  0
VERTEX
  8
0
 10
229.679992
 20
8.181385
 42
0.057986
  0
VERTEX
  8
0
 10
230.250000
 20
8.337719
 42
0.174857
  0
VERTEX
  8
0
 10
230.459382
 20
8.525001
 42
0.447206
  0
VERTEX
  8
0
 10
230.398438
 20
8.693942
 42
0.078554
  0
VERTEX
  8
0
 10
229.891440
 20
8.810911
 42
0.017491
  0
VERTEX
  8
0
 10
229.000000
 20
8.842105
 42
0.017491
  0
VERTEX
  8
0
 10
228.108560
 20
8.810911
 42
0.078554
  0
VERTEX
  8
0
 10
227.601562
 20
8.693942
 42
0.447206
  0
VERTEX
  8
0
 10
227.540618
 20
8.525001
 42
0.174857
  0
SEQEND
  0
POLYLINE
  8
0
 66
1
 70
1
  0
VERTEX
  8
0
 10
202.269032
 20
7.307009
 42
0.037336
  0
VERTEX
  8
0
 10
203.036634
 20
7.167106
 42
0.029507
  0
VERTEX
  8
0
 10
203.880008
 20
7.127736
 42
0.030339
  0
VERTEX
  8
0
 10
204.671085
 20
7.185595
 42
0.062780
  0
VERTEX
  8
0
 10
205.269032
 20
7.344063
 42
0.313180
  0
VERTEX
  8
0
 10
205.386009
 20
7.522870
 42
0.333666
  0
VERTEX
  8
0
 10
205.257153
 20
7.684921
 42
0.052471
  0
VERTEX
  8
0
 10
204.580113
 20
7.787295
 42
0.014395
  0
VERTEX
  8
0
 10
203.500000
 20
7.805051
 42
0.012823
  0
VERTEX
  8
0
 10
202.431793
 20
7.764444
 42
0.080377
  0
VERTEX
  8
0
 10
201.900903
 20
7.643467
 42
0.597527
  0
VERTEX
  8
0
 10
201.883358
 20
7.483340
 42
0.087174
  0
SEQEND
  0
POLYLINE
  8
0
 66
1
 70
1
  0
VERTEX
  8
0
 10
194.250000
 20
6.310674
 42
0.039571
  0
VERTEX
  8
0
 10
195.047266
 20
6.168469
 42
0.024357
  0
VERTEX
  8
0
 10
196.000000
 20
6.122029
 42
0.024357
  0
VERTEX
  8
0
 10
196.952734
 20
6.168469
 42
0.039571
  0
VERTEX
  8
0
 10
197.750000
 20
6.310674
 42
0.161593
  0
VERTEX
  8
0
 10
198.009140
 20
6.478988
 42
0.542911
  0
VERTEX
  8
0
 10
197.957813
 20
6.633659
 42
0.052887
  0
VERTEX
  8
0
 10
197.251983
 20
6.740287
 42
0.011065
  0
VERTEX
  8
0
 10
196.000000
 20
6.767997
 42
0.011065
  0
VERTEX
  8
0
 10
194.748017
 20
6.740287
 42
0.052887
  0
VERTEX
  8
0
 10
194.042187
 20
6.633659
 42
0.542911
  0
VERTEX
  8
0
 10
193.990860
 20
6.478988
 42
0.161593
  0
SEQEND
  0
POLYLINE
  8
0
 66
1
 70
1
  0
VERTEX
  8
0
 10
188.269032
 20
5.307009
 42
0.037336
  0
VERTEX
  8
0
 10
189.036634
 20
5.167106
 42
0.029507
  0
VERTEX
  8
0
 10
189.880008
 20
5.127736
 42
0.030339
  0
VERTEX
  8
0
 10
190.671085
 20
5.185595
 42
0.062780
  0
VERTEX
  8
0
 10
191.269032
 20
5.344063
 42
0.313180
  0
VERTEX
  8
0
 10
191.386009
 20
5.522870
 42
0.333666
  0
VERTEX
  8
0
 10
191.257153
 20
5.684921
 42
0.052471
  0
VERTEX
  8
0
 10
190.580113
 20
5.787295
 42
0.014395
  0
VERTEX
  8
0
 10
189.500000
 20
5.805051
 42
0.012823
  0
VERTEX
  8
0
 10
188.431793
 20
5.764444
 42
0.080377
  0
VERTEX
  8
0
 10
187.900903
 20
5.643467
 42
0.597527
  0
VERTEX
  8
0
 10
187.883358
 20
5.483340
 42
0.087174
  0
SEQEND
  0
POLYLINE
  8
0
 66
1
 70
1
  0
VERTEX
  8
0
 10
183.812500
 20
4.316886
 42
0.051402
  0
VERTEX
  8
0
 10
184.359369
 20
4.160852
 42
0.054150
  0
VERTEX
  8
0
 10
184.916927
 20
4.123424
 42
0.060344
  0
VERTEX
  8
0
 10
185.402231
 20
4.202593
 42
0.126455
  0
VERTEX
  8
0
 10
185.729167
 20
4.395833
 42
0.296942
  0
VERTEX
  8
0
 10
185.775380
 20
4.614691
 42
0.208169
  0
VERTEX
  8
0
 10
185.592839
 20
4.799335
 42
0.077125
  0
VERTEX
  8
0
 10
185.112848
 20
4.910055
 42
0.028489
  0
VERTEX
  8
0
 10
184.416667
 20
4.921053
 42
0.018894
  0
VERTEX
  8
0
 10
183.670344
 20
4.862007
 42
0.168741
  0
VERTEX
  8
0
 10
183.378580
 20
4.720685
 42
0.470617
  0
VERTEX
  8
0
 10
183.395823
 20
4.538436
 42
0.054073
  0
SEQEND
  0
POLYLINE
  8
0
 66
1
 70
1
  0
VERTEX
  8
0
 10
303.270722
 20
2.040738
 42
0.003336
  0
VERTEX
  8
0
 10
296.696649
 20
1.390868
 42
0.199682
  0
VERTEX
  8
0
 10
295.670725
 20
0.831220
 42
0.646893
  0
VERTEX
  8
0
 10
295.904778
 20
0.371761
 42
0.003753
  0
VERTEX
  8
0
 10
302.214299
 20
0.726925
 42
0.013861
  0
VERTEX
  8
0
 10
307.485480
 20
1.210354
 42
0.016856
  0
VERTEX
  8
0
 10
312.386013
 20
1.965463
 42
0.171081
  0
VERTEX
  8
0
 10
313.164496
 20
2.416871
 42
0.647981
  0
VERTEX
  8
0
 10
313.000000
 20
2.763161
 42
0.010711
  0
VERTEX
  8
0
 10
311.596379
 20
2.701359
 42
0.002174
  0
VERTEX
  8
0
 10
309.110775
 20
2.527659
 42
0.002291
  0
VERTEX
  8
0
 10
306.221785
 20
2.299828
 42
0.002145
  0
SEQEND
  0
POLYLINE
  8
0
 66
1
 70
1
  0
VERTEX
  8
0
 10
194.263750
 20
51.282419
 42
0.022548
  0
VERTEX
  8
0
 10
195.485188
 20
51.153707
 42
0.015659
  0
VERTEX
  8
0
 10
196.872547
 20
51.114038
 42
0.015827
  0
VERTEX
  8
0
 10
198.209518
 20
51.160023
 42
0.031163
  0
VERTEX
  8
0
 10
199.263750
 20
51.296069
 42
0.248898
  0
VERTEX
  8
0
 10
199.455688
 20
51.450815
 42
0.490820
  0
VERTEX
  8
0
 10
199.374351
 20
51.596853
 42
0.030832
  0
VERTEX
  8
0
 10
198.297080
 20
51.692368
 42
0.007380
  0
VERTEX
  8
0
 10
196.500000
 20
51.713986
 42
0.006817
  0
VERTEX
  8
0
 10
194.711719
 20
51.684722
 42
0.040183
  0
VERTEX
  8
0
 10
193.780601
 20
51.581582
 42
0.720633
  0
VERTEX
  8
0
 10
193.761725
 20
51.438612
 42
0.075924
  0
SEQEND
  0
POLYLINE
  8
0
 66
1
 70
1
  0
VERTEX
  8
0
 10
179.500000
 20
49.477202
 42
0.009590
  0
VERTEX
  8
0
 10
177.699579
 20
48.977420
 42
0.032462
  0
VERTEX
  8
0
 10
176.556250
 20
48.553771
 42
0.244299
  0
VERTEX
  8
0
 10
176.362411
 20
48.310021
 42
0.463656
  0
VERTEX
  8
0
 10
176.500000
 20
48.138366
 42
0.041503
  0
VERTEX
  8
0
 10
177.609239
 20
48.200718
 42
0.008743
  0
VERTEX
  8
0
 10
179.528125
 20
48.503689
 42
0.009104
  0
VERTEX
  8
0
 10
181.747655
 20
48.935817
 42
0.008518
  0
VERTEX
  8
0
 10
184.000000
 20
49.457324
 42
0.008867
  0
VERTEX
  8
0
 10
185.970327
 20
49.986327
 42
0.034945
  0
VERTEX
  8
0
 10
187.150000
 20
50.416799
 42
0.409368
  0
VERTEX
  8
0
 10
187.238051
 20
50.641196
 42
0.304170
  0
VERTEX
  8
0
 10
187.000000
 20
50.796161
 42
0.030799
  0
VERTEX
  8
0
 10
185.707390
 20
50.698933
 42
0.009357
  0
VERTEX
  8
0
 10
183.765625
 20
50.394795
 42
0.009332
  0
VERTEX
  8
0
 10
181.597653
 20
49.971678
 42
0.010047
  0
SEQEND
  0
POLYLINE
  8
0
 66
1
 70
1
  0
VERTEX
  8
0
 10
170.269032
 20
47.307009
 42
0.037336
  0
VERTEX
  8
0
 10
171.036634
 20
47.167106
 42
0.029507
  0
VERTEX
  8
0
 10
171.880008
 20
47.127736
 42
0.030339
  0
VERTEX
  8
0
 10
172.671085
 20
47.185595
 42
0.062780
  0
VERTEX
  8
0
 10
173.269032
 20
47.344063
 42
0.313180
  0
VERTEX
  8
0
 10
173.386009
 20
47.522870
 42
0.333666
  0
VERTEX
  8
0
 10
173.257153
 20
47.684921
 42
0.052471
  0
VERTEX
  8
0
 10
172.580113
 20
47.787295
 42
0.014395
  0
VERTEX
  8
0
 10
171.500000
 20
47.805051
 42
0.012823
  0
VERTEX
  8
0
 10
170.431793
 20
47.764444
 42
0.080377
  0
VERTEX
  8
0
 10
169.900903
 20
47.643467
 42
0.597527
  0
VERTEX
  8
0
 10
169.883358
 20
47.483340
 42
0.087174
  0
SEQEND
  0
POLYLINE
  8
0
 66
1
 70
1
  0
VERTEX
  8
0
 10
161.500000
 20
45.463885
 42
0.025127
  0
VERTEX
  8
0
 10
159.527421
 20
44.437837
 42
0.765795
  0
VERTEX
  8
0
 10
159.618429
 20
44.104015
 42
0.076532
  0
VERTEX
  8
0
 10
161.195124
 20
44.350691
 42
0.009457
  0
VERTEX
  8
0
 10
164.500000
 20
45.471164
 42
0.013291
  0
VERTEX
  8
0
 10
165.921719
 20
46.026475
 42
0.053307
  0
VERTEX
  8
0
 10
166.737500
 20
46.477941
 42
0.407475
  0
VERTEX
  8
0
 10
166.783995
 20
46.726455
 42
0.255487
  0
VERTEX
  8
0
 10
166.500000
 20
46.874888
 42
0.046129
  0
VERTEX
  8
0
 10
165.524726
 20
46.766331
 42
0.018003
  0
VERTEX
  8
0
 10
164.206250
 20
46.445009
 42
0.017640
  0
VERTEX
  8
0
 10
162.795256
 20
45.992524
 42
0.020952
  0
SEQEND
  0
ENDSEC
  0
EOF
